<svg xmlns="http://www.w3.org/2000/svg" xmlns:xlink="http://www.w3.org/1999/xlink" viewBox="0 0 605.06 850.2"><defs><style>.cls-1,.cls-2,.cls-3{fill:none;}.cls-2{clip-path:url(#clip-path);}.cls-3{clip-path:url(#clip-path-2);}.cls-4{fill:#eff1fc;}.cls-5{fill:#9eb0de;}.cls-6{clip-path:url(#clip-path-3);}.cls-7{fill:#bcd7ff;}.cls-8{fill:#b7c4ee;}.cls-9{fill:#cacaf8;}.cls-10{fill:#dbdbfa;}.cls-11{fill:#f3f3fd;}.cls-12{fill:#402cbc;}.cls-13{fill:#d8dff6;}.cls-14{fill:#cdc7f2;}.cls-15{fill:#614ed6;}.cls-16{fill:#9b8fe5;}.cls-17{fill:#652410;}.cls-18{fill:#79980e;}.cls-19{fill:#68810f;}.cls-20{fill:#fff;}.cls-21{fill:#81a20f;}.cls-22{fill:#89ad10;}.cls-23{clip-path:url(#clip-path-4);}.cls-24{fill:#69a5ff;}.cls-25{fill:#adbcec;}.cls-26{fill:#7f97d3;}.cls-27{fill:#9baedd;}.cls-28{fill:#5877c6;}.cls-29{fill:#f0f0fd;}.cls-30{fill:#b8c5e7;}.cls-31{fill:#cfcffa;}.cls-32{fill:#bac6ef;}.cls-33{fill:#8298e2;}.cls-34{fill:#f5f5fe;}.cls-35{fill:#ff301b;}.cls-36{fill:#ffcd00;}.cls-37{fill:#59c100;}.cls-38{fill:#2c2982;}.cls-39{fill:#7d00d7;}.cls-40{fill:#efb185;}.cls-41{fill:#b31a00;}.cls-42{fill:#8cc7ff;}.cls-43{fill:#abd6ff;}.cls-44{fill:#77bdff;}.cls-45{fill:#e8a476;}.cls-46{fill:#db9669;}.cls-47{fill:#f1b287;}.cls-48{fill:#a7b7ea;}.cls-49{fill:#cdd6f3;}.cls-50{fill:#e9e9fc;}.cls-51{fill:#768fdf;}</style><clipPath id="clip-path"><path class="cls-1" d="M347.57,645.66,349.8,647l-9.88,13.12-82.6-47.69a2.31,2.31,0,0,1-.48-.28h0a3.59,3.59,0,0,1-1.2-3,10.91,10.91,0,0,1,4.39-8.16h0l.51-.33,29-16.76c8.66-5,16.5-13.58,22.17-23.41s9.19-20.91,9.19-30.9a30.18,30.18,0,0,0-1.81-10.2,25.08,25.08,0,0,0-4.55-8l0,0L225.14,406.36c-1.26-1.48-1-4.48.47-7.19h0a11.14,11.14,0,0,1,.93-1.45c2.07-2.78,4.81-3.88,6.39-2.68l82,47.35-5.05,2.92.72,5.9L393,548.1l6.41,3.7,4.69,14.59,4.24,2.48L407,575.28l1.38,4.26-2-1.19-1.17,5.47,3.2,1.85-22.09,36.22,1.24.71-40,23.06Z"/></clipPath><clipPath id="clip-path-2"><path class="cls-1" d="M436.05,788.15c0-9.33-55.16-40.59-91.18-15.51C318.63,790.9,318.1,810.76,319,814.69c2.66,11.38,26.12,23.95,35,24.67,12.44,1,22.14-6.59,39.49-16.5,21.15-12.08,42.59-25.07,42.59-34.71Z"/></clipPath><clipPath id="clip-path-3"><path class="cls-2" d="M259.3,601.49l86.93,50.19-6.31,8.39-83.08-48h0a3.6,3.6,0,0,1-1.21-3A11,11,0,0,1,259.3,601.49Z"/></clipPath><clipPath id="clip-path-4"><path class="cls-3" d="M377.07,763.1c-11.15,0-22.38,2.7-32.2,9.54C318.64,790.9,318.1,810.76,319,814.69c2.66,11.38,26.13,23.94,35,24.67,12.44,1,22.14-6.59,39.49-16.5,21.15-12.08,42.59-25.07,42.59-34.71-16.87-9.8-22.28,7.61-58.63-13.49-.2-.11-3.68-2.66-4-3.29-1.51-3,0-6.46,3.65-8.27Z"/></clipPath></defs><title>Asset 6</title><g id="Layer_2" data-name="Layer 2"><g id="Layer_1-2" data-name="Layer 1"><path class="cls-4" d="M386,665.93c-17.08,9.86-42.95,10.93-57.74,2.39L275.67,638c-14.79-8.54-12.93-23.48,4.15-33.34s42.95-10.94,57.75-2.4l52.59,30.37C405,641.13,403.09,656.07,386,665.93Z"/><path class="cls-5" d="M347.57,645.66,349.8,647l-9.88,13.12-82.6-47.69a2.31,2.31,0,0,1-.48-.28h0a3.59,3.59,0,0,1-1.2-3,10.91,10.91,0,0,1,4.39-8.16h0l.51-.33,29-16.76c8.66-5,16.5-13.58,22.17-23.41s9.19-20.91,9.19-30.9a30.18,30.18,0,0,0-1.81-10.2,25.08,25.08,0,0,0-4.55-8l0,0L225.14,406.36c-1.26-1.48-1-4.48.47-7.19h0a11.14,11.14,0,0,1,.93-1.45c2.07-2.78,4.81-3.88,6.39-2.68l82,47.35-5.05,2.92.72,5.9L393,548.1l6.41,3.7,4.69,14.59,4.24,2.48L407,575.28l1.38,4.26-2-1.19-1.17,5.47,3.2,1.85-22.09,36.22,1.24.71-40,23.06Z"/><g class="cls-6"><path class="cls-7" d="M229,392.77l-13.3,7.68,94,54.25L323,447Z"/><path class="cls-8" d="M259.3,601.49l86.93,50.19-6.31,8.39-83.08-48h0a3.6,3.6,0,0,1-1.21-3A11,11,0,0,1,259.3,601.49Z"/><path class="cls-7" d="M229,392.77l-13.3,7.68,94,54.25L323,447Z"/><path class="cls-9" d="M397,558.93,307.65,454c-1.48-1.75-.86-5.62,1.4-8.64s5.3-4.06,6.78-2.31L405.2,548a31.09,31.09,0,0,1,5.68,10,40.33,40.33,0,0,1,2.35,13.58c0,13.12-4.61,27.66-12.05,40.56s-17.75,24.17-29.1,30.72l-29,16.76c-2.7,1.57-4.9.3-4.9-2.82a10.84,10.84,0,0,1,4.9-8.49l29-16.76c8.65-5,16.49-13.58,22.17-23.41s9.19-20.91,9.19-30.9a30.18,30.18,0,0,0-1.82-10.2,25.08,25.08,0,0,0-4.55-8v0h0v0Z"/></g><path class="cls-10" d="M166,.94c2.33-1.35,5.32-1.3,8.4.48L584.32,237.84c6.12,3.53,10.3,12.56,9.31,20.15L546.81,617.12c-.49,3.78-2.17,6.5-4.48,7.83h0a6.23,6.23,0,0,1-.63.32l-12.61,6.47.34-9.86L124,388.05c-6.12-3.53-10.29-12.56-9.3-20.15L160.84,14l-7.49-6.55L166,.94Z"/><path class="cls-9" d="M592.65,265.46,546.81,617.12c-.49,3.78-2.17,6.5-4.48,7.83l-12,6.13-1.28.5L575,272.39Z"/><path class="cls-11" d="M580.4,264.78c1-7.59-3.19-16.62-9.31-20.15L161.18,8.2c-6.13-3.53-11.9-.24-12.9,7.36L101.47,374.68c-1,7.6,3.19,16.63,9.31,20.16L520.69,631.26c6.13,3.53,11.9.24,12.89-7.35Z"/><path class="cls-12" d="M576.17,265.87c1-7.53-3.15-16.48-9.23-20L160.63,11.54c-6.07-3.5-11.79-.23-12.77,7.29l-46.4,356c-1,7.52,3.15,16.47,9.22,20L517,629.13c6.07,3.5,11.8.23,12.78-7.29Z"/><path class="cls-13" d="M535.2,580.18l-428.31-247-5.43,41.67c-1,7.52,3.15,16.47,9.22,20L517,629.13c6.07,3.5,11.8.23,12.78-7.29Z"/><path class="cls-4" d="M570.28,735.68c-20.43-11.79-53.44-11.8-73.73,0s-20.18,30.91.24,42.7,53.43,11.79,73.73,0S590.7,747.47,570.28,735.68Z"/><path class="cls-14" d="M580.58,748.16l-8.47-100.91-78.74,3.49-8,95c-1.35,8,3.26,16.2,13.85,22.31,18.7,10.8,48.93,10.85,67.51.12,9.55-5.51,14.13-12.8,13.83-20.05Z"/><path class="cls-15" d="M572.31,653.6v-.42l-.09-18.13-14.51.39c-15.53-7.44-38.39-7-52.82,1.45l-11.55.31,0,15.62v.89h0c.22,5.77,4.09,11.5,11.61,15.92,15.47,9,40.47,9.1,55.84.09,7.43-4.35,11.22-10,11.44-15.74h0Z"/><path class="cls-16" d="M560.85,653.38c-15.38,9-40.37,9-55.85-.1s-15.54-23.7-.17-32.71,40.38-9,55.84.1S576.22,644.37,560.85,653.38Z"/><path class="cls-15" d="M564.53,639.76c-.95,3.85-3.95,7.55-9,10.49-12.53,7.25-32.91,7.22-45.52-.08-4.93-2.86-8-6.4-9-10.08-1.71-5.75,1.26-11.85,8.88-16.29,12.53-7.25,32.91-7.19,45.52.08C562.84,628.21,565.92,634.15,564.53,639.76Z"/><path class="cls-17" d="M564.53,639.76c-.95,3.85-3.95,7.55-9,10.49-12.53,7.25-32.91,7.22-45.52-.08-4.93-2.86-8-6.4-9-10.08.93-3.87,3.95-7.54,9-10.49,12.54-7.24,32.91-7.21,45.52.08,4.94,2.87,8,6.41,9,10.08Z"/><path class="cls-18" d="M605,531.71c-.19-3.34-17.39,2.2-20.29,4.28-8,5.77-7.06,15.38-12.46,20.38-6.41,5.93-16.88,3.19-22.84,10-7.07,8.1-4.78,17-7.31,26.22-1.9,6.93-8.4,10.1-11.7,16.15-6.61,12.16,2.87,37.3,3.25,36.35,5.93-14.8,20.56-18.73,31.35-35.2,3.13-4.8,3.78-10.73,6.3-15.8,3.75-7.52,11.46-10.33,14.84-17.06s5.12-20.37,5.61-23.7c2.18-14.77,13.79-21.08,13.26-21.47,0,0,0-.12,0-.17"/><path class="cls-19" d="M553.21,563.43a12.85,12.85,0,0,0-3.77,3c-7.07,8.1-4.78,17-7.31,26.22-1.9,6.93-8.4,10.1-11.69,16.15-6.62,12.16,2.86,37.3,3.24,36.35a33.16,33.16,0,0,1,7-10.69c3.19-3.37-4.18-10.19,5.11-23.18C562.94,587.34,556.48,561.71,553.21,563.43Z"/><path class="cls-20" d="M598.87,534.28a26.87,26.87,0,0,0-10.39,7,26.48,26.48,0,0,0-6.16,11.1,21.8,21.8,0,0,1-4,8.36c-2.52,3.15-5.62,5-8.53,6.83-3.32,2.14-6.38,4.39-8.32,8.33-1.67,3.52-2.53,8.64-4.47,14.14a42.94,42.94,0,0,1-2.41,5.65c-2.65,5.12-6.76,7.44-10.47,11.72a28.54,28.54,0,0,0-4,5.82A50,50,0,0,0,536,624.43a48.91,48.91,0,0,0-1.27,11.8,48.16,48.16,0,0,1,6.5-22.42,27.16,27.16,0,0,1,4-5.37c4-4.26,8.29-6.55,11.22-11.74a41.35,41.35,0,0,0,2.7-5.87c2-5.38,2.83-10.42,4.51-13.87s4.44-5.54,7.36-7.53,6.22-4.13,8.75-7.56a23.08,23.08,0,0,0,3.92-9.16A25.61,25.61,0,0,1,589,541.77,26.67,26.67,0,0,1,598.87,534.28Z"/><path class="cls-21" d="M535.48,648.53c-3.08,3.77-18.61-17.44-20.26-22.36-4.55-13.68,4.81-24.15,2.72-34.63-2.49-12.46-17.16-18.16-18.36-31.3-1.42-15.58,8.9-24.15,13.77-37.13,3.66-9.78-1.29-19.05,0-29,2.58-20,35.2-41.51,34.84-40.06-5.65,22.5,8.23,39.61,6.88,68.22-.39,8.32-4.69,15.85-6.05,24-2,12.05,4.69,21.93,2.92,32.75s-11.34,28.36-13.6,32.7c-10.05,19.26-1.75,36.6-2.7,36.6-.09,0-.11.14-.16.21"/><path class="cls-18" d="M535.48,648.53c-3.08,3.77-18.61-17.44-20.26-22.36-4.55-13.68,4.81-24.15,2.72-34.63-2.49-12.46-17.16-18.16-18.36-31.3-1.06-11.69,4.47-19.43,9.36-28,.91-1.6,9.51-1.75,11.57,33.66,1,16.61,19.37,32.46,17.82,45.87-10,19.26-1.74,36.59-2.69,36.59-.09,0-.11.14-.16.21"/><path class="cls-20" d="M530.42,640.24a38.71,38.71,0,0,1-5.37-17.2,37.46,37.46,0,0,1,2.89-17.6,33.44,33.44,0,0,0,3.07-14c-.09-6.15-2.11-11.24-3.92-16.21s-3.38-9.71-2.31-15.43c1-5.51,4.31-12.16,6.57-20.23a61.31,61.31,0,0,0,1.85-9.14c1-8.56-2-14.88-3.07-23.29a40.53,40.53,0,0,1,0-9.82,69.92,69.92,0,0,1,11.74-31.91,70,70,0,0,0-12.94,31.76,41.75,41.75,0,0,0-.25,10.14c.79,8.25,3.68,14.5,2.47,22.85a60.69,60.69,0,0,1-2,8.78c-2.38,8.13-5.74,14.86-6.75,20.43-1.08,6.19.59,11.36,2.61,16.63,1.83,4.75,3.92,9.58,4.16,15.49a32,32,0,0,1-2.51,13.41,38.42,38.42,0,0,0-2.35,18.21,39,39,0,0,0,6.11,17.13Z"/><path class="cls-22" d="M534.73,647.11c-1.17,3.59-18.31-7.4-20.87-10.5-7.12-8.61-3.27-18.8-7.71-25.79-5.28-8.31-17.48-8.33-22-17.49-5.38-10.87-.31-19.94-.42-30.68-.08-8.09-6.25-13.41-8.09-21-3.71-15.15,13.85-39.82,14-38.67,2.19,17.83,17,26.33,24,47.38,2,6.12,1,12.77,2.33,19,1.91,9.27,9.51,14.54,11.25,22.85s-.28,23.67-.71,27.44c-1.88,16.72,9,26.94,8.27,27.2-.06,0,0,.13-.06.19"/><path class="cls-20" d="M528.77,642.53a29.81,29.81,0,0,1-8.61-11,28.88,28.88,0,0,1-2.74-13.48A26.11,26.11,0,0,0,515.76,607c-1.77-4.45-4.66-7.6-7.36-10.71s-5.09-6-5.9-10.39-.27-10-.9-16.42a47.59,47.59,0,0,0-1.24-7.16c-1.69-6.48-5.67-10.21-8.8-16a31.4,31.4,0,0,1-2.8-7,54.09,54.09,0,0,1-.55-26.32,56,56,0,0,0-2,13.23,55.15,55.15,0,0,0,1.35,13.37,32.08,32.08,0,0,0,2.63,7.45c2.84,5.73,6.65,9.44,8.08,15.8a46.41,46.41,0,0,1,1,6.86c.54,6.55,0,12.36.81,16.68,1,4.82,3.65,8.13,6.62,11.4,2.64,2.9,5.5,5.78,7.33,10A24.59,24.59,0,0,1,516,618a30.41,30.41,0,0,0,12.74,24.49Z"/><path class="cls-4" d="M434,800.68c0-9-53.26-39.2-88-15-25.33,17.63-25.84,36.81-24.95,40.6,2.56,11,25.22,23.12,33.74,23.82,12,1,21.38-6.36,38.13-15.93C413.33,822.52,434,810,434,800.68Z"/><path class="cls-8" d="M436.05,788.15c0-9.33-55.16-40.59-91.18-15.51C318.63,790.9,318.1,810.76,319,814.69c2.66,11.38,26.12,23.95,35,24.67,12.44,1,22.14-6.59,39.49-16.5,21.15-12.08,42.59-25.07,42.59-34.71Z"/><g id="mouse1"><g class="cls-23"><path class="cls-24" d="M374.51,799.54C355.75,811,357.72,839,365.63,837.4c55.69-11.53,70.76-46.61,70.42-46.16C426.13,804.36,394.48,787.3,374.51,799.54Z"/><path class="cls-10" d="M377.07,763.1c-11.15,0-22.38,2.7-32.2,9.54C318.64,790.9,318.1,810.76,319,814.69c2.66,11.38,26.13,23.94,35,24.67,12.44,1,22.14-6.59,39.49-16.5,21.15-12.08,42.59-25.07,42.59-34.71-16.87-9.8-22.28,7.61-58.63-13.49-.2-.11-3.68-2.66-4-3.29-1.51-3,0-6.46,3.65-8.27Z"/><path class="cls-25" d="M374.51,799.54C355.75,811,357.72,839,365.63,837.4c55.69-11.53,70.76-46.61,70.42-46.16C426.13,804.36,394.48,787.3,374.51,799.54Z"/><path class="cls-26" d="M408.89,766a11.06,11.06,0,0,0-5.51-1.28A21.55,21.55,0,0,0,390.09,770h0l-.5.44h0l3.39,2,.5-.44,18.31-2a6.15,6.15,0,0,0-.3-1.06l.88.51V768l-3.48-2Z"/><path class="cls-27" d="M399.6,768.43l-3.6-2.07a23.44,23.44,0,0,0-5.9,3.62l-.5.44,3.39,2,.5-.44,6.11-.65v-2.86Z"/><path class="cls-28" d="M406.78,766.71c-5,0-10.13,2.41-13.79,5.67,0,0,22.15-.43,22.2-.44C414.65,768.84,411.54,766.71,406.78,766.71Z"/></g></g><path class="cls-4" d="M242.22,804.56c-2.39,1.38-6,1.53-8.1.34L1.54,670.62c-2.07-1.2-1.81-3.3.59-4.68l113.25-65.39c2.4-1.38,6-1.53,8.1-.33L356.06,734.5c2.07,1.2,1.81,3.29-.58,4.67Z"/><path class="cls-10" d="M8.89,653.29l106.35-61.4c2.39-1.38,6-1.53,8.09-.34L348.18,721.37l9.13-5.27v11.76h0a3.34,3.34,0,0,1-2,2.65L242.07,795.9c-2.39,1.38-6,1.53-8.09.33L1.4,662a2.4,2.4,0,0,1-1.4-2H0V648.16Z"/><path class="cls-9" d="M357.31,716.39v11.47a3.34,3.34,0,0,1-2,2.65L242.08,795.9A9.21,9.21,0,0,1,238,797V785.26l119.28-68.87Z"/><path class="cls-29" d="M242.08,784.13c-2.4,1.38-6,1.53-8.1.33L1.4,650.18c-2.07-1.2-1.81-3.29.58-4.67l113.26-65.39c2.39-1.38,6-1.53,8.1-.34L355.91,714.06c2.08,1.2,1.82,3.29-.58,4.68L242.08,784.13Z"/><path class="cls-30" d="M242.22,779.71c-2.32,1.34-5.82,1.48-7.83.33L5.32,647.78c-2-1.16-1.75-3.18.56-4.52L115.38,580c2.32-1.33,5.82-1.48,7.83-.32L352.28,712c2,1.16,1.75,3.19-.56,4.52Z"/><path class="cls-28" d="M265.58,679.67l-11.92,6.88,12.76,7.37L278.34,687Z"/><path class="cls-28" d="M226.53,702.21l-11.91,6.88,12.76,7.37,11.91-6.88Z"/><path class="cls-28" d="M257.17,697.25l-11.91,6.88L258,711.5l11.91-6.88Z"/><path class="cls-28" d="M197.08,707.64l-11.92,6.88L209,728.28l11.91-6.89Z"/><path class="cls-28" d="M186.81,725.15,174.89,732l12.76,7.37,11.92-6.88Z"/><path class="cls-28" d="M185.63,633.52l-11.92,6.88,12.76,7.37,11.92-6.88Z"/><path class="cls-28" d="M146.59,656.06l-11.92,6.88,12.77,7.37,11.91-6.88Z"/><path class="cls-28" d="M177.23,651.1,165.32,658l12.76,7.37L190,658.47Z"/><path class="cls-28" d="M117.14,661.49l-11.92,6.88L118,675.74l11.92-6.89Z"/><path class="cls-28" d="M106.87,679,95,685.87l71,41L177.91,720Z"/><path class="cls-28" d="M145.39,610.28l-11.91,6.89,12.76,7.36,11.91-6.88Z"/><path class="cls-28" d="M137,627.87l-11.92,6.88,12.76,7.37,11.92-6.89Z"/><path class="cls-28" d="M66.63,655.76l-11.92,6.88L67.47,670l11.92-6.88Z"/><path class="cls-28" d="M305.21,702.55l-11.92,6.88,12.76,7.37L318,709.92Z"/><path class="cls-28" d="M278.5,709.57l-11.91,6.88,20,11.57,11.91-6.88Z"/><path class="cls-28" d="M246.74,736.31l-11.91,6.88,12.76,7.37,11.92-6.88Z"/><path class="cls-28" d="M226.44,748l-11.91,6.88,12.76,7.37,11.91-6.88Z"/><path class="cls-28" d="M225.27,656.4l-11.92,6.88,12.76,7.37L238,663.77Z"/><path class="cls-28" d="M186.23,678.94l-11.92,6.88,12.76,7.37L199,686.31Z"/><path class="cls-28" d="M216.86,674l-11.92,6.88,12.76,7.37,11.92-6.88Z"/><path class="cls-28" d="M156.78,684.37l-11.92,6.88,12.76,7.37,11.92-6.88Z"/><path class="cls-28" d="M125.51,598.81l-11.91,6.88,12.76,7.37,11.91-6.88Z"/><path class="cls-28" d="M86.48,621.35l-11.92,6.88L107.1,647,119,640.14,86.48,621.35Z"/><path class="cls-28" d="M106.09,610l-11.92,6.89,23.18,13.38,11.92-6.88Z"/><path class="cls-28" d="M67.05,632.57l-11.92,6.88,22.61,13,11.92-6.88Z"/><path class="cls-28" d="M46.75,644.29l-11.92,6.88,12.77,7.37,11.91-6.89Z"/><path class="cls-28" d="M285.34,691.08,273.42,698l12.76,7.37,11.92-6.88Z"/><path class="cls-28" d="M278.93,732.46l-32.64-18.84-11.92,6.88L267,739.34Z"/><path class="cls-28" d="M226.86,724.84,215,731.72l12.76,7.36,11.92-6.87Z"/><path class="cls-28" d="M206.56,736.55l-11.91,6.89,12.76,7.36,11.91-6.88Z"/><path class="cls-28" d="M205.39,644.92l-11.92,6.89,12.76,7.36,11.92-6.88Z"/><path class="cls-28" d="M166.35,667.47l-11.92,6.88,12.76,7.37,11.92-6.89Z"/><path class="cls-28" d="M197,662.5l-11.92,6.89,12.76,7.36,11.92-6.88Z"/><path class="cls-28" d="M136.9,672.89,125,679.77l12.76,7.37,11.92-6.88Z"/><path class="cls-28" d="M165.15,621.69l-11.92,6.88L166,635.94l11.92-6.88Z"/><path class="cls-28" d="M126.11,644.23l-11.91,6.88L127,658.48l11.92-6.88Z"/><path class="cls-28" d="M156.74,639.27l-11.91,6.88,12.76,7.37,11.91-6.88Z"/><path class="cls-28" d="M96.66,649.66l-11.92,6.88,12.77,7.37L109.42,657Z"/><path class="cls-28" d="M86.39,667.17l-11.92,6.88,12.76,7.37,11.92-6.89Z"/><path class="cls-28" d="M245,667.81l-11.92,6.88,12.76,7.37,11.92-6.89Z"/><path class="cls-28" d="M206,690.35l-11.92,6.88,12.76,7.37,11.92-6.88Z"/><path class="cls-28" d="M236.62,685.39l-11.92,6.88,12.76,7.37,11.92-6.89Z"/><path class="cls-28" d="M176.53,695.78l-11.91,6.88L177.38,710l11.92-6.89Z"/><path class="cls-31" d="M186.88,164.33c1.87-1.06,4.26-1,6.73.37L428,297.33c4.91,2.78,8.26,9.89,7.48,15.87L387.91,678.12c-.39,3-1.73,5.12-3.58,6.17h0c-.17.1-.34.18-.5.26l-8.55,3.63.25-7.76L144.76,549.83c-4.91-2.78-8.27-9.89-7.49-15.87l47-360.82-6-5.16,8.58-3.65Z"/><path class="cls-32" d="M427.92,371.05l-40,307.07c-.39,3-1.73,5.12-3.58,6.17l-.5.26-7.47,3.17,40.06-314.21Z"/><path class="cls-33" d="M426.39,317.1c.78-6-2.57-13.09-7.48-15.87L184.56,168.59c-4.91-2.78-9.53-.18-10.31,5.8L126.68,539.32c-.78,6,2.58,13.09,7.49,15.86L368.52,687.83c4.91,2.77,9.53.17,10.31-5.8L426.39,317.1Z"/><path class="cls-34" d="M386.71,621.58,134.57,478.87l-7.88,60.45c-.78,6,2.57,13.09,7.48,15.86L368.52,687.83c4.91,2.77,9.53.17,10.31-5.8l7.88-60.45Z"/><path class="cls-34" d="M426.39,317.1c.78-6-2.57-13.09-7.48-15.87L184.56,168.59c-4.91-2.78-9.53-.18-10.31,5.8L167,230.13,419.13,372.84Z"/><path class="cls-35" d="M193.44,206c4,2.29,6.86,7.6,6.3,11.85s-4.3,5.86-8.33,3.57-6.87-7.6-6.3-11.85S189.4,203.73,193.44,206Z"/><path class="cls-36" d="M214.82,218.1c4,2.29,6.86,7.6,6.3,11.86s-4.3,5.86-8.34,3.57-6.86-7.6-6.3-11.86,4.3-5.85,8.34-3.57Z"/><path class="cls-37" d="M236.27,230.37c4,2.29,6.86,7.6,6.3,11.86s-4.29,5.85-8.33,3.56-6.86-7.6-6.3-11.85S232.23,228.08,236.27,230.37Z"/><path class="cls-38" d="M404.68,340.16a4.89,4.89,0,0,0-2.16-4.59l-98.74-55.91c-1.42-.8-2.75-.05-3,1.68l-.44,3.38a4.94,4.94,0,0,0,2.17,4.6l98.73,55.9c1.42.81,2.76.06,3-1.67Z"/><path class="cls-39" d="M335.32,592.63c-5.1-3-122-68.94-135.57-76.65.36-11.12.94-20.93,1.67-29.57,5-58.84,46.88-25.58,46.88-25.58s-.32,1.07-.88,3l73.06-.82s27.72,35.5,16,106.3C336.51,569.32,336.24,579.3,335.32,592.63Z"/><path class="cls-40" d="M98.87,385.81s-23.6,11.75-35.8,9-28.68-11.26-21.83-15.18,25.39-2.56,26.33-7.61-10.71-3.92-5.17-6.65,16.17-3.74,36.09,6.74c0,0,5.8,6,.38,13.67Z"/><path class="cls-41" d="M254.37,169c12.82-10.88,28.4-8.52,43.48-3.63,13,4.23,20,11.85,26.2,26.32,12,28,9.25,49.43,11.25,57.62,8,32.77,52.2,61.95,3.19,136.78-3.56,5.43-122.79-43.35-124.68-78.11-2.14-39.42,15.67-54.76,20.4-59,12.28-11,38-19.66,23-35.2-.77-.79-13.26-25-9.51-15,.5,1.33,3.78,13.07,2.52,12.64a56.48,56.48,0,0,1-12.57-6.28c-3.06-13,7.68-28.39,16.77-36.12Z"/><path class="cls-42" d="M229.32,264.31a17.76,17.76,0,0,1,11,15.57s-2.87,28.55-25.58,70.3c0,0-21.31,41.13-32.34,43.2s-90.62-3.45-90.62-3.45,4.79-8.19-.2-22.48c0,0,69.85-7.62,75-13S214.09,268.43,229.32,264.31Z"/><path class="cls-43" d="M338.65,314.5s-15.78-26.55-43.55-42c-37.67-21-66.33-11.45-67.68-6.17-13.14,51.31-36.7,83.85-24.54,115.67,16.27,42.61,1.27,77.67-3,95.16-5,20.29,48.09,40.94,91.33,44.83,10,.9,11.69-.6,20.86-1.48,6-.59,17.44-36.45,12.19-57.45s-21-55.83-11.15-94.51S345.21,334.19,338.65,314.5Z"/><path class="cls-44" d="M339.18,316.29c5.87,22.34,7.16,39.28-2.68,78s1.2,80.11,3.33,101.62c2,20.31-28.56,26.69-45,26.13-4.3-38.6-8.36-150.24,19-184.31C321.67,328,339.18,316.29,339.18,316.29Z"/><path class="cls-45" d="M241.85,244.58s20.79,17.35.91,40.27c-4.69,5.42-4.6,25.15,29.58,18.71,0,0,36.14-14.93,26.51-26.25-6.38-7.54-12.34-18.18.68-53.37Z"/><path class="cls-46" d="M298.85,277.31a5.42,5.42,0,0,1,1.51,3.62c-32.47,3.92-52.71-20.3-52.71-20.3L292,227.12s2,1.58,5,4.21C287.41,260.65,293,270.34,298.85,277.31Z"/><path class="cls-47" d="M252.31,181.21s-12.85,2.6-15.23,29.29c-.3,2.95-.94,51,16.08,55.47,12.33,3.23,35.46-2.73,48.14-31.92s-10-69.75-49-52.84Z"/><path class="cls-45" d="M252.31,181.21s-12.85,2.6-15.23,29.29c-.3,2.95,1.87,12.15,18.89,16.64,12.33,3.23,40,9.5,42.88-1.34C306.91,195.05,291.33,164.3,252.31,181.21Z"/><path class="cls-47" d="M285.64,238s5.86-14.42,14-9.26c2.54,1.66,5.2,4.93.57,12.25s-13.66,13.53-20.29,12.19l5.7-15.18Z"/><path class="cls-41" d="M254.37,169c12.82-10.88,28.4-8.52,43.48-3.63,13,4.23,25.78,18,26.16,30.88.4,12.23-2.28,27-10.85,38.4-3.89,5.2-19.66,36.49-20.88,29.22-3.25-19.47,6.28-16.86.5-32.23-1.17-3.12-5.46,5-7.86,4-41.7-9.1-47.32-30.51-47.32-30.51C234.54,192.08,245.28,176.73,254.37,169Z"/><path class="cls-47" d="M290.07,226c-4.8,4.36-6.56,10.23-3.93,13.09s8.59,1.62,13.4-2.72,6.53-10.24,3.92-13.08-8.63-1.68-13.39,2.71Z"/><path class="cls-40" d="M210.12,423.52s-25.63,6.06-36.89.62-25.36-17.44-17.82-19.69,25.33,3.25,27.39-1.47-9.55-6.23-3.54-7.65,16.58,0,33.64,14.79C212.9,410.12,217.22,417.27,210.12,423.52Z"/><path class="cls-42" d="M331.64,308.64s-18.54-7.81-29.55,20.65-29.62,76.11-29.62,76.11l-4.64,6.49-62.91-8.47s9.39,13.21-4.49,21.88c0,0,76.13,37.54,98.7,14C299.13,439.31,363.37,317.59,331.64,308.64Z"/><path class="cls-48" d="M480.74,408.9l18.21-11,2,22.44L482.7,431.33l-2-22.43Z"/><path class="cls-34" d="M550.91,411.78c5.71-3.4,9.83-10.22,11-19.67l3.19-25.68c2.35-18.9-8-41.17-23.05-49.7l-127.69-72c-7.45-4.22-14.67-4.29-20.36-1h0l-22,13.09-3.91,31.47,12.55-7.47-1,8.38c-2.35,18.89,8,41.16,23.05,49.7l127.69,72,.28.16-1.72,13.83,22-13.09Z"/><path class="cls-49" d="M534.85,363.43l-5.8,46.71,1.31.74.28.16-1.71,13.83,22-13.09c4.91-2.92,8.64-8.37,10.34-15.84l4.17-33.54a52.69,52.69,0,0,0-2-15.93Z"/><path class="cls-50" d="M543.12,379.51c2.35-18.89-8-41.16-23-49.7l-127.68-72c-15.07-8.53-29.21-.11-31.57,18.78l-3.19,25.68c-2.34,18.9,8,41.17,23.05,49.7l76.66,43.66,25.56,36-2.16-22.71L508.37,424c15.07,8.53,29.21.12,31.56-18.78Z"/><path class="cls-51" d="M457.85,327.19a7.73,7.73,0,0,0-3.34-7.22l-48-26.71c-2.19-1.24-4.24,0-4.58,2.72l-.47,3.73a7.74,7.74,0,0,0,3.35,7.21l48,26.72c2.19,1.24,4.24,0,4.58-2.72Z"/><path class="cls-51" d="M512.93,385.19a7.73,7.73,0,0,0-3.34-7.21L400.76,316.71c-2.18-1.24-4.24,0-4.57,2.73l-.47,3.72a7.75,7.75,0,0,0,3.35,7.22l108.82,61.26c2.19,1.24,4.24,0,4.58-2.72Z"/><path class="cls-34" d="M432.82,485.86c5.75-3.42,9.9-10.3,11.08-19.81l3.21-25.84c2.37-19-8-41.43-23.19-50L295.05,317.54c-7.5-4.25-14.78-4.32-20.5-1h0L252.42,329.7l-3.94,31.67,12.64-7.52-1.05,8.44c-2.37,19,8,41.43,23.2,50l61.07,34.59-10.12,15.48,33.68-2.15L412.13,485l.28.15L410.68,499l22.14-13.17Z"/><path class="cls-49" d="M416.65,437.2l-5.84,47,1.32.76.28.15L410.68,499l22.13-13.17c4.94-2.94,8.7-8.43,10.41-15.95l4.2-33.76a53.7,53.7,0,0,0-2.06-16L416.65,437.2Z"/><path class="cls-50" d="M425,453.38c2.37-19-8-41.44-23.19-50L272.91,330.71c-15.17-8.59-29.4-.12-31.76,18.9l-3.22,25.84c-2.36,19,8,41.44,23.2,50l7.45,4.22-10.12,15.48L292.14,443,390,498.12c15.16,8.59,29.39.12,31.76-18.9L425,453.38Z"/><path class="cls-51" d="M335,399.58a7.81,7.81,0,0,0-3.37-7.26L283,365.23c-2.2-1.25-4.27,0-4.61,2.74l-.46,3.75a7.77,7.77,0,0,0,3.36,7.26L330,406.07c2.2,1.25,4.27,0,4.61-2.74Z"/><path class="cls-51" d="M390.68,457.85a7.77,7.77,0,0,0-3.36-7.26L277.44,388.72c-2.2-1.24-4.27,0-4.61,2.75l-.47,3.75a7.81,7.81,0,0,0,3.37,7.26L385.6,464.34c2.21,1.25,4.27,0,4.62-2.74l.46-3.75Z"/></g></g></svg>