<?xml version="1.0" encoding="UTF-8"?>
<svg id="Calque_1" data-name="Calque 1" xmlns="http://www.w3.org/2000/svg" version="1.1" viewBox="0 0 500 500">
  <defs>
    <style>
      .cls-1 {
        opacity: .3;
      }

      .cls-1, .cls-2, .cls-3, .cls-4, .cls-5, .cls-6, .cls-7, .cls-8, .cls-9, .cls-10, .cls-11, .cls-12, .cls-13 {
        stroke-width: 0px;
      }

      .cls-1, .cls-5, .cls-6, .cls-7, .cls-9, .cls-10, .cls-11, .cls-13 {
        isolation: isolate;
      }

      .cls-1, .cls-6, .cls-9, .cls-11, .cls-13 {
        fill: #000;
      }

      .cls-2 {
        fill: #de5753;
      }

      .cls-3 {
        fill: #e4897b;
      }

      .cls-4 {
        fill: #54f98d;
      }

      .cls-5, .cls-7, .cls-10 {
        fill: #fff;
      }

      .cls-5, .cls-13 {
        opacity: .4;
      }

      .cls-6 {
        opacity: .1;
      }

      .cls-7 {
        opacity: .5;
      }

      .cls-8 {
        fill: #263238;
      }

      .cls-9 {
        opacity: .2;
      }

      .cls-10, .cls-11 {
        opacity: .6;
      }

      .cls-12 {
        fill: #ce6f64;
      }
    </style>
  </defs>
  <g id="freepik--Mail--inject-238">
    <polygon class="cls-4" points="48.9 150.6 276.8 183.4 307.4 214.2 48.9 150.6"/>
    <polygon class="cls-10" points="48.9 150.6 276.8 183.4 307.4 214.2 48.9 150.6"/>
    <polygon class="cls-4" points="48.9 150.6 276.8 183.4 266.2 228 48.9 150.6"/>
    <polygon class="cls-9" points="48.9 150.6 276.8 183.4 266.2 228 48.9 150.6"/>
    <path class="cls-4" d="M261.6,98.9l13.2,62c.7,3.4-1.4,6.7-4.8,7.4l-118.1,25.2c-3.4.7-6.7-1.4-7.4-4.8l-13.2-62c-.7-3.4,1.4-6.7,4.8-7.4l118.1-25.2c3.4-.7,6.7,1.4,7.4,4.8h0Z"/>
    <path class="cls-13" d="M261.6,98.9l13.2,62c.7,3.4-1.4,6.7-4.8,7.4l-118.1,25.2c-3.4.7-6.7-1.4-7.4-4.8l-13.2-62c-.7-3.4,1.4-6.7,4.8-7.4l118.1-25.2c3.4-.7,6.7,1.4,7.4,4.8h0Z"/>
    <path class="cls-4" d="M258.7,94.8l-39.4,48.4c-7.5,9.3-20.5,12-31.1,6.6l-55.8-28.1c.9-1.3,2.3-2.2,3.8-2.5l118.1-25.2c1.5-.3,3.1,0,4.5.8Z"/>
    <polygon class="cls-4" points="48.9 150.6 236.9 195.2 266.2 228 48.9 150.6"/>
    <polygon class="cls-10" points="48.9 150.6 236.9 195.2 266.2 228 48.9 150.6"/>
    <rect class="cls-4" x="127.2" y="188.1" width="1" height="24.3" transform="translate(-109.6 209.2) rotate(-59.6)"/>
    <rect class="cls-4" x="150.6" y="209.6" width="1" height="8.7" transform="translate(-109.9 236.2) rotate(-59.6)"/>
    <polygon class="cls-4" points="48.9 150.6 236.9 195.2 200.3 239.3 48.9 150.6"/>
    <path class="cls-4" d="M300.4,255.3c-.3,0-.5,0-.7-.1l-30.6-12.1c-1-.4-1.5-1.6-1.1-2.6.4-1,1.6-1.5,2.6-1.1l30.6,12.1c1,.4,1.5,1.6,1.1,2.6-.3.8-1,1.3-1.9,1.3h0Z"/>
    <path class="cls-1" d="M300.4,255.3c-.3,0-.5,0-.7-.1l-30.6-12.1c-1-.4-1.5-1.6-1.1-2.6.4-1,1.6-1.5,2.6-1.1l30.6,12.1c1,.4,1.5,1.6,1.1,2.6-.3.8-1,1.3-1.9,1.3h0Z"/>
    <path class="cls-4" d="M298.5,237.7c-.3,0-.5,0-.7-.1l-16.4-6.6c-1-.4-1.5-1.6-1.1-2.6s1.6-1.5,2.6-1.1c0,0,0,0,0,0l16.5,6.5c1,.4,1.5,1.6,1.1,2.6-.3.8-1,1.3-1.9,1.3Z"/>
    <path class="cls-7" d="M298.5,237.7c-.3,0-.5,0-.7-.1l-16.4-6.6c-1-.4-1.5-1.6-1.1-2.6s1.6-1.5,2.6-1.1c0,0,0,0,0,0l16.5,6.5c1,.4,1.5,1.6,1.1,2.6-.3.8-1,1.3-1.9,1.3Z"/>
    <path class="cls-4" d="M264.2,255c-.2,0-.5,0-.7-.1l-29.9-11.9c-1-.4-1.5-1.6-1.1-2.6.4-1,1.6-1.5,2.6-1.1,0,0,0,0,0,0l29.9,11.8c1,.4,1.5,1.6,1.1,2.6-.3.8-1,1.3-1.9,1.3h0Z"/>
    <path class="cls-1" d="M264.2,255c-.2,0-.5,0-.7-.1l-29.9-11.9c-1-.4-1.5-1.6-1.1-2.6.4-1,1.6-1.5,2.6-1.1,0,0,0,0,0,0l29.9,11.8c1,.4,1.5,1.6,1.1,2.6-.3.8-1,1.3-1.9,1.3h0Z"/>
  </g>
  <g id="freepik--Character--inject-238">
    <path class="cls-3" d="M372.3,164.8c2.6,5.2,5.1,10.4,7.4,15.6s4.5,10.7,6.3,16.3l.7,2.1c.1.4.3,1,.4,1.4s.2.9.2,1.4c.2,1.6.3,3.2.4,4.9,0,3-.1,6-.4,9-.6,5.8-1.5,11.5-2.7,17.2l-5.5-.6c0-5.6-.1-11.3-.3-16.9,0-2.8-.2-5.5-.5-8.1-.1-1.2-.3-2.4-.6-3.6,0-.3-.1-.5-.2-.7s-.1-.3-.2-.6l-.8-1.9c-2.1-5.1-4.4-10.2-6.8-15.2l-7.3-15.2,10-5Z"/>
    <path class="cls-3" d="M379.1,230.4l-2.6,4.8,8.2,2.3s1.6-3.9-.3-6.9l-5.3-.2Z"/>
    <polygon class="cls-3" points="373.5 242.1 381 242.7 384.8 237.5 376.6 235.2 373.5 242.1"/>
    <path class="cls-8" d="M337.9,130.3c-.1.6-.5,1-.9.9s-.6-.6-.5-1.2.5-1,.9-.9.6.6.5,1.2Z"/>
    <path class="cls-2" d="M337.4,131.3c-1.1,1.6-2.3,3.1-3.8,4.4.7.7,1.7,1.1,2.7,1.1l1.1-5.5Z"/>
    <path class="cls-8" d="M340.6,127.5c0,0-.2,0-.2-.1-.6-.7-1.4-1-2.3-.9-.2,0-.4-.2-.4-.3,0-.1,0-.3.2-.3,1.1-.1,2.3.3,3,1.2.1.1.1.4,0,.5,0,0-.2.1-.3,0Z"/>
    <path class="cls-3" d="M354.4,138.4c-1,5.4-2.1,15.2,1.7,18.8,0,0-1.5,5.4-11.5,5.4s-5.2-5.4-5.2-5.4c6-1.4,5.8-5.9,4.8-10.1l10.2-8.8Z"/>
    <path class="cls-8" d="M357.6,160.6c.8-2.6,1.7-5.6-.1-6.6-2-1-12.9-2.1-16.6-.1s-2.7,7.3-2.7,7.3l19.4-.6Z"/>
    <path class="cls-4" d="M380.6,410c-.6,0-1.3,0-1.8-.5-.2-.2-.2-.6,0-.8.1-.2.3-.4.5-.4,1.1-.2,3.1,1.1,3.2,1.2,0,0,0,.1,0,.2,0,0,0,.1-.1.1-.6.1-1.3.2-1.9.2ZM379.7,408.6h-.2c-.1,0-.3.1-.3.2-.2.3,0,.4,0,.4.3.4,1.8.4,2.9.2-.7-.5-1.5-.8-2.4-.9h0Z"/>
    <path class="cls-4" d="M382.5,409.8h0c-.8-.4-2.2-2-2.1-2.8,0-.3.3-.5.6-.5.3,0,.5,0,.7.2.9.7,1,2.8,1,2.9,0,0,0,.1,0,.2,0,0,0,0,0,0ZM381,406.8h0c-.2,0-.2.1-.3.2,0,.5.9,1.7,1.6,2.3,0-.8-.4-1.6-.9-2.3-.1-.1-.3-.2-.5-.1h0Z"/>
    <path class="cls-4" d="M336.5,410c-.9,0-1.9-.1-2.2-.5-.2-.2-.2-.5,0-.8.1-.2.3-.4.6-.4,1.2-.3,3.8,1.1,3.9,1.2,0,0,0,.1,0,.2,0,0,0,.1-.1.1-.7.1-1.5.2-2.2.2ZM335.4,408.6c-.1,0-.2,0-.3,0-.1,0-.3.1-.3.2-.1.2,0,.3,0,.4.3.5,2.2.5,3.6.3-.9-.5-1.9-.8-2.9-.9h0Z"/>
    <path class="cls-4" d="M338.8,409.8h0c-.9-.4-2.6-2-2.5-2.8,0-.2.2-.4.6-.5.4,0,.7,0,1,.3.9.8,1.1,2.7,1.1,2.8,0,0,0,.1,0,.2,0,0,0,0-.1,0ZM337,406.8h-.1c-.3,0-.3.2-.3.2,0,.5,1.1,1.8,2,2.3,0-.8-.4-1.6-1-2.3-.1-.1-.3-.2-.5-.2h0Z"/>
    <polygon class="cls-3" points="346.8 409.6 339.5 409.6 338.8 392.6 346.1 392.6 346.8 409.6"/>
    <polygon class="cls-3" points="390.9 409.6 383.6 409.6 379.9 392.6 387.2 392.6 390.9 409.6"/>
    <path class="cls-8" d="M383.1,408.8h8.2c.3,0,.6.2.6.5l1.5,6.5c.1.6-.3,1.2-.8,1.3,0,0-.2,0-.2,0-2.9,0-4.3-.2-7.9-.2s-6.8.2-9.9.2-3.5-3-2.2-3.3c5.7-1.2,7.8-3,9.6-4.6.3-.3.8-.5,1.2-.5Z"/>
    <path class="cls-8" d="M339.5,408.8h8c.3,0,.6.2.6.5l1.5,6.5c.1.6-.2,1.1-.8,1.3,0,0-.2,0-.2,0-2.9,0-7.1-.2-10.7-.2s-7.9.2-12.9.2-3.9-3-2.6-3.3c5.8-1.3,10.4-1.4,15.4-4.5.5-.4,1.2-.6,1.8-.6Z"/>
    <path class="cls-3" d="M336,170.1c-6.1-.5-12.3-1.3-18.3-2.4-3-.6-6.1-1.2-9.1-2.1-3.1-.8-6.2-1.8-9.2-3-.8-.3-1.5-.7-2.3-1-.9-.4-1.7-.9-2.5-1.5-1.4-.9-2.7-1.9-3.9-2.9-2.5-2-4.7-4-7-6.1-4.5-4.1-8.7-8.4-12.8-12.9l3.7-4.1,14.5,10.4c2.4,1.7,4.8,3.4,7.2,5,1.2.8,2.4,1.5,3.5,2.2.5.3.9.5,1.4.7.6.2,1.2.5,1.8.7,5.4,1.7,10.9,2.9,16.5,3.7,5.7.9,11.6,1.6,17.3,2.2l-.9,11Z"/>
    <path class="cls-4" d="M369.2,158.9c6.9,1.6,13.9,21.7,13.9,21.7l-14.2,10.2s-4-9.4-7.9-17.6c-4-8.6,1.1-15.9,8.2-14.3Z"/>
    <path class="cls-13" d="M369.2,158.9c6.9,1.6,13.9,21.7,13.9,21.7l-14.2,10.2s-4-9.4-7.9-17.6c-4-8.6,1.1-15.9,8.2-14.3Z"/>
    <path class="cls-4" d="M365.2,169.9l-2.8,6.3c2.9,6.3,5.6,12.5,6.3,14.2-.1-7.4-1.5-16.6-3.5-20.4Z"/>
    <path class="cls-11" d="M365.2,169.9l-2.8,6.3c2.9,6.3,5.6,12.5,6.3,14.2-.1-7.4-1.5-16.6-3.5-20.4Z"/>
    <path class="cls-4" d="M328.1,159.3s-7.8,8.8-.4,63.5h39.3c.3-6-3.5-35.5,2.3-63.9-4.3-.8-8.7-1.4-13.1-1.7-5.6-.3-11.1-.3-16.7,0-3.8.4-7.6,1.1-11.3,2Z"/>
    <path class="cls-13" d="M328.1,159.3s-7.8,8.8-.4,63.5h39.3c.3-6-3.5-35.5,2.3-63.9-4.3-.8-8.7-1.4-13.1-1.7-5.6-.3-11.1-.3-16.7,0-3.8.4-7.6,1.1-11.3,2Z"/>
    <path class="cls-4" d="M325.2,169.9c-.3,2.1-.5,4.5-.6,7.4,3.9-1.2,7.6-2.9,10.9-5.1l-10.4-2.3Z"/>
    <path class="cls-11" d="M325.2,169.9c-.3,2.1-.5,4.5-.6,7.4,3.9-1.2,7.6-2.9,10.9-5.1l-10.4-2.3Z"/>
    <path class="cls-4" d="M342,171c-5.3,4.7-25.3,4.2-25.3,4.2l-.7-19.4c6.8,1,13.6,1.5,20.5,1.5,11.2-.2,11.3,8.6,5.5,13.8Z"/>
    <path class="cls-13" d="M342,171c-5.3,4.7-25.3,4.2-25.3,4.2l-.7-19.4c6.8,1,13.6,1.5,20.5,1.5,11.2-.2,11.3,8.6,5.5,13.8Z"/>
    <path class="cls-3" d="M274.8,134.2l-5-5.9-5.4,6s3.3,5.6,8.6,4.7l1.8-4.8Z"/>
    <polygon class="cls-3" points="262.6 121.5 260.7 129.2 264.3 134.3 269.7 128.4 262.6 121.5"/>
    <polygon class="cls-12" points="338.8 392.6 339.1 401.4 346.5 401.4 346.1 392.6 338.8 392.6"/>
    <polygon class="cls-12" points="387.2 392.6 379.9 392.6 381.8 401.4 389.1 401.4 387.2 392.6"/>
    <path class="cls-8" d="M343.2,123c-6.6-3-8.7-16.3,10.3-13,0,0-2.9,3.2,2.9,5.2s.9,14.3-13.2,7.8Z"/>
    <path class="cls-3" d="M357.5,133c-1.9,7-2.6,11.3-7,14.2-6.5,4.4-14.7-.6-14.9-8.1-.2-6.7,2.9-17.1,10.5-18.5,5.4-1.1,10.6,2.5,11.7,7.8.3,1.5.2,3.1-.2,4.6Z"/>
    <path class="cls-8" d="M353.2,113.5c4.5,2.5,10.6,4,10,7.6-.8,4.3,3.7,1.6,2.6,8.1-.7,4.2-8.5,17.1-14,16.4-8.3-1-7.2-13.6-7.2-20.2,0-3.9-.2-16.8,8.6-11.9Z"/>
    <path class="cls-8" d="M343.6,119.1c-2,.5-4.6,12,3.1,13.1,8.9,1.2-3.1-13.1-3.1-13.1Z"/>
    <path class="cls-8" d="M343.8,123.2c-2.5.2-8-2.7-7.3-7.2,0,0,3.5,5.2,7.3,7.2Z"/>
    <path class="cls-3" d="M347.5,133.1c-.8,1.6-2,3-3.6,3.9-2.1,1.1-3.3-.5-2.8-2.6.4-1.9,2-4.8,4.2-5s3.1,1.8,2.2,3.8Z"/>
    <path class="cls-8" d="M358.5,125c3-1.3,5.2-4.1,5.8-7.3,0,0,3.3,9.2-5.8,7.3Z"/>
    <path class="cls-8" d="M366.8,124.8c-1.4-.9-3.2-1.1-4.8-.5,0,0,3.1-4,4.8.5Z"/>
    <path class="cls-4" d="M341.6,222.8s8.3,56.1,12.9,77.2c5,23,23.9,99.8,23.9,99.8h13.5s-12.5-74.9-15.3-97.7c-3.1-24.8-9.6-79.3-9.6-79.3h-25.3Z"/>
    <path class="cls-7" d="M341.6,222.8s8.3,56.1,12.9,77.2c5,23,23.9,99.8,23.9,99.8h13.5s-12.5-74.9-15.3-97.7c-3.1-24.8-9.6-79.3-9.6-79.3h-25.3Z"/>
    <path class="cls-4" d="M376.2,394.8c0,0,1.4,5.2,1.4,5.2h15.1l-.3-4.6-16.3-.6Z"/>
    <path class="cls-6" d="M376.2,394.8c0,0,1.4,5.2,1.4,5.2h15.1l-.3-4.6-16.3-.6Z"/>
    <path class="cls-4" d="M346.8,242.8c9.6,1.9,8.6,37.8,7.5,56.3-2.8-13.1-6.9-38.2-9.6-56.1.7-.3,1.4-.4,2.2-.3Z"/>
    <path class="cls-5" d="M346.8,242.8c9.6,1.9,8.6,37.8,7.5,56.3-2.8-13.1-6.9-38.2-9.6-56.1.7-.3,1.4-.4,2.2-.3Z"/>
    <path class="cls-4" d="M327.6,222.8s-1,54.9-.2,77.3c.8,23.3,9,99.6,9,99.6h12.4s.5-74.9,1-97.8c.6-25,3.6-79.1,3.6-79.1h-25.9Z"/>
    <path class="cls-7" d="M327.6,222.8s-1,54.9-.2,77.3c.8,23.3,9,99.6,9,99.6h12.4s.5-74.9,1-97.8c.6-25,3.6-79.1,3.6-79.1h-25.9Z"/>
    <path class="cls-4" d="M339,390.8c0,0-.1,0-.1-.1-2.2-21.1-7.4-72.2-8-90.6-.7-18.7,0-60.7.1-73.1,0,0,0-.1.1-.1h0c0,0,.1,0,.1.1-.2,12.4-.8,54.4-.1,73.1.6,18.3,5.8,69.4,8,90.5,0,0,0,.1-.1.1h0Z"/>
    <path class="cls-5" d="M339,390.8c0,0-.1,0-.1-.1-2.2-21.1-7.4-72.2-8-90.6-.7-18.7,0-60.7.1-73.1,0,0,0-.1.1-.1h0c0,0,.1,0,.1.1-.2,12.4-.8,54.4-.1,73.1.6,18.3,5.8,69.4,8,90.5,0,0,0,.1-.1.1h0Z"/>
    <path class="cls-4" d="M334,394.8s.7,5.2.7,5.2h15.1l.4-4.6-16.2-.6Z"/>
    <path class="cls-6" d="M334,394.8s.7,5.2.7,5.2h15.1l.4-4.6-16.2-.6Z"/>
  </g>
</svg>