<svg xmlns="http://www.w3.org/2000/svg" viewBox="0 0 466.09 819.49"><defs><style>.cls-1{fill:#a36fff;}.cls-2{fill:#ba93ff;}.cls-3{fill:#8038ff;}.cls-4{fill:#dbdbfa;}.cls-5{fill:#ceb2ff;}.cls-6{fill:#ffa299;}.cls-7{fill:#ff7e71;}.cls-8{fill:#ff301b;}.cls-9{fill:#310087;}.cls-10{fill:#a9bfff;}.cls-11{fill:#0082ff;}.cls-12{fill:#fffba4;}.cls-13{fill:#ffc800;}.cls-14{fill:#ffa9e2;}.cls-15{fill:#ff00a9;}.cls-16{fill:#eff1fc;}.cls-17{fill:#d80051;}.cls-18{fill:#221764;}.cls-19{fill:#6653d7;}.cls-20{fill:#402cbc;}.cls-21{fill:#cb1300;}.cls-22{fill:#efb185;}.cls-23{fill:#dd9569;}.cls-24{fill:#e6a376;}</style></defs><title>Asset 7</title><g id="Layer_2" data-name="Layer 2"><g id="Layer_1-2" data-name="Layer 1"><g id="progress-window"><path id="screen" class="cls-1" d="M131.93,582.14c-6.16-3.56-10-11.27-10-22.25V91.25C122,69.65,136.77,43.55,155,33L205.37,4.42c9.22-5.33,17.56-5.67,23.57-1.93l26.21,15.14-6.75,3.9a37.86,37.86,0,0,1,1.08,9.29l2.89,470c0,21.6-14.82,47.7-33.08,58.24l-53.23,27.2a36.73,36.73,0,0,1-7,3.15v8.37l-27.17-15.68Z"/><path id="screen1" class="cls-2" d="M228,2l27.16,15.68-6.75,3.9a37.88,37.88,0,0,1,1.07,9.29l0,5.53L160.08,88,126.57,68.63C132.34,53.82,142.93,40,155,33L205.37,4.42C214.12-.63,222.07-1.2,228,2Z"/><path id="screen2" class="cls-3" d="M182.2,48.7c-18.26,10.54-33.08,36.63-33.08,58.23V575.58c0,21.6,14.82,30.58,33.08,20l53.23-27.2c18.26-10.54,33.08-36.64,33.08-58.24l-2.89-470c0-21.6-14.82-30.58-33.08-20Z"/><path class="cls-4" d="M237.4,116.29l-57.17,41.56,34.72-1,12.35,26.71,10.1-67.24Z"/><path class="cls-4" d="M187.43,291.2c0,.55.21.7.62.46.66-.38,1.25-2.05,1.78-5q1.6-8.82,4.45-13.34a25.33,25.33,0,0,1,9.06-8.11c1.6-.93,3-1.66,4.18-2.21l-.09,62.46a6.46,6.46,0,0,1-1.24,4,37.38,37.38,0,0,1-6.22,4.83,1.83,1.83,0,0,0-1,1.49c0,.68.47.75,1.42.2.18-.1.62-.39,1.33-.87.89-.58,1.63-1,2.23-1.39l9.15-5.59,15.11-8.42c.83-.48,1.25-1,1.25-1.54s-.12-.58-.36-.51-1.21.56-2.93,1.49q-4.89,2.61-5.24.36-.18-1.23-.18-20.74V255.32q1-.66,2.31-1.44,7.11-4.09,10.35-2.95c2.17.77,3.57,3.54,4.23,8.29q.61,4.15,1.6,3.6a1.81,1.81,0,0,0,.8-1.7c0-.55-.12-2.36-.36-5.44q-.7-9.65-.89-13.24l-1.33.77L231,246.85c-.18.11-2.24,1.36-6.18,3.78s-9,5.38-15.07,8.9c-3.37,2-6.4,3.66-9.06,5.13s-5.1,2.84-7.29,4.11a49.91,49.91,0,0,1-4.45,2.36q-.27,6.83-1.33,17.81c-.12,1.23-.18,2-.18,2.26Z"/><path class="cls-4" d="M181.43,412a2.31,2.31,0,0,1,1.16-2l60-34.64a2.27,2.27,0,0,1,2.31,0,2.31,2.31,0,0,1,1.16,2v69.28a2.31,2.31,0,0,1-1.16,2l-60,34.64a2.32,2.32,0,0,1-3.47-2Zm60,33.31-55.37,32V413.34l55.37-32Z"/></g><g id="progress-window1"><path id="screen3" class="cls-1" d="M7.33,587.21C2.81,584.59,0,578.93,0,570.87V485.49c0-15.87,10.89-35,24.3-42.78l37-21c6.78-3.91,12.91-4.17,17.31-1.42l19.26,11.12-5,2.87a27.47,27.47,0,0,1,.79,6.82l2.13,86.41c0,15.86-10.89,35-24.3,42.77l-39.1,20a26.84,26.84,0,0,1-5.11,2.32v6.15l-20-11.52Z"/><path id="screen4" class="cls-5" d="M77.89,419.89l20,11.52-5,2.87a27.47,27.47,0,0,1,.79,6.82l0,4.07L28,483.09,3.39,468.88c4.24-10.89,12-21,20.91-26.17l37-21c6.43-3.71,12.27-4.13,16.62-1.82Z"/><path id="screen5" class="cls-2" d="M44.25,454.23C30.84,462,20,481.14,20,497v85.38c0,15.86,10.89,22.46,24.3,14.72l39.1-20c13.41-7.75,24.3-26.91,24.3-42.78L105.52,448c0-15.87-10.88-22.46-24.29-14.72Z"/></g><g id="progress-window2"><path id="screen6" class="cls-6" d="M303.33,275.72c-4.52-2.6-7.33-8.27-7.33-16.33V214.28c0-15.86,10.89-35,24.3-42.77l37-21c6.78-3.91,12.91-4.16,17.31-1.41l19.26,11.12-5,2.86a27.56,27.56,0,0,1,.79,6.83L391.79,216c0,15.86-10.88,35-24.29,42.77l-39.1,20a27.48,27.48,0,0,1-5.11,2.32v6.15l-20-11.53Z"/><path id="screen7" class="cls-7" d="M373.89,148.69l19.95,11.52-5,2.86a27.56,27.56,0,0,1,.79,6.83l0,4.06L324,211.88l-24.62-14.21c4.24-10.88,12-21,20.91-26.16l37-21C363.7,146.79,369.54,146.38,373.89,148.69Z"/><path id="screen8" class="cls-8" d="M340.25,183c-13.41,7.74-24.3,26.91-24.3,42.77v45.11c0,15.86,10.89,22.46,24.3,14.72l39.1-20c13.41-7.75,24.3-26.91,24.3-42.78l-2.13-46.13c0-15.86-10.88-22.46-24.29-14.71Z"/></g><path class="cls-9" d="M426.29,228.15l33.32,17.51L449.53,264l-32.47-18.56L411.87,279,368.45,208.4,448.4,199Z"/><path class="cls-10" d="M69.08,219.11l15.35,5.81-3.82,3.6A30.79,30.79,0,0,1,84,239.14c2.52,17.48-6.66,38.21-20.5,46.23a22.94,22.94,0,0,1-8,3l2.71,3.42L44.63,286.7c-6.44-2.56-11.28-9.3-12.69-19.16-2.53-17.54,6.64-38.25,20.48-46.29C58.34,217.81,64.16,217.25,69.08,219.11Z"/><path class="cls-11" d="M97.12,244.11c2.52,17.49-6.66,38.22-20.5,46.24s-27.1.37-29.59-17.1S53.67,235,67.51,227,94.61,226.6,97.12,244.11Z"/><path class="cls-12" d="M69.08,313.21,84.43,319l-3.82,3.6A30.73,30.73,0,0,1,84,333.23c2.52,17.48-6.66,38.22-20.5,46.24a23.35,23.35,0,0,1-8,3l2.71,3.41-13.63-5c-6.44-2.55-11.28-9.29-12.69-19.16-2.53-17.54,6.64-38.25,20.48-46.28C58.34,311.91,64.16,311.34,69.08,313.21Z"/><path class="cls-13" d="M97.12,338.21c2.52,17.48-6.66,38.21-20.5,46.23s-27.1.37-29.59-17.1,6.64-38.25,20.48-46.28S94.61,320.69,97.12,338.21Z"/><path class="cls-14" d="M69.08,124.52l15.35,5.81-3.82,3.6A30.8,30.8,0,0,1,84,144.54c2.52,17.48-6.66,38.22-20.5,46.24a23.35,23.35,0,0,1-8,3l2.71,3.41L44.63,192.1c-6.44-2.55-11.28-9.29-12.69-19.16-2.53-17.54,6.64-38.24,20.48-46.28C58.34,123.22,64.16,122.66,69.08,124.52Z"/><path class="cls-15" d="M97.12,149.52c2.52,17.48-6.66,38.21-20.5,46.24s-27.1.36-29.59-17.11,6.64-38.24,20.48-46.28S94.61,132,97.12,149.52Z"/><path class="cls-16" d="M226.57,668.13c16.52,9.54,41.56,10.58,55.86,2.31L368.15,621c14.31-8.26,12.51-22.72-4-32.25L361.2,587c-16.52-9.54-41.55-10.58-55.86-2.32l-85.72,49.49c-14.31,8.26-12.51,22.71,4,32.25Z"/><path class="cls-16" d="M29.79,671.75c8.93,5.16,22.46,5.72,30.2,1.26l46.33-26.75c7.74-4.47,6.77-12.28-2.16-17.44l-1.59-.91c-8.93-5.16-22.47-5.72-30.2-1.26L26,653.4c-7.74,4.47-6.77,12.28,2.16,17.44Z"/><path class="cls-16" d="M363.09,497.22c8.93,5.15,22.46,5.71,30.2,1.25l46.33-26.75c7.74-4.47,6.77-12.28-2.16-17.44l-1.59-.91c-8.93-5.16-22.47-5.72-30.2-1.25l-46.33,26.75c-7.74,4.46-6.77,12.27,2.16,17.43Z"/><path class="cls-16" d="M441.76,737.56c-32.44-18.73-85.12-18.73-117.57,0s-32.44,49.15,0,67.88,85.13,18.73,117.57,0S474.21,756.29,441.76,737.56Z"/><path class="cls-8" d="M437.35,407.33c-9.8,1.9-7.88,39.16-11.75,66.37,0,0-41.86,54.36-36.87,54.95C415.58,545,455.31,458.08,453,436.34c-1.13-10.64-1.17-17.78-8.19-25.58-1.33-1.48-3.33-2.21-5.14-3.05a6.2,6.2,0,0,0-2.31-.38Z"/><path class="cls-17" d="M396.07,728.56s-8.79,2-6.52,7.4,15.85,17.47,17.26,20.88,9.47,15.71,12.29,14.59,21,2.83,12.84-24.44C428,733.69,408.51,728,396.07,728.56Z"/><path class="cls-17" d="M386.75,786.6s-6.29,10.08-17.51,6.68-5.87-8.2-30-16S321.62,754.12,323.64,752s18.55,2.36,23.86,4,15.26,5,15.26,5l24,8.19V786.6Z"/><path class="cls-18" d="M431.49,543.25s-2.76,95.11-2.76,104.16,9.28,68.48,3.2,99.58c0,0-13.77,14.56-29.24-3,0,0-1.72-31-4.05-60.53-1.63-20.6-3.55-40.51-5.39-48.78-4.47-20.12-3-81.71-3-81.71Z"/><path class="cls-19" d="M400.78,554.66s-15.68,78.13-14.87,129.81c0,0,4.17,75.47,1.77,90.18,0,0-32.91,8.17-36.22-7.33,0,0,.86-89.8,0-108.57s-2.74-71.11,4.7-101.32S400.78,554.66,400.78,554.66Z"/><path class="cls-20" d="M389.29,774.53c5.09-43.73-1.78-90.19-1.78-90.19-2.78-85.17,34.63-71.31,33.16-121l-39.78,11s-14.64,38.47-12.4,96.16c1.74,44.65,2.45,88.56,2.69,106.18A83.69,83.69,0,0,0,389.29,774.53Z"/><path class="cls-20" d="M431.93,747c5.68-43.19-3.2-89.52-3.2-98.56,0-8.62,12.14-60.83,2.76-104.59l-17.66,13.59s-5.61,57.4,0,90.09c5.1,29.75,1.82,87.66,4.31,104.28,9.77,0,13.79-4.81,13.79-4.81Z"/><path class="cls-8" d="M440.08,407s15.1,7.92,5.93,33.68S434,535,435.87,541.67c0,0,2.13,21.4-46.94,33.16,0,0-37.65,3.36-34.9-23.75,5.81-57.42,12.32-68.26,11.51-78.45S359,442,384.71,428.77,423.84,405.66,440.08,407Z"/><path class="cls-21" d="M365.54,472.63c.22,2.75-1.72,7.09-3.16,13.47-5.14,22.72-6.84,42.61-8.5,67.73C353,568,368.7,574,380.11,574.78c2.55-17.42,2.77-44.93,6.64-74.88,1.48-11.48,13.23-57.15-11.05-38.65-17.05,13-10.88,2.33-10.16,11.38Z"/><path class="cls-22" d="M422.28,393.8s-1.89,13.53,2.6,22.09c4.07,7.78-28,14.17-28.61,7,0-.76,6.29-12.31-1.14-26.29C391.24,389.32,422.28,393.8,422.28,393.8Z"/><path class="cls-23" d="M424.72,416.37c-3.32-6.4-3.15-15.47-2.83-19.72l-23.54,11.09v.07c.86.22,16.5,4.53,19.69,15.91,4.84-1.88,8.15-4.52,6.68-7.35Z"/><path class="cls-22" d="M390.26,357.32s-5.51,12.9-4.69,24.14c.25,3.42-.92,4.41-1.91,6.91-2,5.06,1,3.65,1.46,7.49.29,2.3-.93,10.95,2.73,13.41,4.29,2.88,11.3,5.13,21.76,1.55,12.65-4.35,26.24-21.37,21.2-37S409.43,345,390.26,357.32Z"/><path class="cls-24" d="M429.9,390.59c-4.76-14.08-16.93-31.12-16.8-32,.08-.54-4-3.23-8.68-6.09a27.94,27.94,0,0,0-14.16,4.82,66.54,66.54,0,0,0-2.78,8.33c2.93,3.4,8.95,7.32,9.84,10.19,2,6.75.58,16.87-1.49,21.32s5.85,11.17,4.09,15.1l-.06.54a36.74,36.74,0,0,0,9.76-2C417.73,408,426.15,400.06,429.9,390.59Z"/><path d="M398.78,393.92c.06-.63.16-1.25.24-1.74.88-5.91,2.9-11.93.18-17.69-1.59-3.38-4-5.14-6.6-7.59-1-.9-1.54-2.13-2.69-2.84-1.52-.94-3.67-.93-5-2.15-.75-.7-.5-1.73-1.08-2.41-1.49-1.76-5.64-2.06-4.65-5.45a5.23,5.23,0,0,1,3.36-3.4c.35-.12,2.09-.11,2.26-.32.43-.5-.74-1.12-.9-1.77a3.32,3.32,0,0,1,1.27-3.63c2.72-2.18,6.72-1.19,9.24-3,2.9-2.1-.38-8.54,5.17-8.65,5.06-.09,8.6,5.64,13.06,7.53,4.27,1.82,9.69,0,13.67,2.66s3.73,8.69,6.08,12.51c1.91,3.08,5.34,4.45,7.83,6.93s5.65,10.58,5.23,14c-.48,3.95-3.15,7.78-4.85,11.29-.54,1.12-1.7,1.92-1.83,3.23-.27,3,2.88,5.07,1.92,8.28-1.34,4.45-5.93,5.95-10.1,7.64-3,1.75-9.13,5.35-12.71,4.62-1.48-.31-2.54-1.88-3.86-2.58-3-1.6-4.57-2.69-4.66-6.44-.1-4.36,8.56-8.86,3.31-13.11C408,386,405.57,396,402.41,397a3.07,3.07,0,0,1-3.4-1.69,12.75,12.75,0,0,0-.23-1.36Z"/><path class="cls-8" d="M398.14,418.72l-10.56,8.56s32.19,9.91,42-5.76c1.4-2.23-.08-9.78-5.69-11.29,0,0-1.35,12.88-25.71,8.49Z"/><path class="cls-22" d="M385,436.74c-8.75-4.79-29.46,20.94-49.8,39.46l-32.86-40.12c-.71-3.15-2.07-9.71-2-13.32.13-4.87-1.61-6.21-2.52-6.51s-1.12,2.78-1.91,4.65.45,6.73-1.6,5.13-9.49-13-13.23-12.34c-1.71.3-3.49-1.47-.69,9.33,2,7.7,8.34,15.16,11.81,18.8,10.23,29.73,32.93,56,32.93,56v0a14.12,14.12,0,0,0,6.91,3c19.84-4.05,39-23.26,52.76-43.29,9.85-14.33.19-20.76.19-20.76Z"/><path class="cls-8" d="M385,436.74c-13.24-7.64-30.57,19.58-50.91,38.09l-31.75-38.75c-.71-3.15-15.59,4.21-12.12,7.85,25.16,64.84,42.08,59.54,42.08,59.54,19.85-4,38.95-13.94,55.29-31.92C407.43,449.7,385,436.74,385,436.74Z"/></g></g></svg>