<?xml version="1.0" encoding="utf-8"?>
<!-- Generator: Adobe Illustrator 28.4.1, SVG Export Plug-In . SVG Version: 6.00 Build 0)  -->
<svg version="1.1" id="Calque_1" xmlns="http://www.w3.org/2000/svg" xmlns:xlink="http://www.w3.org/1999/xlink" x="0px" y="0px"
	 viewBox="0 0 690 646" enable-background="new 0 0 690 646" xml:space="preserve">
<g>
	<path fill="#6884A4" d="M523.5,220.3c21.9,12.6,43.8,25.1,65.6,37.7c18,10.4,36.4,20.3,54,31.3c26.9,16.8,41.6,41.4,43.5,73.3
		c-0.9,2.1-2.6,3.4-4.6,4.6c-24,13.7-47.8,27.7-71.8,41.3c-31.1,17.7-61.9,36-93.1,53.6c-5.1,2.9-10.2,5.7-15.1,8.9
		c-2.1,1.3-4.2,2.9-7,2c-2-1.1-1.9-3.1-2.2-5c-4.5-29.7-18.9-52.8-45.2-68.1c-36.8-21.4-73.7-42.5-110.4-63.8
		c-26-15.1-52-30-78.1-45c-1.7-1-4-1.6-4-4.2c7.4-9.9,14.8-19.9,22.3-29.8c0.5-0.6,1.1-1.1,2-1.2c8.8,3.6,16.7,8.9,24.9,13.6
		c16.8,9.7,33.7,19.4,50.5,29.1c3.1,1.8,5.8,1.9,8.9,0.1c12.1-7.1,24.4-14,36.5-21.2c3.8-2.3,3.6-4.1-0.3-6.4
		c-1-0.6-1.9-1.1-2.9-1.7c-3.2-1.9-6.1-4.1-9.6-5.4c-0.8-0.3-1.5-0.7-2.2-1.3c-1.3-1.3-3.1-2-4.7-2.8c-1.7-1.1-3.4-2.2-5.3-3.1
		c-0.6-0.3-1.1-0.6-1.6-0.9c-3.1-2.1-6.6-3.6-9.8-5.7c-0.6-0.3-1.1-0.6-1.7-0.9c-4.9-2.8-9.6-5.8-14.6-8.4c-1.7-0.9-3.4-1.7-5-2.8
		c-2.2-1.6-4.6-2.8-7-4.1c-0.9-0.5-1.7-1.2-2.6-1.7c-1.8-0.9-3.5-2.1-5.2-3.1c-1.1-0.6-2.1-1.1-3.2-1.7c-1.7-1.1-3.5-2.2-5.3-3.1
		c-0.9-0.6-1.7-1.2-2.6-1.7c-2.4-1.4-5.3-2.2-7-4.7c1-2.9,3.6-4.9,4.1-8.3c0.9-5.9-0.4-9.2-5.7-11.7c-3.3-1.6-3.8-3.6-2.1-6.8
		c2.1-3.8,5.2-7,7-11c-2-2.1-3,0.1-3.9,1.1c-5.3,5.5-11.3,10.4-16.4,16.1c-1.1,1.2-2.2,2.3-3.8,2.6c-2,0.1-3.6-0.9-5.1-1.9
		c-3.1-2.2-6.2-2.6-9.6-1c-1.4,0.4-3,0.4-4.4,0.9c-0.4,0.2-0.8,0.3-1.2,0.5c-1.2,0.5-2.3,1.1-3.3,1.8c-7.5,4.2-14.9,8.9-22.5,13
		c-3.9,2.2-7.5,4.6-11.5,6.7c-1.7,0.9-3.5,1.7-3.6,4c0.3,2.1,2,2.7,3.5,3.6c6.1,3.6,12.4,7,18.5,10.6c1.7,1,3.7,1.8,4.5,3.9
		c-2.7,6.3-6.8,11.4-13.3,14.1c-10.9-0.7-21.5-3.3-32.3-4.7c-13.9-1.8-27-6.4-39.6-12.5c-5.1-2.5-10.6-4-15.7-6.6
		c-5.1-4.7-7.8-10.8-9.8-17.3c-1.1-3-1.8-6-0.2-9.1c1.5-1,2.7,0.2,3.9,0.8c1.7,0.8,3.5,1.4,5.4,1.5c7.2,0.1,9.2-2.3,7.1-9.2
		c-1.2-3.9-1.3-7.7-0.4-11.6c0.7-2.9,1.3-5.8,0.9-8.9c-0.7-4.2-1.6-8.3-2.7-12.4c-0.6-2.3-0.9-4.6-0.3-6.9
		c1.5-5.6,0.2-10.8-2.5-15.8c0.5-7.2-2.7-11.8-10.7-14.3c-7.2-2.3-14.7-3.7-22.3-1.8c-22.2,2.2-29.9,16.1-28.8,36.6
		c0.3,5.3,1.3,10.7,3.8,15.5c1.1,2.7,3.3,4.6,5.4,6.5c4.3,3.9,6.7,8.7,7.9,14.2c-0.1,1.3-0.6,2.3-1.7,3.1
		c-7.6-2.8-14.2-7.5-21.1-11.4c-15.1-8.5-29.9-17.7-45.3-25.7c-5.2-2.7-10.9-4.3-16.9-3.3c-1.1,0.2-2.7,0.6-2.8-1.4
		c28.6-16.5,57.1-33.1,85.7-49.6c32.7-18.9,65.5-37.6,98-56.8c11.6-6.9,22.3-5.2,33.1,1c16.2,9.2,32.4,18.5,48.5,27.7
		c3.1,1,2.5,3.7,2.5,5.9c0.1,13.3,0,26.7,0,40c0,2.2-0.1,4.4,0.2,6.6c0.3,0.7,0.5,1.5,0.6,2.3c0.7,3.3,3.2,4.9,5.8,6.5
		c18.8,10.9,37.6,21.8,56.5,32.6c1.9,1.1,4,1.9,5.2,3.9c0.3,2.5-1.6,3-3.3,3.7c-2.1,0.9-4.2,1.8-6.4,2.5c-6.4,2.6-13,4.3-19,7.9
		c-1.9,3.4-1,6.1,2.3,7.9c18.6,10.5,36.9,21.5,55.5,31.9c4.4,2.5,7.3,2,11.2-1.4c3.5-3,7-5.9,10.6-8.8c3.1-2.6,5.8-5.7,9.4-7.7
		c0.9-0.3,1.8-0.3,2.7-0.1c13,6.4,25.2,14.4,37.9,21.4c3.2,1.8,6.4,3.5,9.4,5.4c2.5,1.6,5,1.8,7.5,0c2.7-1.6,3.7-4.1,3.7-7.2
		c0-2.8-0.6-5.7,0.8-8.4c1.8-1.6,3.2-0.2,4.7,0.5c2.3,1.1,4.4,2.6,6.8,3.2c3.9,1,7.5,0.5,11.3-1.7
		C510.5,227.3,516.4,222.6,523.5,220.3z"/>
	<path fill="#5A7498" d="M495.1,472.6c5.5-0.9,9.6-4.7,14.2-7.3c22.9-13,45.5-26.4,68.3-39.6c18.1-10.5,36.4-20.8,54.5-31.2
		c17.1-9.8,34.2-19.6,51.2-29.5c1.2-0.7,2.2-1.7,3.4-2.6c0.1,1.4,0.2,2.8,0.2,4.3c0,54.1,0,108.1,0.1,162.2c0,3.4-1,5.3-4,7
		c-61.7,35.5-123.4,71.2-185.1,106.8c-0.5,0.3-1.1,0.5-1.7,0.8c-3.2-1.4-1.6-4-1.6-6.2c0.3-5.5,0.1-11.1,0.2-16.6
		c0-45.6,0-91.3,0-136.9c0-2.4,0.1-4.7-0.2-7.1c-0.4-1.2-0.5-2.3,0-3.5C494.7,473.1,494.9,472.9,495.1,472.6z"/>
	<path fill="#6884A4" d="M12.9,381.7c-1.7-5.1,1.1-10.2,0-15.3c-1.1-3.6-0.6-7.2-0.3-10.8c2.7-28.9,4.4-58,7.2-86.9
		c1.2-12.7,1.3-25.6,3.1-38.2c1.2-8,2.1-15.9,1.9-24c0-1.7,0-3.5,1.1-5c3-0.5,2.3,1.9,2.4,3.3c0.3,3.9,0.3,7.9,0.1,11.8
		c-0.2,3.5,1.2,5.5,4.2,7.1c17.5,9.4,34.4,19.8,51.6,29.8c4.5,2.2,8.7,4.8,12.9,7.4c2.2,1.3,4.9,2.5,4.4,5.9c-1.5,3-1.5,6-1,9.3
		c4.1,28.5,8.1,57,12.3,85.4c3.7,25.7,7.2,51.3,11.1,77c0.2,1.6,0.4,3.1-0.1,4.7c-1.3,2.7-2.9,0.8-4.3,0.1c-6-2.9-11.4-6.8-17.2-10
		C83,422.3,63.9,411,44.6,399.9C34,393.8,23.6,387.6,12.9,381.7z"/>
	<path fill="#BA027D" d="M153.7,231.5c9,3.7,18.1,7.4,27,11.3c13.5,5.8,27.9,7.3,42.2,9.7c6.2,1,12.4,1.9,18.6,2.8
		c4.3-0.6,8.7,0.3,13.1-0.7c4.8-1.1,8.7-3.4,11.9-7c5.2-5.9,9.5-12.5,15.1-18c2.2-2.1,4.1-4.9,7.7-5c2.5,1.2,3.1,3.6,3.7,6
		c0.1,0.7,0.1,1.4,0.2,2.2c0,1.4,0,2.8-0.2,4.2c-0.2,1.1-0.6,2.1-1.1,3.1c-0.6,1.1-1.2,2.2-1.7,3.3c-0.2,0.4-0.4,0.7-0.6,1.1
		c-0.6,0.8-1.3,1.6-1.9,2.4c-1.2,1.8-2.5,3.4-3.7,5.2c-1.5,1.5-2.2,3.7-4.4,4.5c-5.9,7.9-11.8,15.9-17.8,23.8
		c-1.8,2.4-3.9,4.5-5.8,6.7c-3.8,5.7-9.7,7.1-15.8,7.7c-7.1,0.7-14-0.3-20.6-3.1c-12.6-3.5-20.6,0.4-25.5,12.6
		c-4.2,10.4-4.5,21.5-5.3,32.4c-0.3,4.5-1.7,9-0.4,13.6c0.8,1.9,0.8,4,0.8,6c0,8.8,0,17.6,0,26.5c0,3.7-0.7,7.2-1.8,10.7
		c-4.9,12-14.4,17.5-26.7,19.1c-9.7,2.1-19.3,0.8-28.9-0.4c-3.6-0.9-4.3-3.8-4.8-6.9c-2.5-16.5-5.3-33-7.9-49.6
		c-4.5-28.1-9-56.1-13.5-84.2c-0.3-2.2-0.7-4.4-2.3-6.1c-1.4-1.4-3.5-2.2-4.1-4.3c1.4-2.6,3.6-1.2,5.4-0.9
		c8.6,1.5,16.9,4.1,24.7,7.8c8.6,4.1,18.2,6.7,24.2,14.6c2.1-0.4,1.7-1.8,2-2.7c2.3-6.5,3.8-13.3,7.6-19.3c1.4-2.2,1.8-4.7,2.1-7.2
		c0.4-3.5-1-5.9-4.4-7.5c-6.6-3.1-13.5-5.4-20.1-8.2c-1.5-0.6-4.1-0.6-3-3.5C142.9,232.2,148.2,231.2,153.7,231.5z"/>
	<path fill="#28425B" d="M185.9,394c2.7-9.1,1.5-18.4,1.6-27.6c0.1-5.4-0.7-10.9,0.7-16.3c4.3,3.5,5.7,8.2,5.9,13.5
		c-0.9,3.2-0.1,6.3,0.5,9.4c17.6-4.2,35.3-8.4,52.9-12.7c24.2-6,42.6,7.1,45.5,31.9c3.7,31.3,7.9,62.6,11.8,93.9
		c0.2,1.6,0.2,3.1,0.3,4.7c-0.9,2.2-0.5,4.7,0.5,6.3c3.9,6.3,2.1,11.8-1.5,17.4c-4.5,5.3-10.6,5.8-16.9,5.6
		c-0.7-0.4-1.2-0.8-1.2-1.7c1.4-1.4,1.5-2.9,0.9-4.7c-7.7-27.6-15.6-55.2-23.5-82.7c-1.1-3.8-1.9-7.6-3.1-11.4
		c-2.3-6.9-4.6-8-11.2-4.8c-3,1.5-6,2.6-9.3,2.9c-3.5,1.6-7,3.3-10.4,4.9c-1.3,2.4-3.6,3.5-5.9,4.5c-12.8,6-25.2,12.9-38.1,18.7
		c-13.6,6.1-27.8,10.1-43,7.8c-4.2-4.5-7.4-9.6-8.5-15.8c0.6-2.1,2.6-2,4.2-2.5c6.5-2.2,12.3-5.4,15.8-11.7c1.8-3.2,2.4-6-1.5-8
		c0.9-2,2.8-1.6,4.4-1.8c11.9,0.5,20.8-4.6,27.3-14.4C185,397.6,186.1,396,185.9,394z"/>
	<path fill="#7E9DB6" d="M219.5,291.4c2.8,0.3,5.6,0.4,8.4,1.1c10.3,2.4,19.6,0.6,28.1-5.7c4.2,4.9,10.4,6.8,15.7,10
		c19.1,11.3,38.4,22.3,57.7,33.4c20.5,11.8,41,23.5,61.5,35.3c16.4,9.5,32.6,19.2,49,28.5c11,6.2,22.1,12.3,30.5,22.1
		c13.1,15.3,22.1,32.5,23.8,52.9c0.1,1.2,0.6,2.4,0.9,3.6c0,0,0,0,0,0c-1.2,2.8,0.1,5.6,0.1,8.4c-0.1,50.7-0.1,101.4-0.1,152
		c0,3.7,0.1,7.5-0.9,11.2c-7.1-3.8-14.3-7.5-20.8-12.2c0.6-1.2,0.4-2.5,0.4-3.7c0-55.2,0-110.5,0-165.7c0-1,0.7-2.2-0.6-3
		c-1.7-8.4-4.2-16.4-9.7-23.3c-3.5-4.4-7.5-8.1-12.3-10.9c-75.7-43.7-151.5-87.4-227.2-131.2C222.4,293.4,221,292.4,219.5,291.4z"/>
	<path fill="#6884A4" d="M164.8,494.5c15.6,2,29.7,7.5,41.3,18.3c6.5,6.1,10.1,13.7,9.8,22.8c-0.1,4.7,0.9,9.5-0.7,14.1
		c-2.5-2.7-0.6-5.6-0.5-8.4c-1.2,8.3-6.8,13.6-13.1,18.2c-13.1,9.7-28.2,14.3-44.1,15.7c-15,1.2-30,0.9-44.7-3.6
		c-11.3-3.5-21.9-8.1-30.4-16.6c-4.5-4.5-8-9.3-8.6-15.8c-1.6-12.6,3.7-22.1,13.3-29.6c11.9-9.3,25.9-13.5,40.5-15.9
		c1.2,1,1.5,2.4,1.5,3.8c0,8,0.5,16.1-0.3,24.1c-0.6,2.5-2.9,3.6-4.5,5.2c-5,4.8-4.6,10.3,0.8,14.5c9.4,7.1,27.4,7.7,37.2,1.3
		c7.3-4.7,7.8-11.4,1.4-17.1c-0.9-0.8-2-1.5-2.5-2.8c-0.2-0.8-0.3-1.6-0.1-2.4c0.7-6.8,0.1-13.6,0.3-20.3
		C161.7,497.5,161.8,495.1,164.8,494.5z"/>
	<path fill="#7E9DB6" d="M27.2,201.2c-2,4.9-1.1,10-0.7,14.9c0.4,5.4-1.9,10.1-2.2,15.3c-0.9,16-2.2,31.9-3.7,47.9
		c-1.5,16.1-2.6,32.2-3.9,48.3c-1,11.9-2.3,23.8-2.8,35.7c0,1.1-0.6,2.1-0.9,3.1c-2.6-1.8-6.6-1.8-7.6-5.8c0.9-0.9,0.2-2.2,0.9-3.2
		c0.3-0.4,0.5-0.9,0.6-1.4C7,304,6.9,251.9,6.9,199.8c0-2.8-0.1-5.7,0.3-8.5c-0.4-0.1-0.7-0.3-1.1-0.5c-0.5-0.9,0.1-2-0.6-2.9
		c0.3-12.3,5.3-21.5,17.1-26.5c3.5,1,6.9-0.5,10.5,0.2c9,1.8,16.4,6.9,24.1,11.3c16.3,9.3,32.6,18.8,48.9,28.2
		c0.9,0.5,1.8,1.2,2.7,1.8c1.7,1.9,0.8,3.8-0.1,5.6c-2.9,4.4-5.3,9.4-10.6,11.5c-1.7,0.3-3.4,0.3-5.1-0.2
		c-14.3-8.6-29.1-16.6-43.4-25.2c-2.8-1.7-5.6-3.5-9.1-3.8c-6.2-0.5-9.1,1.1-11.5,6.8C28.5,199.1,28.3,200.4,27.2,201.2z"/>
	<path fill="#5A7498" d="M12.9,381.7c0.5-0.5-0.3-2.5,0.9-1.7c15.2,10.6,31.8,18.9,47.8,28.2c18.2,10.6,36.5,21.2,54.8,31.8
		c2.3,1.3,4.5,2.8,6.7,4.2c1.9,1,2.8,3,3.7,4.8c6.3,12.3,12.3,24.7,18.5,37.1c0.8,1.7,1.9,3.3,1,5.4c-0.3,0.4-0.7,0.6-1.2,0.7
		c-6.3-2.5-12.2-5.4-17.2-10.2c-17.7-10.3-35.4-20.6-53.1-30.9c-11.7-6.8-23.5-13.6-35.2-20.3c-1.8-1-3.6-2-4.6-4
		C27.7,411.7,20.3,396.7,12.9,381.7z"/>
	<path fill="#496089" d="M145.9,491.6c0.2-2.2-1-3.9-1.9-5.7c-6.9-13.9-13.9-27.8-20.9-41.7c-0.7-10.5-2.8-20.8-4.2-31.2
		c-2-14.9-4.1-29.8-6.2-44.7c-2-13.8-4-27.6-6-41.4c-2.1-14.4-4.2-28.8-6.3-43.3c-0.5-3.3-0.5-6.6-1.4-9.8c-0.9-3.3,0-5.8,2.3-8.1
		c0.5-0.8,0.8-1.8,2-2c3.3,0.5,3,3.4,3.4,5.5c3,18.5,6,37.1,8.9,55.6c4.4,27.3,8.8,54.5,13.1,81.8c0.3,2.1,0.9,3.6,3,4.1
		c-0.2,1.3-0.7,2.6-0.6,3.9c1.2,7.6,3.1,15.2,3.3,22.9c1.6,5.6,5.3,10,7.6,15.2c3.4,1.7,4.6,5.1,6.2,8.1c2,3.6,4,7.2,5.9,10.8
		c1.4,2.7,3.1,3.2,5.7,1.6c13.5-7.9,26.9-15.9,40.4-23.9c10.7-6.4,21.5-12.7,32.3-18.9c1.7-1,3.4-1.6,5.4-1.5c3.8,0.9,4.4,3.7,3.8,7
		c-0.9,5.3-4.2,8.6-8.7,11.1c-23.7,13.3-47.3,26.7-71,40.1c-2.7,3.6-6.7,5.2-10.5,6.9C149.2,495.1,146.8,494.6,145.9,491.6z"/>
	<path fill="#DADADE" d="M481.9,228.7c-0.1,3.1-0.3,6.3-0.1,9.4c0.2,3.8-1.1,6.3-4.9,7.5c-3.9-3.3-1.7-7.7-2-11.7
		c0.5-2.2,0.7-4.3,0-6.5c-0.4-27.8-0.1-55.5-0.2-83.3c0-9.5,0.2-18.9-0.1-28.4c-0.1-0.5-0.3-1-0.5-1.5c-1.1-2.8-3.2-4.7-5.7-6.2
		c-12-7.3-24.3-14-36.5-21.1c-14.6-8.5-29.3-16.9-43.9-25.3c-13-7.5-25.9-15.1-39-22.5c-12.9-7.2-25.7-14.9-38.5-22.3
		c-5.3-3.1-11-5.5-15.9-9.3c-1-0.8-2.9-0.9-2.6-2.9c4-2.8,7.8-2.1,11.9,0.3c30.3,17.6,60.6,35,90.9,52.6
		c22.8,13.2,45.5,26.5,68.2,39.7c4.1,2.4,8.2,4.6,12.4,6.9c4.6,2.6,6.5,6.4,6.4,11.7c-0.1,24.8-0.1,49.6,0,74.4c0,2-0.3,4.1,1,6
		c1,9.8,0.4,19.6,0.3,29.3C483.1,226.8,482.7,227.9,481.9,228.7z"/>
	<path fill="#49608A" d="M73.8,539.1c7,18.2,22.1,26.3,39.5,31.2c22.4,6.2,44.9,5.9,67-1.3c11.9-3.9,22.9-9.7,30.6-20.4
		c1.7-2.3,2.4-5,4.3-7.5c0,2.9,0,5.8,0,8.6c-1,7.9-5.6,13.7-11.3,18.5c-11.4,9.7-25,14.4-39.6,16.7c-21.6,3.4-42.8,1.8-63.1-6.9
		c-4.2-1.8-8.2-4.1-11.9-6.7C78.3,563.5,72,553.3,73.8,539.1z"/>
	<path fill="#315271" d="M239.8,417.5c3.8-1.7,7.6-3.5,11.5-5.1c5-2.1,7.8-0.9,9.5,4.6c3.2,10.7,6.2,21.5,9.2,32.2
		c3.2,11.3,6.5,22.7,9.7,34c3.1,10.7,6.1,21.5,9.3,32.1c0.9,3.1-0.6,3.1-2.8,3c-3.8,1.4-6.2-1.3-9-3c-1.6-1-2.4-2.8-4.1-3.7
		c-4.7-13.5-8.1-27.5-12-41.3c-4.3-15.4-8.6-30.7-12.8-46.1C247.2,419.5,244.9,416.9,239.8,417.5z"/>
	<path fill="#3E5580" d="M237.9,429c-19.9,10.8-39.1,22.7-58.5,34.2c-6.6,3.9-13.4,7.6-19.9,11.7c-3.2,2-4.5,1-6.1-2.1
		c-3.6-6.8-7.6-13.4-11.4-20.1c18.3,1.3,35-3.9,51-12.2c12-6.2,24.2-12.1,36.3-18.1C230.7,426.5,235.6,426.1,237.9,429z"/>
	<path fill="#233950" d="M303.4,513.5c3.2-5.1,4.8-10.2,1.4-16c-1.1-1.9-1.1-4.6,0.4-6.7c0.1,0.6,0.4,1.2,0.4,1.8
		c0,4.2,1.9,4.5,5.5,3.5c4.9-1.4,9.9-2.6,15.1-2.5c2.8,0.7,5.7,0.7,8.5,0c9.3,0.8,12.6,6.2,8.6,14.3c-10.8,9-24.3,12.8-36.8,18.5
		c-4.9,2.2-9.7,4.5-14.7,6.4c-0.8,0.3-1.3,0.8-1.5,1.6c-0.9,0.8-1.9,0.9-3.1,0.8c-2.8-0.2-5.7,0-8.5-0.1c-3.2-0.6-6-1.8-6.7-5.5
		c-0.5-0.9-0.7-2,0-2.6c1.1-0.9,1.7,0.3,2.1,1c2.1,3.1,5.4,3.7,8.7,4c1.9,0.2,3.5-0.3,4-2.5c0.4-2.7-0.4-5.5,0.7-8.1
		c1.9-2.3,4.7-1.1,7.1-1.8C298.2,518.6,302.6,518.5,303.4,513.5z"/>
	<path fill="#EBECED" d="M476.1,228.8c1.8,1.6,0.7,3.2,0,4.7c-0.8,1.2-1.7,2-3.2,0.9c-1.4-2.3-0.9-4.9-0.9-7.4
		c0-35.1-0.1-70.2,0.1-105.3c0-5.4-1.7-8.8-6.4-11.4c-23.2-13.2-46.3-26.6-69.5-39.9c-20.5-11.8-41-23.8-61.5-35.7
		c-13.4-7.8-26.6-15.9-40.4-22.7c-1.3,0.1-1.4,1.3-1.7,2.2c-0.4,1.2-0.5,2.4-0.9,3.6c-0.4,22.3-0.1,44.5-0.2,66.8
		c0,15.9,0,31.7,0,47.6c0.1,0.6,0.1,1.2,0,1.8c-0.2,1.5-0.1,3.1-1.6,4.1c-1.2-1.7-0.7-3.7-0.7-5.5c0-14.5,0-29,0-43.5
		c0-1.8,0.5-3.8-1.2-5.3c1.9-1.4,1.2-3.5,1.2-5.3c0-22.4,0-44.9,0-67.3c0-2.6,0-5.1,2.9-6.4c17,9.8,34,19.5,51,29.3
		c24.1,14,48.1,28,72.1,42c17.8,10.3,35.7,20.5,53.5,30.7c2.7,1.5,4.8,3.6,6.5,6.1c0.1,38.1-0.1,76.2,0.1,114.3
		C475.4,227.9,475.7,228.3,476.1,228.8z"/>
	<path fill="#ECECEE" d="M128,481.9c5.8,3,11.5,6.1,16.9,9.8c1.3,1.4,1.5,3.1,1.5,4.9c0.1,14,0.1,28.1,0,42.1c0,1.3-0.2,2.5-0.7,3.7
		c-5.8,3.9-16.8-0.4-18.6-7.5c-1-3.9-1.4-8.1,0.8-11.9c0-9.8-0.1-19.6-0.1-29.3C127.8,489.7,127.9,485.8,128,481.9z"/>
	<path fill="#5A7498" d="M481.9,228.7c-0.1-9.8-0.1-19.7-0.2-29.5c0-1-0.3-2.2,1-2.9c13.6,8,27.2,15.9,40.8,23.9
		c-5.5,4.2-11.9,6.9-17.5,10.9c-5,3.6-9.6,4.3-14.9,2.2C487.9,232.1,485,230.3,481.9,228.7z"/>
	<path fill="#DBDADF" d="M144.9,542.9c0-17.1,0-34.2,0-51.2c0.3,0,0.6,0,1-0.1c2.2,2.3,4.6,2.2,7.2,0.6c2.9-1.8,6-3.4,9-5
		c0,2.1,0,4.2,0,6.3c-0.1,0.5-0.2,1.1-0.4,1.6c-0.4,13.4-0.4,26.7-0.2,40.1C160,541.7,151.6,545.7,144.9,542.9z"/>
	<path fill="#315270" d="M288.2,530.6c-0.1,2.2-1.6,2.9-3.5,2.8c-4.6-0.3-9.5,0.1-11.8-5.4c-0.4-0.9-0.6,0-0.7,0.3
		c-0.1,0.4-0.1,0.9-0.2,1.4c-1.9-5.5-0.8-10.9,0.9-16.2c0.9-0.8,1.7-0.5,2.5,0.3c3.4,3.2,7.6,4.9,11.7,6.9c0.4,0.4,0.5,0.8,0.6,1.3
		C288,524.8,287.2,527.7,288.2,530.6z"/>
	<path fill="#7893AF" d="M473.1,459.6c0.1-0.6,0.2-1.2,0.3-1.9c1.3,0.1,0.8,1.1,0.8,1.6c0,56.2,0,112.5,0,168.7c0,1.4,0.4,2.9-0.8,4
		c-0.1-0.8-0.3-1.6-0.3-2.3C473.1,573,473.1,516.3,473.1,459.6z"/>
	<path fill="#6884A4" d="M494.2,644.3c0-55.7,0-111.4,0-167.2c0-1.5-0.5-3.2,0.9-4.4c0,1,0,1.9,0,2.9c0.8,1.3,0.4,2.8,0.4,4.2
		c0,51.6,0,103.2,0,154.8c0,1.4,0.3,2.8-0.4,4.2c0.4,1.6,0.7,3.2,1.1,4.9C495.7,644.2,495,644.5,494.2,644.3z"/>
	<path fill="#7695AE" d="M5.5,188c1,0.7,0.8,1.8,0.9,2.8c1.3,1.7,0.9,3.6,0.9,5.5c0,52,0,104,0,156c0,1.9,0.4,3.8-0.9,5.5
		c0,1,0.2,2.2-1,2.9c-0.1-13.3-0.1-26.6-0.2-39.8c0-42.1,0-84.1,0-126.2C5.3,192.4,5.4,190.2,5.5,188z"/>
	<path fill="#1A2B3B" d="M290.3,534.5c-2-1.8-0.3-2.3,1-2.9c13.8-6,27.6-12.1,41.5-17.9c3-1.3,5.2-3.4,7.7-5.2
		c0.8-0.6,1.5-1.9,2.7-0.6c-0.9,2.7-3,4.5-5.4,5.7C322.4,521.4,306.6,528.6,290.3,534.5z"/>
	<path fill="#92A5B9" d="M161.2,493.5c0.3,0,0.6,0,0.8-0.1c0.7,0.3,1.4,0.6,2.1,0.8c-2,1.2-1.6,3.2-1.7,5.1
		c-0.2,7.2,0.5,14.5-0.4,21.7c0,0.6,0,1.3-0.1,1.9c1.8,2.7,1.7,5.7,1.3,8.6c-0.2,1.3-0.3,3-2.4,2.7c-0.6-13.2-0.1-26.3-0.2-39.5
		C160.6,494.2,161,493.9,161.2,493.5z"/>
	<path fill="#253E57" d="M287.3,521c-4.1-0.2-7.1-2.5-10.2-4.8c-1.3-1-2.2-2.6-4.1-2.8c0.1-0.6,0.2-1.3,0.3-1.9
		c0.7,0,0.9-1.9,1.6-0.6c2.6,4.4,6.8,6.2,11.5,7.3c0.3,0.3,0.7,0.6,1,0.9C287.8,519.8,287.8,520.4,287.3,521z"/>
	<path fill="#5F7FA0" d="M162,521c0-7.6,0-15.1-0.1-22.7c0-1.7-0.4-3.6,2.1-4c0.3,0,0.5,0.1,0.7,0.2c-1.6,1.3-2,3-1.9,5
		c0.1,5.7,0.1,11.4,0,17.1C162.9,518.1,163.5,519.7,162,521z"/>
	<path fill="#182D42" d="M278.7,535.2c2.8-1.3,5.7-1.4,8.5,0.1C284.4,536.4,281.6,536.2,278.7,535.2z"/>
	<path fill="#1C354A" d="M194.7,372.9c-2.4-3-1.6-6.2-0.5-9.4C194.3,366.7,194.5,369.8,194.7,372.9z"/>
	<path fill="#192C47" d="M334.7,493.6c-2.8,1.4-5.7,1.4-8.5,0C329,493.1,331.9,493,334.7,493.6z"/>
	<path fill="#5A7498" d="M406.6,349.2c-2.9,0.9-5.2-1.1-7.6-2.5c-10-5.7-19.9-11.4-29.8-17.3c-4.3-2.6-4.2-4.7,0-7.2
		c16.7-9.7,33.5-19.4,50.3-29c0.8-0.5,1.8-0.8,2.5-1.4c6.5-6,13.2-4.4,20-0.4c9.4,5.5,18.8,11,28.2,16.4c1.5,0.9,3.3,1.4,3.2,3.7
		c-0.1,2-1.6,2.9-3.1,3.8c-18.9,10.8-37.7,21.6-56.5,32.5C411.4,349,409.2,349.5,406.6,349.2z"/>
	<path fill="#ECECEE" d="M473.2,234.4c1-0.3,1.9-0.6,2.9-0.9c0.4,4-0.9,8.2,0.8,12.1c-2.1,2-4.2,2.2-6.8,0.7
		c-16-9.4-32.1-18.7-48.1-28c-6-1.1-10.9-4.8-16-7.8c-14-8.2-28.2-16.1-42.2-24.3c-2.2-1.3-4.2-2.7-5.6-4.8
		c-21.1-12.1-42.1-24.2-63.2-36.3c-2.2-1.3-4-3-4.7-5.7c0.4-1.9,0.6-3.8-0.2-5.6c0-0.3,0-0.6,0-1c0.7-0.8,0.9-2,2-2.4
		c0.4-0.1,0.9-0.1,1.3-0.1c1.9,0.6,3.2,2.2,5,3.1c19.4,10.9,38.7,22,57.9,33.3c25.6,15,51.4,29.7,77.1,44.7
		C446.6,219.2,459.9,226.9,473.2,234.4z"/>
	<path fill="#315271" d="M96.4,180.4c-12.7-20.6-1.8-48.3,21.1-53.6c1.5-0.3,3.1-0.3,4.7-0.5c4.9,0,9.6,0.6,14.1,2.6
		c6.8,3,8,7.3,2.6,12.2c-9.2,8.1-11.2,18.6-11.6,29.9c-0.1,3-0.8,5.9-1.5,8.8c-2.7,10.3-13.7,14-22.3,7.6
		C100.8,185.3,98.5,183,96.4,180.4z"/>
	<path fill="#28425B" d="M96.4,180.4c3.6,2.2,5.8,6.2,10.1,7.5c11.7,3.7,18.3-1.2,19.3-14.7c0.4-4.7,1-9.3,1.2-14.1
		c0.2-7.2,4.9-12.3,9.5-17.4c1.1-1.2,2.3-2.2,3.3-3.4c2-2.5,2.1-4.7-0.9-6.7c-4.2-2.7-9-3.6-13.7-4.5c-1.1-0.2-2.2,0.1-3-1
		c10.4-1.8,20.3-0.7,29.2,5.3c5.5,3.7,6.6,7.5,4.1,11.5c-0.2,1.8-1.8,3-2.2,4.8c0,3.6,0.6,7.1,0.4,10.7c-0.1,2.6-0.5,5.2-2.2,7.1
		c-4.7,5.2-3.4,10.6-1.1,16.2c1.1,2.6,2.4,5.1,4.5,7.1c0.3,0.3,0.5,0.7,0.7,1.2c0,1-0.6,1.7-1.2,2.4c-2.8,3.7-7.7,4.4-10.9,7.5
		c-0.6-0.8-0.7-1.8-0.8-2.7c0.7-5.5,1.3-11,0.7-16.5c-0.3-2.2,0-5.3-3.1-5.7c-3-0.3-4.1,2.5-5,4.8c-1.2,3-1.4,6.1-1.7,9.3
		c-0.6,5.4-2,10.2-7.5,12.8c-3.8,1.5-7.7,3-11.9,1.5c-1.8-0.6-3.6-1.2-4.3-3.3c-2.3-6.7-6.3-12.1-11.6-16.7
		C97.3,182.8,96.6,181.7,96.4,180.4z"/>
	<path fill="#ECECEE" d="M329.1,194.8c6.2-3.5,13-5.7,19.7-8c2.2-0.3,3.9,0.7,5.7,1.8c16,9.5,32.1,18.8,48.3,28
		c8.2,4.7,8.2,5.4,1.3,11.9c-1.3,1.2-2.8,2.1-4.1,3.2c-4.1,3.7-8.5,3.8-13.1,1.1c-14.2-8.5-28.7-16.5-43-24.9
		c-4.1-2.4-8.1-4.9-12.3-7.1C329.3,199.5,327.6,197.9,329.1,194.8z"/>
	<path fill="#DBDADF" d="M329.1,194.8c-0.4,2.2,0.6,3.6,2.4,4.6c16,9.1,31.9,18.3,47.8,27.5c1.9,1.1,3.6,2.5,5.5,3.6
		c10.6,5.7,10.9,3.4,19-3.8c1.5-1.3,5.1-2.4,4.2-4.5c-0.9-2.1-3.9-3.4-6.1-4.7c-15.9-9.3-31.9-18.4-47.8-27.6c-1.8-1-3.6-2-5.4-3
		c2.4-1,4.9-2,7.3-3.1c1-0.5,2.7-0.5,2.2-2.4c21.3,12.3,42.5,24.6,63.8,36.9c-0.9,0-1.8,0-2.7,0.1c-5,0.1-7.6,2.8-8.7,7.5
		c-4.1,3.6-8.2,7.3-12.4,10.8c-2.8,2.4-6.2,2.4-9.3,0.6c-19.4-11.1-38.8-22.3-58.2-33.5C326.9,201.6,327.6,198.2,329.1,194.8z"/>
	<path fill="#E6E6E8" d="M287.3,245.9c0.3-0.9,0.9-1.6,1.8-2.1c1.2,0.2,2.4,0.8,3.4,1.5c3,2.2,5.8,1.8,8.6-1
		c-2.6-1.9-4.8-3.8-8.1-1.4c-0.9,0.7-2.3,1.1-3.5,0.1c0.5-1,1-2,1.6-3c1-0.7,2-1.4,1-2.8c0.1-1.6,0.2-3.1,0.2-4.7
		c1-0.3,2.1-0.3,3.2-0.5c3-0.5,1.5-2,0.9-3.4c0.4-1.9,1.8-2.4,3.5-2.4c0.4,0.1,0.8,0.4,1.1,0.7c3,4.2,4.5,4.7,8.9,3
		c1-0.4,2-0.9,3.1-0.8c0.7,0.2,1.1,0.6,1.2,1.4c-0.4,1.8-2.2,2.3-3.2,3.3c3.7,4.1,7.5,1.8,11.4,0.2c0.9,0.4,1.4,1.1,1.4,2.1
		c-0.9,2.1-3.1,2.5-4.7,3.7c-1,0.6-2,1-3.2,0.9c-3.5-1.3-7-2-9.9,1.2c3.9,4.3,7.8,0.7,11.8,0.2c0.7,0.2,1.2,0.6,1.3,1.4
		c-0.3,1.8-2.4,1.9-3.1,3.7c2.1,2.2,4.4,3.3,7.4,1.4c1.2-0.8,2.6-1.3,4-0.4c0.3,0.4,0.4,0.8,0.5,1.2c-0.3,1.9-2,2.3-3.5,3.3
		c2.7,1.1,4.9,3.5,8.1,1.8c0.8-0.4,1.8-0.9,1.8-2c0-0.9-0.9-1.2-1.6-1.5c-1.4-0.7-3-1.1-4-2.3c-1-1.7-0.5-2.7,1.4-2.9
		c4.2,2.7,8.2-0.4,12.2-0.6c0.4,0.3,0.6,0.7,0.7,1.1c0,0.2,0,0.3,0,0.5c0,1.8-3.3,2-2,4.1c0.8,1.3,2.5,2,4.1,1.7
		c2.2-0.5,4.7-0.9,4.6-4.1c0.1-0.7,0.5-1.2,1.2-1.3c1.1,0,2.2,0.3,3.2,0.7c2,1.2,3.9,2.6,6.5,2.1c1-0.2,1.7-1.1,2.8-1.3
		c0.3,0.3,0.7,0.5,1,0.8c2,1.1,0.7,2.2,0,3.3c1.5,3.3,4,3.3,6.9,2.1c1.2-0.7,2.2,0.7,3.4,0.4c0.3,0.3,0.7,0.5,1,0.8
		c0.2,0.2,0.3,0.5,0.3,0.8c0,0.3-0.1,0.4-0.1,0.4c-1.5,2.9-0.9,3.6,3.6,3.8c0.8-0.5,1.2-1.4,2-1.9c1.6,0.8,3.4,1.1,4.5,2.7
		c-0.2,1.5-1.7,1.6-2.7,2.5c1.8,1.8,4.1,2.4,6.2,3.5c1.6,1.9-0.2,2.2-1.3,2.9c-2.5,0.7-4.8-1.8-7.4-0.6c-0.9,0.4-1.9,0.7-2.2,1.7
		c-0.3,1.2,1,1.4,1.6,2c3.9,3.5,8.2,4.3,13.1,2.4c2.6,1,1.4,2.3,0.2,3.3c-2.4,1.9-5.1,2.9-8.1,1.3c-4.7-1.4-8.6-4.4-12.7-7
		c-3.5-2.2-6.7-2.6-10,0.9c7.5,3,13.2,11.1,22.8,6.4c0.5,0.3,1.1,0.7,0.8,1.4c-1.4,3.3-7.4,5.6-10.8,4.2c-1.7-0.9-3.2-2.1-4.9-2.8
		c-1.9-0.8-3.4,0.1-4.8,1.2c-0.5,0.4-0.9,1.1-0.4,1.6c1.1,1.2,2.6,1.8,4.3,1.6c1.5-0.1,3-1.2,4.6-0.4c1.7,3-1.2,3.2-2.7,4
		c-1.7,0.9-3.5,1.2-5.3,0.2c-4.4-3.6-8.9-3.7-13.4-0.1c-4.2,1.8-7.1-0.6-10-3.2c-0.7-0.6-0.5-1.4,0.3-1.9c1.4-0.6,2.8-0.1,4,0.6
		c3.1,1.8,5.6,0.7,8-1.4c-2.2-2.2-5.2-2-7.8-3c-0.4-0.3-0.7-0.6-0.9-1c-3.8-4.7-4.9-4.8-12.4-1.1c-4.7,1-14-2.8-16-6.6
		c-0.6-1.2,0.2-1.7,1.1-2c2.7-0.1,4.5,1.9,6.7,2.9c1.7,0.8,3.2,1.9,5.2,1.9c3.7,0.1,4.9-1.7,3.4-5.1c0.1-0.7,0.5-1.2,1.3-1.3
		c2.7,0.4,4.9,2,7.2,3.4c1.8,1,3.5,2.2,5.5,2.7c2.1,0.6,4.5,0.5,5.4-1.6c0.7-1.8-1.8-2.3-3-3c-2.8-1.7-5.7-3.4-9-4
		c-0.4-0.1-0.8-0.3-1.2-0.6c-3.7-4.9-5.5-5.3-10.9-2.3c-0.8,0.5-1.7,0.8-2.6,1c-1.9,0.3-3.8,0.1-5.5-0.8c-0.4-0.3-0.7-0.6-1-1
		c-0.1-0.8,0.3-1.3,1-1.6c2.9-0.1,6,0.3,8-2.7c-4.1-4.8-7.8-0.8-11.6,0.5c-2,0.8-4.1,0.8-6.1-0.1c-3.8-2.1-7.4-4.5-11.3-6.5
		c-1.5-0.7-3.1-1.7-2.7-3.8c2-1.5,3.6,0.1,5.2,0.7c2.2,0.8,4.3,1.1,6.2-0.6c0.7-0.6,0.7-1.4-0.1-2c-1.9-1.6-4-1.9-6.1-0.5
		c-1.7,1.2-3.9,1.2-5.4,2.7C292.8,251.8,289.9,249,287.3,245.9z"/>
	<path fill="#ECECEE" d="M98.5,219.2c4.3-2.5,6.4-6.9,9.3-10.6c4.3,1.4,7.8,4.4,12.3,5.4c2.5,0.5,4.8,1.3,7.4,1.1
		c4.5-0.3,8.9,0.5,13.4-0.5c1.4-0.3,2.7-0.2,4,0.5c2,6,4.7,11.6,8.9,16.3c-5.3,2.1-10.9,2.3-16.4,3c-0.7,0.8-1.6,1.1-2.5,1.1
		c-11.7,0-23-1.5-32.8-8.6C100.2,224.7,96.9,223,98.5,219.2z"/>
	<path fill="#EBEBEE" d="M343.3,287.6c2.3,3.5,5.3,5.1,9.4,3.8c4.4,3.6,8.9,2.4,13.3,0c4,0.8,6,0,7.5-2.9c-0.5-1.8,0.8-2.2,1.9-2.8
		c2.9,1.7,7.5-0.2,9.5-3.8c-0.5-0.6-0.6-1.2,0-1.9c3.3,2.1,6,0.1,8.5-1.6c1.1-0.7-0.1-1.1-0.9-1.2c-0.4-1.6,0.9-2.2,1.7-3.1
		c1.3-0.7,3.2,0.7,4.1-1.2c-0.1-1.4-1.9-2.1-1.5-3.7c0.1-0.2,0.2-0.3,0.4-0.5c2.6,1.6,6.7,1.8,7.2,5.3c0.6,4.2-4,4.8-6.6,6.3
		c-11.3,6.7-22.6,13.1-33.9,19.8c-2.8,1.6-5.3,2.2-8.4,0.4c-25.3-14.8-50.7-29.4-76-44.1c1.1-1.8,2-3.7,3.7-5
		c1.6,0.3,2.6,1.2,3.4,2.5c1.5,2.5,4.5,2.9,6.7,4.3c0.4,0.2,0.7,0.4,1.1,0.6c1.3,0.9,2.4,2.2,4,2.7c0.4,0.1,0.8,0.3,1.1,0.5
		c2.6,1.8,5.6,2.9,8.8,3.4c7.1,4.2,7.1,4.2,13-0.6c1.8,1.1,3.8,1,5.7,0.9c0.9,0.4,1.4,1,1.2,2.1c-0.3,0.6-0.8,1-1.5,1.2
		c-3.1,0.3-6.4,0.2-7.2,4.3c-0.3,0.1-0.6,0.1-0.9,0.2c1.7,3.9,10.9,7.9,15.2,6.5c1,0.7,2,1.4,2.5,2.5c1.5,3.2,5.3,1.3,7.3,3.2
		C343.8,286.4,343.8,287,343.3,287.6z"/>
	<path fill="#D80185" d="M289.2,224.9C282,229,277.8,236,272.6,242c-3.1,3.5-5.4,7.7-9.5,10.3c-6.8,4.2-13.9,5.2-21.5,3
		c5.4-3.2,8.9-8.3,12.6-13.2c0.1-1.1,0.8-1.7,1.4-2.5c0.8-0.9,1.4-1.9,2-2.9c1.3-1.6,2.8-3,4.3-4.5c0.7-0.7,1.4-1.5,1.9-2.4
		c1.3-2,3.1-3.5,4.7-5.2c0.8-0.8,1.4-1.6,2-2.5c1.6-2.2,3.8-3.7,6.4-4.7c0.5-0.1,0.9-0.2,1.4-0.2c4.9-0.4,8.6,1.7,11.3,5.6
		C289.8,223.6,289.7,224.3,289.2,224.9z"/>
	<path fill="#FEBC99" d="M289.1,223.1c-3.3-2.8-6.6-5.7-11.4-4.9c-0.4-0.9,0.1-1.7,0.5-2.4c1.1-1.8,2.3-3.6,3.5-5.3
		c0.7-1,1.3-2.1,1.8-3.2c0.5-1.1,0.9-2.3,1.6-3.4c1.4-1.5,2.4-3.5,4.3-4.5c5.8-5.9,11.6-11.8,17.5-17.6c1.4-1.4,3-2.7,4.8-3.7
		c2.1-1.1,3.3-0.4,2.8,2.2c-3.5,3.9-6.6,8-9.1,12.6c-1,1.9-1,3.5,0.7,5.1c5.5,5.1,5.2,9.7-1.1,15.2c-4.1,3.6-9.1,6.2-13.3,9.8
		C291,223.7,290,223.9,289.1,223.1z"/>
	<path fill="#ECECEE" d="M216.1,166.1c-0.3-8.9-2.4-17.6-1.9-26.5c1.4-0.1,2.7,0.6,4.1,0.6c4.4,3.1,9.9,2.1,14.6,3.9
		c-2,8.5-0.9,17.1-1.2,25.7c-0.1,3,0.2,6-1.2,8.8C221.1,182.2,214.8,176.8,216.1,166.1z"/>
	<path fill="#DBDADF" d="M230.3,178.4c0-10.1,0.1-20.1-0.1-30.2c0-1.9,1.8-2.5,1.8-4c-0.1-0.5,0-0.9,0.3-1.2
		c2.7-1.3,5.4-2.7,7.8-4.5c1.4-0.5,0.3-2.6,1.9-3c1.7,6.7-0.4,13.3-0.7,20c-0.2,4.2-0.9,8.4-1.4,12.6c2.1,3.4,0.5,6.1-1.7,8.4
		C236.1,178.5,233.6,180.4,230.3,178.4z"/>
	<path fill="#FCA879" d="M289.1,223.1c5.8-4.4,12.5-7.6,17.4-13.1c3.7-4.1,3.5-6.5-0.4-10.2c-2.7-2.5-3-4.7-1.1-7.7
		c2.7-4.4,5-9,9.6-11.8c-1.6,4.6-5.6,7.5-7.7,11.8c-1.1,2.4-1.6,4.3,1.5,4.8c5.6,0.9,6.7,5.4,6.9,9.6c0.3,4.5-1,9-5.5,11.6
		c-0.7,1.5-2.6,1.2-3.7,2.1c-1.9,2.2-2.9,5.2-5.9,6.4c-1.2,0.6-2.4,1.3-3.6,1.9c-1.1,1.6-2.6,2.4-4.6,2.2c-0.5-2.2-1.3-4.2-2.9-5.9
		C289.2,224.3,289.1,223.7,289.1,223.1z"/>
	<path fill="#203548" d="M144.1,200.3c0.4-3.1,2-4.6,5.1-5.1c2.9-0.4,3.8-3.6,6-5c0.4-3.1,1.7-5.9,3-8.7c0.7-1.5,1.3-3.2,3.5-3.1
		c0,1.7,0.6,3.6,0.1,5.1c-2,6-1.9,11.8,0.1,17.9c1.7,5.3,0.6,6.4-4.9,7.7c-4.9,1.1-9.3,0.8-12.9-3.3
		C142.4,204,142.4,202.2,144.1,200.3z"/>
	<path fill="#FDBC99" d="M126.9,216.4c-7.2-0.6-13.9-2.3-19.1-7.8c0.5-1.8,1.4-3.5,1-5.5c0.3-0.9,0.7-1.9,1-2.8
		c5.1,3.7,10.6,2.9,16,0.9c1-0.6,2.2-0.4,1.9,0.8C126.8,206.8,127.6,211.6,126.9,216.4z"/>
	<path fill="#5C799B" d="M217.8,132c3.7-5.2,12.6-7,18.3-3.7c1.9,1.1,1.1,3.9,3.4,4.6c0.5,0.2,0.7,0.6,0.5,1.2
		c-1.9,2.6-4.2,4.5-7.5,5c-6.1,1.9-11.4,0.9-15.8-3.9C216.1,133.8,216.7,132.8,217.8,132z"/>
	<path fill="#F99F6C" d="M161.8,178.5c-2.6,1.7-2.8,4.6-3.8,7.1c-0.7,1.7-1.1,3.5-2.7,4.7c0-0.2,0-0.4,0.1-0.5
		c-0.9-0.9-0.7-2.1-0.4-3.1c1.9-6.4,1.3-12.8-0.6-19c-0.8-2.7-1.1-5.5-0.5-8.4c0.8-4.1-0.6-8.1-1.4-12.1c0.1-2,1.9-2.8,3-4
		c3.9,2.9,4.8,7.9,4,11.4C157.3,163,160.8,170.5,161.8,178.5z"/>
	<path fill="#5A7498" d="M230.3,178.4c7.2-0.9,8.7-2.5,9.6-10.3c2.9-0.9,3.1,1.8,3.5,3.2c0.8,2.6-0.5,5-2.7,6.6
		c-2.2,1.6-4.7,2.3-7.4,3c-4.6,1.1-9.1,0.8-13.5-0.6c-7.5-2.5-8.8-7.7-3.8-14.1c0.2,0.6,0.5,1.2,0.6,1.8
		C218.3,177.2,220.8,179.2,230.3,178.4z"/>
	<path fill="#EAEAEB" d="M318.6,243.9c-0.3-0.3-0.7-0.6-1-0.9c-0.6-1-2.5-1.1-1.9-2.8c0.9-0.3,1.9-0.6,2.8-0.9c1.1,0,2.2,0.3,3.1,1
		c3,2.4,5.7,2.1,8.6-0.9c-1.9-1.8-4.2-2.8-6.9-3c-0.3-0.6-0.6-1.3-1-1.9c-0.9-0.8-2.6-1.2-1.9-3.1c0.8-0.6,1.6-0.6,2.6-0.5
		c2,0.5,3.8,1.5,5.6,2.5c1.6,0.8,3,1,3.9-0.9c0.3-0.3,0.7-0.4,1.2-0.5c1,0.1,1.6,0.7,2,1.6c1.6,1,1,2.1,0.1,3.1c1.5,2,3,4.2,5.9,1.9
		c0.4-0.5,0.9-0.8,1.5-1c1.6,0.9,3.1,1.8,4.7,2.7c-0.3,2.2-4,1.4-3.7,4.1c0,0.9-0.1,1.7-0.7,2.5c-0.4,0.3-0.8,0.3-1.2,0
		c0-0.3,0-0.7,0-1c-1.5-0.9-3-1.7-4.6-2.4c-3.6-1.6-5.9-0.5-7.7,3.3c-1.7,0-1.5,0.9-1,1.9c0,1.6-0.8,1.5-1.9,0.9c0-0.3,0-0.7,0-1
		C324.7,246.2,321.2,245.9,318.6,243.9z"/>
	<path fill="#ECEDF0" d="M258.1,237.5c-0.4,1.2-1.1,2.1-2.2,2.7c-0.5,0.4-1.2,0.7-1.7,0.4c-9.2-5.5-19.1-9.9-27.6-16.6
		c-0.7-2,0.7-2.9,2.1-3.6c4.6-2.6,9.3-5.2,13.9-7.8c0.1,0.2,0.3,0.3,0.4,0.5c0.5,2-1.4,2.8-2.1,4.2c-0.3,0.6-0.7,1.1-1.2,1.4
		c-2.4,1.1-6.1,0.1-6.8,4c2,3.2,5.4,3.6,8.6,4.6c0.4,0.2,0.6,0.6,0.8,1c2.1,3.5,6,3.5,9.3,4.5C253.9,234.1,256.8,234.8,258.1,237.5z
		"/>
	<path fill="#FCA06D" d="M144.1,200.3c0,1.9,0,3.7,0,5.6c-0.6,3.2,0,6.2,0.7,9.3c-1.2,0.1-2.4,0.3-3.6,0.4c-2,0.8-3.3,0.4-3.7-2
		c-0.7-4.4-1.1-8.7-0.4-13.1c0.7-4.2,3.4-5.4,6.7-3.1C143.9,198.4,144,199.3,144.1,200.3z"/>
	<path fill="#E8E6E7" d="M323.3,231.6c-1,0-1.9,0-2.9,0c-2.4,1.2-4.4-0.5-6.6-1c-0.3-0.3-0.6-0.6-1-0.9c-2.7-2.9-5.7-4.3-9.7-2.3
		c-0.9,0.4-1.8,0.3-2.6-0.4c0,0-0.3-0.3-0.3-0.3c1.7-2.4,3.3-4.9,5-7.3c2.8,2.8,5.7,5,9.9,2.7c0.6-0.3,1.5,0.5,2.3,0.4
		c0.9,0.2,1.7,0.6,2,1.6c0.2,0.2,0.3,0.5,0.3,0.8c-0.1,0.3-0.1,0.4-0.2,0.4c-0.5,0.8-3.6,1-0.6,2.5c1.4,0.8,2.9,1.2,4.3,0
		c0.5-0.4,1.2-0.5,1.8-0.6c1,0.6,1.9,1.1,2.9,1.7c0.4,1.9-1.4,1.8-2.3,2.5C325,231.5,324.2,232.1,323.3,231.6z"/>
	<path fill="#DAD9DE" d="M226.6,224c9.3,4.3,17.9,10.1,26.9,15.1c0.8,0.4,1.7,0.7,2.5,1.1c-0.6,0.6-1.2,1.3-1.8,1.9
		c-8.1-4.7-16.2-9.4-24.3-14.1C228.3,227.1,226.2,226.5,226.6,224z"/>
	<path fill="#5A7498" d="M289.4,199.4c-0.9,1.9-1.5,4.1-3.9,4.7c-0.2,0-0.4,0-0.7,0c-3.9-2.2-8.7-3-11-7.4c2.8-2.5,5.8-2.4,8.9-0.5
		C284.9,197.4,286.8,199.3,289.4,199.4z"/>
	<path fill="#FCFCFC" d="M285.5,204.1c-0.1,1.3-0.3,2.7-1.2,3.8c-1.1,0.9-2.4,0.9-3.5,0.3c-4.1-2.2-8.6-3.7-11.9-7.3
		c-0.7-1-1.1-2.1-0.6-3.4c0.3-0.1,0.5-0.2,0.8-0.2c3.9-1.3,6.2,2,9.2,3.2c2.4,1,4.4,2.9,7,3.5L285.5,204.1z"/>
	<path fill="#ECEDF0" d="M242.6,212.6c7.6-4.5,15.2-9,22.7-13.5c0.6,0.5,0.7,1.1,0.6,1.8c-1.3,2.7-4.6,3.4-6.3,5.7
		c-0.3,0.3-0.6,0.6-1,0.8c-3,0.8-6,1.8-8,4.5c-0.7,0.6-1.5,1-2.3,1.3c-1.9,0.2-3.9,1.7-5.5-0.4L242.6,212.6z"/>
	<path fill="#F9F9FA" d="M317.5,222.5c-3.4,1.2-6.7,3.3-10.4,0.2c-1.2-1-2-1.8-1.8-3.4c1.2-1.7,3-0.9,4.6-1.2
		C312.4,219.5,315,221,317.5,222.5z"/>
	<path fill="#F9F9FA" d="M343.3,243.9c-1.2-4.6,3.6-1.9,4.6-3.7c5.1,2.9,10.1,5.8,15.2,8.7c-0.6,0.9-1.2,1.7-1.8,2.6
		c-2.2-1.9-4.4-3.6-7.6-2.8c-1-0.1-2.1,0.1-2.8-1c-0.3-0.7,2.4-1,0.3-2c-2-1.6-4-3.3-6.8-1.6C344,244.4,343.6,244.3,343.3,243.9z"/>
	<path fill="#D2D3D8" d="M410.6,225.9c-0.6-2.1-1.3-4,1.3-5.6c2.3-1.4,4.1-4.4,7.4-1.9C416.4,220.9,413.5,223.4,410.6,225.9z"/>
	<path fill="#FBFCFB" d="M388.8,268.6c-3.3,0-5.3-2.5-8.1-3.8c1.3-2,3.5-1.6,4.9-2.7c0.7,0.4,1.4,0.7,2.2,1.1c0.6,0.7,1.3,1.3,2,1.9
		C391.6,266.9,391,268,388.8,268.6z"/>
	<path fill="#EBEBEE" d="M388.8,268.6c3.2-2.4-1.5-3.4-1-5.4c3.4,1.3,6.5,3.4,9.5,5.5l-0.1,0.2c-1.1,2.4-4.7,0.2-5.6,3
		c-0.3,0.4-0.6,0.7-1,0.9c-1.4-0.1-2.8-0.2-2.7-2.2C387.7,269.7,389.8,269.9,388.8,268.6z"/>
	<path fill="#EBEDEF" d="M285.3,204.1c-3.7,0.7-5.9-2.3-8.7-3.6c-2.5-1.1-4.7-2.7-7.5-3.1c1.4-1.5,3.1-0.7,4.7-0.7
		C277.4,199.7,282,200.8,285.3,204.1z"/>
	<path fill="#F9F9FA" d="M374.5,255.6c-1,1.2-1.9,0-2.8-0.2c-3.6,1.2-5.9-1.4-8.5-2.8c0.5-0.9,2.1-1.4,1-2.8
		C367.6,251.7,371,253.6,374.5,255.6z"/>
	<path fill="#F9F9FA" d="M334.7,236.4c0.6-0.9,2-1.4,1-2.9c2.8,0.7,5.2,2.4,7.5,4c-0.3,0.2-0.6,0.5-0.9,0.7
		C339,240.5,337.4,236.4,334.7,236.4z"/>
	<path fill="#F9F9FA" d="M325.2,230.7c1-0.6,1.9-1.2,2.9-1.9c1.9,1,3.7,2.1,5.6,3.1c-0.3,0.2-0.6,0.4-0.9,0.7
		C329.7,234.2,327.5,232.1,325.2,230.7z"/>
	<path fill="#F9F9FA" d="M381.2,259.4c0,1,0.2,2-0.9,2.6c-1.8-1.3-4.8-1.6-4.7-4.7c0-0.3,0-0.6,0-0.9
		C377.7,256.8,379.4,258.1,381.2,259.4z"/>
	<path fill="#E1E2E5" d="M217.1,140.5c-1.4,1-2-0.2-2.8-0.9c-0.3-2-0.3-4,0.9-5.7c0.9-0.3,1.3,0.3,1.4,1
		C217.3,136.7,217.8,138.5,217.1,140.5z"/>
	<path fill="#F9F9FA" d="M319.5,225c0-0.3,0-0.6,0-1c2.2,0.4,3.8,1.9,5.6,3.1c-0.3,0.2-0.6,0.5-0.9,0.7
		C321.5,228.8,319.8,228.1,319.5,225z"/>
	<path fill="#EBEDEF" d="M265.4,201.2c0-0.7,0-1.4-0.1-2.1c1-0.5,2-1,3-1.5c0.3,0.9,0.6,1.8,0.9,2.7c-0.4,0.8-1.2,1.2-2,1.5
		C266.5,201.9,265.9,201.8,265.4,201.2z"/>
	<path fill="#E6E8EF" d="M239.7,133.9c-0.1-0.3-0.1-0.7-0.2-1c1.5,0.2,2.1,1.2,2.4,2.6c-0.9,0.8,1.1,2.8-1.3,2.9
		C239.5,137,239.1,135.5,239.7,133.9z"/>
	<path fill="#EFEBF2" d="M290.1,133.9c1.5,1.8,1.3,3.7,0.2,5.6c-0.1-0.5-0.2-1-0.4-1.5C290,136.6,290.1,135.3,290.1,133.9z"/>
	<path fill="#B3C4D3" d="M216.2,134.9c-0.3-0.3-0.7-0.7-1-1c0.5-1.2,1.3-1.9,2.6-1.9c-0.3,0.9-0.6,1.8-0.9,2.7l-0.3,0.4L216.2,134.9
		z"/>
	<path fill="#577193" d="M495.1,638.7c0-54.4,0-108.8,0-163.2c1.5,1.4,0.9,3.3,0.9,4.9c0,51.1,0,102.2,0,153.4
		C496,635.5,496.6,637.3,495.1,638.7z"/>
	<path fill="#5A7498" d="M27.2,201.2c1.1-11.8,10.1-14.2,17.9-10.1c16.2,8.6,31.8,18.4,47.6,27.7c-0.7,2-2.5,1.5-4,1.7
		c-7,1.1-13.3,3.6-17.7,9.5c-8.3,12.1-8,8.4,3.3,15.4c3.9,2.4,8.2,4.2,11,8c-0.1,0.8-0.2,1.4-1.2,1c-11.4-6.5-22.8-13.1-34.3-19.6
		c-6.5-3.7-13-7.6-19.7-11c-2.5-1.2-3-2.6-3-5C27.3,212.9,27.2,207,27.2,201.2z"/>
	<path fill="#5B7497" d="M84.2,254.4c0.3-0.3,0.6-0.6,1-0.9c1.9-1.4,3.3,0.1,4.6,0.9c3.3,1.9,7.2,3.2,9.6,6.5c1.3,1,2.5,1.9,3.8,2.9
		c-0.4,0.9-1,1.6-2,2c-3.1-4.3-8.4-5.5-12.4-8.5C87.4,256.2,85.7,255.3,84.2,254.4z"/>
	<path fill="#D80185" d="M99.4,260.9c-5-1.9-9.1-5.8-14.3-7.4c-6.1-4.3-12.7-8-19.2-11.6c-2.2-1.2-2.4-2.6-1.2-4.5
		c1.6-2.7,2.9-5.5,5.3-7.7c7.1-4,14.6-5.8,22.7-4.7c3.1,0.4,6.3,0.4,9.4,0.9c10.7,7.3,22.8,8.4,35.2,8.5c3.7,1.6,7.4,3.2,11.2,4.7
		c4.8,2,9.7,3.7,14.4,5.8c3.6,1.6,4,5,3.7,8.4c-0.4,4.1-2.2,7.9-4.2,11.3c-3.3,5.6-4.7,11.8-6,18c-0.2,0.8-0.2,1.6-1,2
		c-0.9,0.5-1.5-0.3-2-0.8c-8.2-10-20.3-13.2-31.5-17.9C114.8,263.3,107.4,260.8,99.4,260.9z"/>
	<path fill="#FDFDFD" d="M286.3,254.4c-0.9-1.2-2.6-1.5-3-3c1.3-1.8,2.6-3.7,4-5.5c3.7,1.1,6.1,5,10.4,4.7l0,0
		c3.7,4.7,10,5.6,14.3,9.5c0.5,0.6,0.6,1.3,0.3,2.1c-5.1,4.3-6,4.3-13.6-0.2l0,0c-1.5-1.1-3.3-1.8-4.8-2.9l0,0
		C291.6,257.1,288.2,256.9,286.3,254.4z"/>
	<path fill="#1C2E3F" d="M185.9,394c1.2,5-2.3,8.3-5,11.2c-6.3,6.5-14.1,10.3-23.6,9.6c-1.9-4.5,2.2-2.7,3.7-3.6
		C171.9,409.1,181,404.7,185.9,394z"/>
	<path fill="#223850" d="M161,411.1c-1.5,0.9-3.8,1.1-3.7,3.6c-1.6,0.3-3.4-0.6-4.8,0.9c-1.3,1.4-3.1,1.4-4.8,1.4
		c-4.9,0.2-9.7-1-14.5-1.1c-1.5,0-2.7-0.8-3.4-2.2c-0.2-1.5,0.1-2.8,1.9-3.1C141.4,411.6,151.2,412.5,161,411.1z"/>
	<path fill="#FCFCFC" d="M289.4,243c1.3-0.4,3-0.5,3.9-1.4c3.8-3.6,6,0.8,8.7,1.7c1.4,0.4,0.6,1.7-0.5,2.4c-4.3,3.2-8.1,2.7-12.6-2
		C289.1,243.5,289.2,243.3,289.4,243z"/>
	<path fill="#FAF5F3" d="M292.1,230.8c1.4-1,2.6-2.4,4.6-2.2c0.7,0.7,1.5,1.5,2.6,2.6c-2.5,0.3-3.6,5-7,1.5
		C292.2,232,292.1,231.4,292.1,230.8z"/>
	<path fill="#F6F5F3" d="M292,237.3c1,0.2,2.1,0.4,1.4,1.7c-0.4,0.8-0.9,2.3-2.4,1.1C291.3,239.1,291.7,238.2,292,237.3z"/>
	<path fill="#315270" d="M129.8,413.8c7.5,1.5,15.1,2,22.7,1.9c5.4,0.2,5.4,0.4,3.6,5.3c-3.3,9.1-10.6,13.1-19.2,15.5
		c-0.9,0.3-1.9,0.1-2.5,1C131.3,430,131.5,421.7,129.8,413.8z"/>
	<path fill="#182A3B" d="M287.3,521c0-0.6,0-1.2,0-1.8c5.7-0.9,12-0.2,16.1-5.7c1.5,3.4-1.3,4.6-3.4,5.9c-3.7,2.1-7.8,1.8-11.8,1.7
		C287.9,521.5,287.6,521.5,287.3,521L287.3,521z"/>
	<path fill="#49608A" d="M161.2,534.5c1.5-3.8,0.3-7.7,0.8-11.5c4.4,2.3,7.8,5.2,7.7,10.8c-0.2,5.6-3.8,8.7-8.1,10.7
		c-12.2,5.5-24.4,5.8-36-1.5c-8.2-5.2-8.2-13-0.3-18.6c0.8-0.5,1.7-0.9,2.5-1.3c0.1,2,0.2,4,0.2,6.1c0,8.7,3.1,12.4,11.8,13.7
		c1.7,0.3,3.4,0.1,5.1,0.2c6.4-0.3,12.8-0.7,15.9-7.6C160.6,534.9,160.7,534.6,161.2,534.5z"/>
	<path fill="#D80185" d="M102.2,226c-1.8,1.6-4,1.1-5.9,0.7c-8.6-1.7-16.7-0.5-24.5,3.3c-0.4,0.2-1.2-0.1-1.8-0.2
		c4.3-7.1,11.4-9.2,19-10.5c1.2-0.2,2.5-0.3,3.7-0.5c1.9,0.1,3.8,0.2,5.7,0.4C98.6,222,100.6,223.9,102.2,226z"/>
	<path fill="#7F9BB0" d="M7.3,190.8c0-0.9,0.1-1.8,0.1-2.7c0.2,0,0.5,0,0.7,0c0,0.6,0.1,1.3,0.1,1.9c0,54.8,0,109.6,0,164.5
		c0,1.1-0.1,2.2-0.2,3.3c0,0.1-0.2,0.2-0.3,0.2c-0.1,0-0.3-0.1-0.4-0.1c-0.8-1.3-0.4-2.8-0.4-4.2c0-52.9,0-105.8,0-158.7
		C6.9,193.6,6.5,192.1,7.3,190.8z"/>
	<path fill="#7B9FBA" d="M7.3,190.8c0,55.7,0,111.3,0,167c0,0-0.5,0-0.5,0s-0.5,0-0.5,0c0-55.7,0-111.3,0-167
		C6.7,190.8,7,190.8,7.3,190.8z"/>
	<path fill="#F2E9EE" d="M475.2,228.8c-1.8-0.2-0.9-1.6-0.9-2.4c-0.1-36.5,0-72.9,0-109.4c0-1.4-0.4-2.9,0.9-4c0,0.3,0,0.6,0,0.9
		c0.7,1.2,0.4,2.5,0.4,3.7c0,35.8,0,71.6,0,107.4C475.6,226.3,475.9,227.6,475.2,228.8z"/>
	<path fill="#E7EFF1" d="M475.2,228.8c0-38.3,0-76.6,0-114.8c1.5,1.4,0.9,3.3,0.9,4.9c0,36.6,0,73.3,0,109.9
		C475.8,228.8,475.5,228.8,475.2,228.8z"/>
	<path fill="#28425B" d="M287.3,521c0.3,0,0.6,0,0.9,0c0,3.2,0,6.3,0,9.5C286.3,527.5,287.6,524.2,287.3,521z"/>
	<path fill="#54F98D" d="M473.2,234.4c-5.8-0.5-10-4.5-14.7-7.1c-31.8-18.2-63.4-36.6-95.1-54.9c-21.3-12.3-42.7-24.5-64-36.8
		c-0.7-0.4-1.2-1-1.8-1.5c-4.7-3.3-5.2-7.9-5.2-13.3c0.2-35.6,0.1-71.2,0.1-106.8c0.1-1.2-0.3-2.4,0.3-3.5c3.4-0.4,5.8,2,8.4,3.5
		c22.1,12.6,44,25.4,66,38.1c33.9,19.6,67.7,39.2,101.6,58.7c3.1,1.8,4.5,3.9,4.4,7.6C473.2,157,473.2,195.7,473.2,234.4z"/>
	<path fill="#EFEBF2" d="M292.1,130.9c-0.4,1-1,1.6-2,2c0-16.1,0-32.3,0-48.4c0.9-1.6,0.5-3.4,0.5-5.1c0-19.4,0-38.8,0-58.1
		c0-1.7-0.4-3.5,0.4-5.1c0-1-0.2-2.1,0.9-2.8c1.3,1.5,1,3.3,1,5c0,35.8,0,71.7,0,107.5C292.9,127.6,293.3,129.4,292.1,130.9z"/>
	<path fill="#C3E5B5" d="M292.1,130.9c0-37.3,0-74.6-0.1-111.8c0-1.9-0.1-3.8-0.1-5.7c0.2-1-0.1-2.2,0.9-2.9c0.1,1,0.1,2,0.2,2.9
		c0.6,1,0.4,2.2,0.4,3.2c0,37.2,0,74.3,0,111.5c0,0.9,0.2,1.9-0.3,2.8C292.7,130.9,292.4,130.9,292.1,130.9z"/>
	<path fill="#E7EEE7" d="M291,16.2c0,21,0,42,0,62.9c0,1.8,0.7,3.8-0.9,5.4c0-21,0-42,0-62.9C290.1,19.8,289.4,17.8,291,16.2z"/>
	<path fill="#E1E0E3" d="M161.2,534.5c0,0.3-0.1,0.6-0.3,0.8c-0.4-0.2-1-0.5-1-0.7c0.1-12.7,0.2-25.4,0.3-38.1
		c0-1.1-0.1-2.2,1.1-2.9C161.2,507.2,161.2,520.8,161.2,534.5z"/>
	<path fill="#ECECEE" d="M402.9,324.6c-1.5-3.5-0.9-6.7,1.5-9.7c6.2-7.8,19.4-10.9,28.4-6.8c4.9,2.2,5.8,4.4,4.2,9.8
		c-5.2,3.1-10.4,6.4-15.8,9.2C415.1,330.2,408.1,329.1,402.9,324.6z"/>
	<path fill="#D9D9DF" d="M402.9,324.6c9.1,5,17.4,3,25.5-2.7c2.6-1.8,5-4.3,8.6-4c-6.7,6.1-14,11.3-23.2,12.2
		C409.6,330.5,404.8,330,402.9,324.6z"/>
	<path fill="#96DF73" d="M293.1,130.9c0-39.2,0-78.3-0.1-117.5c1.6,1.6,0.9,3.6,0.9,5.4c0,31.3,0,62.6,0.1,93.9
		c0,7.3-1.9,15,3.7,21.3C295.4,134,294.6,132,293.1,130.9z"/>
	<path fill="#FDAF84" d="M143.9,197.4c-3.3-1.9-5,0.3-5.4,2.8c-0.7,4.8-0.1,9.6,0.5,14.4c0.2,1.2,1.5,0.7,2.3,1
		c-4.7,1.7-9.6,0.7-14.4,0.8c-2-4.7-0.9-9.4-0.1-14c0.3-1.6-0.5-0.9-0.9-1.2c5.2-2.7,6-7.7,6.5-12.8c0.4-3.6,0.9-7.2,2.2-10.6
		c1.2-3,3.5-4.7,6.6-4.5c3,0.2,2.6,3.2,3,5.2C145.6,184.9,144.9,191.1,143.9,197.4z"/>
	<path fill="#FAAF84" d="M152.5,147.1c2.4,4.3,3.8,8.8,2.2,13.8c-0.7,2.3,0.3,4.4,1,6.4c2.6,7.5,2.4,14.9-0.3,22.4
		c-0.3,0.1-0.7,0.3-0.9,0.2c-5-2.5-9.9-17.4-6.3-21.5c5.1-5.8,5.1-11.9,3.7-18.6C151.7,148.8,151.7,147.9,152.5,147.1z"/>
	<path fill="#FDFDFD" d="M385,280c0,0.6,0,1.2,0,1.9c-5.2,4-10,2.2-14.7-1.1c-3-2.1-6.3-3.9-9.6-5.9c6.5-5.3,6.5-5.4,13-1.4
		C377.3,275.7,381,278.2,385,280z"/>
	<path fill="#FDFDFD" d="M341.4,267.7c5.5,0.2,9.4,3.9,13.8,6.5c1.7,1,1,2-0.3,2.8c-2.6,1.5-5.2,3-8.3,1c-3.6-2.3-7.3-4.3-10.9-6.5
		C336.7,268.9,339.2,268.5,341.4,267.7z"/>
	<path fill="#FDFDFD" d="M319.5,273.4c-0.4-1-3-1.8-0.4-3c2.5-1.2,4.8-3.8,8-1.7c3.2,0,5.4,1.8,7.6,3.8c0.5,1.6,2.5,1.8,3.3,3.1
		c-4.5,4.2-9,4-13.7,0.8C322.8,275.2,321.1,274.3,319.5,273.4z"/>
	<path fill="#FDFDFD" d="M387.8,270.5c0.9,0.6,1.9,1.3,2.8,1.9c1.9-0.7,3.1,0.2,3.8,1.9c0.2,1.5-1.3,1.9-1.9,2.8
		c-4.8,2.4-13.3,0.3-16.2-4c-0.9-1.2,0.2-1.5,0.8-2.1C380.6,267.3,384.2,269.2,387.8,270.5z"/>
	<path fill="#FCFCFC" d="M321.9,254.8c0.1,1.8-6,4.8-8,4.2c-1.5-0.4-2.9-1.2-4.2-2c-1.4-0.8-1.6-1.8-0.3-3c3.3-3.1,8.5-3,11.7,0.3
		C321.3,254.5,321.8,254.7,321.9,254.8z"/>
	<path fill="#FDFDFD" d="M348.7,259.5c1.9,1,3.9,1.8,5.8,3c1.2,0.8,0.9,1.6-0.2,2.6c-3.3,3.1-8,3.1-11.5,0c-0.8-0.7-0.9-1.3-0.2-1.8
		C344.4,261.8,346.2,260.3,348.7,259.5z"/>
	<path fill="#FCFCFD" d="M328.1,267.6c-0.3-0.6-0.7-1.2-1-1.9c1.4-0.9,3-1.7,4.3-2.8c2.7-2.4,4.6,0.3,6.8,1c1.7,0.5,3.4,1.3,2.1,3.7
		C333.9,272.1,333.1,272.1,328.1,267.6z"/>
	<path fill="#FDFDFC" d="M297.7,250.6c5.2-5,7.9-5.6,12.2-2.9c2.5,1.6,2,2.9,0.1,4.2c-2.2,1.6-4.5,2.1-7.1,0.8
		C301.2,251.9,299.4,251.3,297.7,250.6C297.7,250.6,297.7,250.6,297.7,250.6z"/>
	<path fill="#FDFDFD" d="M364.7,268.7c-1.3,3-3.9,3.9-6.2,4.4c-3,0.6-6.4-1.7-6.8-3.9c-0.4-2,3.5-3.1,5.8-3.6
		C360.5,264.9,362.4,267.3,364.7,268.7z"/>
	<path fill="#FDFDFD" d="M342.3,246.8c0.3,0,0.6,0,1-0.1c3.2-2.7,4.8-0.2,6.6,1.9c0.6,0.9,2.3,1.7,0.4,2.9c-2.4,1.4-4.5,3.6-7.7,2.4
		c-0.7-0.3-1.2-1-2-1.3c-3.6-1.4-2.8-2.8-0.2-4.4C341.1,247.8,341.7,247.3,342.3,246.8z"/>
	<path fill="#FCFCFC" d="M347.6,255.8c5.3-4.4,7.5-4.7,12.1-1.3c1.3,1,2.1,1.6-0.1,2.9C353.9,260.8,353.3,260.9,347.6,255.8z"/>
	<path fill="#FDFDFD" d="M317.7,260.1c3.9-2,7.6-5.1,12.2-1.1c1.4,1.2,2,1.7,0.1,3c-2.6,1.8-5.2,3.5-8.6,1.8
		C319.5,263.3,317.2,263.1,317.7,260.1z"/>
	<path fill="#FDFCFD" d="M357.1,261.5c5.7-4.9,7.4-5.2,11.7-1.8c1.5,1.2,2.1,2,0,3.4C363.9,266.1,362.2,266,357.1,261.5z"/>
	<path fill="#FCFCFC" d="M300.6,226.9c3.9-1.2,7.9-3.5,11.7,0.5c0.8,0.9,1.1,1.4,0.6,2.3c-3.9,2.4-7.7,3.9-11.8,0.3
		C299.7,228.8,299.9,228.1,300.6,226.9z"/>
	<path fill="#FDFDFD" d="M338.7,262c-1.5-0.7-3.5-1.7-5.4-2.7c-1.4-0.7-0.6-1.4,0.1-2.1c2.6-2.7,8.2-3,11.2-0.7c1.2,1,1.8,2,0.3,3
		C343.3,260.7,341.5,261.8,338.7,262z"/>
	<path fill="#FDFDFD" d="M327.1,249.7c0.8,0,1.5-0.2,1.9-0.9c0.9,0.3,1.8,0.6,2.6,1c1.6,1,5.3,1,4.1,3.6c-1.1,2.4-4.1,4.5-7.5,3
		c-1.9-0.9-3.6-2.1-5.7-3.4C324.4,251.6,325.7,250.6,327.1,249.7z"/>
	<path fill="#FDFDFD" d="M323.3,236.3c1.8-0.9,8,1,8.6,2.6c0.3,0.7,0.1,1.2-0.6,1.4c-2.4,0.7-3.9,4-7,2.7c-2.2-0.9-4.1-2.2-5.8-3.8
		C320.1,238.2,321.7,237.3,323.3,236.3z"/>
	<path fill="#FDFDFD" d="M366.3,266.7c3.7-3.8,7.5-5.1,11.8-1.5c1.6,1.3,1.9,1.9-0.2,3.2C373.6,271.2,369.9,270.8,366.3,266.7z"/>
	<path fill="#FCFCFC" d="M366,291.4c-5.2,5.1-9.6,5.1-13.3,0C359.4,286.8,359.4,286.8,366,291.4z"/>
	<path fill="#FDFDFD" d="M315.7,240.2c0.6,1,2,1.4,1.9,2.8c-4.6,3-9.2,3.8-13.5-0.5C308,237.9,310.2,237.5,315.7,240.2z"/>
	<path fill="#FCFCFC" d="M343.3,287.6c0-0.6,0-1.2,0-1.9c0.7-1.8,2.1-2.5,3.8-2.8c3.9-0.7,6.9,1,9.8,3.3
		C352.8,291.4,348.1,290.1,343.3,287.6z"/>
	<path fill="#FCFCFD" d="M321.4,264.9c-3,6.7-7.1,7-13.2,0.9c0.8-2.2,3-2.6,4.6-3.7c3.4-1.4,5.7,0.2,7.7,2.8
		C320.8,264.8,321.1,264.8,321.4,264.9z"/>
	<path fill="#FDFDFD" d="M313.8,230.6c2.5-1.8,4.4,1,6.6,1c0.6,1,2.1,1.3,1.9,2.8c-5.7,4.5-5.8,4.5-13.6-0.5
		C310.5,232.8,312.1,231.7,313.8,230.6z"/>
	<path fill="#FDFDFD" d="M366.5,281.5c-3.9,1.9-7.3,4.9-11.8,1.1c-2.1-1.8-1.8-2.4,0.2-3.6C359.2,276.3,362,276.8,366.5,281.5z"/>
	<path fill="#FDFDFD" d="M335.7,282.8c-0.6-1-2.1-1.3-1.9-2.8c3.7-2.2,7.5-4.2,11.7-0.8c0.9,0.7,1.6,1.5,1.6,2.7
		C342.1,286.2,339.9,286.3,335.7,282.8z"/>
	<path fill="#FDFDFD" d="M318.6,243.9c3.6,0.3,7.1,0.6,8.5,4.8c-1.3,0-2.5,0.2-3.5,1.1c-3.8,3.6-6.5-0.2-9.5-1.6
		c-1.2-0.5-0.7-1.6,0.3-2.1C315.8,245.3,317.2,244.6,318.6,243.9z"/>
	<path fill="#FDFDFD" d="M330,246.8c-1-1.1-2.5-1.9-0.1-3.4c5-3,8.1-2.6,12.4,2.4C338.3,247.3,334.4,250.7,330,246.8z"/>
	<path fill="#FDFDFD" d="M308.1,236.3c-2.1,1.8-3.9,3.9-6.5,3.7c-2.5-0.2-6.1-0.9-6.2-3.7c0-2.7,3.7-2.9,6-3.4
		C304.1,232.3,305.8,234.6,308.1,236.3z"/>
	<path fill="#FDFDFD" d="M375.5,285.7c-0.6,0.9-1.3,1.9-1.9,2.8c-3.2,1.5-6.3,2-9.5-0.4c-1.9-1.4-1.5-1.9-0.1-3.4
		C368.4,280.3,371.8,283.6,375.5,285.7z"/>
	<path fill="#FCFCFC" d="M375.5,257.3c0.7,2.4,4.5,1.8,4.7,4.7c-3.4,2.4-6-0.3-7.5-2.2C371.1,257.6,374.2,257.8,375.5,257.3z"/>
	<path fill="#FCFCFC" d="M363.2,252.5c3.4-0.8,5.4,2.7,8.5,2.8c-2.8,2.4-8.1,1.6-9.7-1.6C361.9,253.5,362.8,252.9,363.2,252.5z"/>
	<path fill="#E5E5E5" d="M328.1,267.6c4.1,3.3,8.2,2.2,12.2,0c0.3,0,0.7,0,1,0c-1.6,1.6-3.6,2.8-5.7,3.8c-0.3,0.3-0.7,0.6-1,0.9
		c-2.9-0.5-5.2-2.3-7.6-3.8C327.4,268.3,327.8,268,328.1,267.6z"/>
	<path fill="#FCFCFB" d="M353.7,248.7c3-2.6,5.2-1.8,7.6,2.8C358.3,251.7,355.5,251.6,353.7,248.7z"/>
	<path fill="#E4E4E6" d="M349.9,248.7c-2.2-0.6-3.9-3.1-6.6-1.9c0-0.9,0-1.9,0-2.8c0.3,0,0.6,0,0.9,0c2.7-0.2,5,1.3,7.6,1.9
		c0.8,0,2-1.4,2.1-0.2c0.1,1.2-1.5,2-3,2.1C350.6,248.1,350.2,248.4,349.9,248.7z"/>
	<path fill="#E4E4E5" d="M335.7,282.8c4.1,3.6,7.7,0.7,11.4-0.9c0,0.3,0,0.7,0,1c-0.7,1.7-2.4,2-3.8,2.8
		C337.5,286,337.2,285.9,335.7,282.8z"/>
	<path fill="#EBEBEE" d="M320.5,264.8c-2.5-0.7-4.5-3.7-7.6-1.9c-0.4-0.3-0.9-0.4-1-1c0-0.6,0-1.2,0-1.9c1.9,0.7,3.8,0.6,5.7,0
		c0.6,1.9,2.6,2.4,3.8,3.7C321.1,264.2,320.8,264.5,320.5,264.8z"/>
	<path fill="#FCFCFB" d="M390.7,271.4c0.5-5,4.6-1,6.5-2.5c-0.3,1.9,3.3,2.1,2.1,4.5c-1.1,2-2.5,1.4-4,0.6
		C393.7,273.1,392.1,272.5,390.7,271.4z"/>
	<path fill="#E4E4E5" d="M311.9,262c0.3,0.3,0.6,0.6,1,1c-1.6,1-3.2,1.9-4.7,2.9c-3.9,0.6-7-1-9.5-3.8
		C303.1,264.3,307.5,265.6,311.9,262z"/>
	<path fill="#E1E1E3" d="M390.7,271.4c3,0,5.1,4,8.5,2c-0.9,2.3-1.1,2.4-4.8,1c-1.3-0.6-2.5-1.3-3.8-1.9
		C390.7,272.1,390.7,271.7,390.7,271.4z"/>
	<path fill="#E4E3E6" d="M286.3,254.4c2.5,1.7,5.8,2,7.6,4.8C291.2,257.9,287.6,258,286.3,254.4z"/>
	<path fill="#E4E3E6" d="M293.9,259.1c1.9,0.4,3.7,1,4.8,2.9C296.1,262.7,295.2,260.5,293.9,259.1z"/>
	<path fill="#E6E6E8" d="M248.4,212.6c0.4-0.8,1.1-0.9,1.9-0.9c1.9-0.8,3.4,0.3,4.8,1.3c4.3,3,8.7,4.9,14,2.8
		c0.7,0.2,1.2,0.6,1.4,1.3c-0.3,1.4-1.8,1.7-2.5,2.8c0.3,1.7,2.5,1.7,3,3.2c-0.6,0.6-1.1,1.3-1.7,1.9c-1.3,0.1-2.4,0.6-3.6,1
		c-2.9,0.9-3,2.5-1.3,4.6c-0.6,0.7-1.1,1.3-1.7,2c-4.1-2.8-7.7-0.3-11.4,0.9c-3.6-0.7-7.7-0.3-9.5-4.8c1.9-1.4,3.2,0.4,4.6,1
		c2.3,1,4.3,0.3,6.1-1c0.9-0.6,0.6-1.3-0.1-1.9c-2-1.5-4-2.4-6.4-0.6c-1.2,0.9-2.6,1.6-4.3,1.6c-4,0.1-7.6-0.6-9.5-4.8
		c1.3-0.7,2.5-0.1,3.5,0.6c3,2,5.5,1.4,8-0.9c-0.6-2.1-3.5-2.2-3.9-4.4c0-0.6,0-1.3,0-1.9c5.7,0.4,9.7,4.7,14.6,6.9
		c2,0.9,3.8,2.3,6.1,0.9c0.8-0.5,2-0.6,2-1.7c0.1-1.1-1-1.5-1.8-1.9c-3.1-1.5-6-3.4-9-5C250.4,214.8,248.8,214.4,248.4,212.6z"/>
	<path fill="#FCFCFC" d="M251.2,233.5c6.2-4.8,8.1-5,11.4-0.9c-1.5,1.6-3,3.3-4.5,4.9C255.8,236.2,253.5,234.8,251.2,233.5z"/>
	<path fill="#FBFAF9" d="M270.9,223c-0.3-0.1-0.6,0-0.9-0.2c-1.5-0.7-3.8-1.2-3.7-2.9c0.1-1.4,2.1-2.4,3.9-2.6
		c3.5-3,4.8-2.8,6.6,0.9C274.8,219.9,272.9,221.5,270.9,223z"/>
	<path fill="#FBFBFA" d="M264.3,230.6c-1.3-0.7-2.3-2.1-4.1-2.4c3.2-1,4.7-5.8,9-3.2C267.6,226.9,265.9,228.7,264.3,230.6z"/>
	<path fill="#EAEAEC" d="M276.8,218.3c-1.8-2.9-4.2-1.9-6.6-0.9c-0.3-0.3-0.7-0.6-1-1c-0.3-2-3.6-2.5-2.4-5.2
		c1.3-0.7,2.7-0.6,4.1-0.2c2.8,1.6,5.6,3.1,7.9,5.5c-0.3,0.6-0.7,1.2-1,1.8c0,0-0.4,0.1-0.4,0.1L276.8,218.3z"/>
	<path fill="#E5E5E6" d="M271.1,211.7c-1.6,0-3.2,0-4.7,0c-3.5,0-6.2-1.4-7.6-4.7c0-0.3,0-0.7,0-1c2.1-1.2,3.5,0.3,5.1,1.2
		c1.6,0.9,3.2,2.2,5.2,1.9c1.5-0.2,3.4-0.5,3.8-2.2c0.4-1.4-1.5-1.7-2.5-2.3c-1.3-0.9-2.8-1.5-3.1-3.3c0.4-0.8,1.1-0.9,1.9-0.9
		c4.9,2.9,9.3,6.6,15.1,7.6c-0.6,1-1.2,1.9-1.8,2.9C278.5,208.4,274.9,210.8,271.1,211.7z"/>
	<path fill="#FCFCFB" d="M271.1,211.7c3.6-2.4,7.2-5.8,11.4-0.9c-1,2.1-2.1,4.1-3.9,5.7C275.6,215.7,273.2,214,271.1,211.7z"/>
	<path fill="#6985A4" d="M216.2,134.9c0.2-0.1,0.5-0.1,0.7-0.2c4.7,2.9,9.5,5.8,15.3,2.9c1.2,1.9,2.4,3.8,0,5.7
		c0,0.3-0.1,0.6-0.2,0.8c-5.4,0.4-10.5-0.1-14.9-3.7C216.1,138.7,215.9,136.9,216.2,134.9z"/>
	<path fill="#4B638B" d="M232.2,143.4c1-1.9-0.4-3.8,0-5.7c3.6,0.9,4.5-3.5,7.5-3.8c0.9,1.4,0.9,2.9,0.9,4.5
		C238.6,141.4,236,143.4,232.2,143.4z"/>
	<path fill="#FCFCFC" d="M325.2,230.7c2.9-0.9,4.8,2.3,7.6,1.9c0.9,3.7-1.6,3.1-3.4,2.4c-2.1-0.8-4-2.2-6-3.4
		C324,231.3,324.6,231,325.2,230.7z"/>
	<path fill="#FCFCFC" d="M334.7,236.4c3-1.1,4.8,2.5,7.6,1.9c1,2.2-0.2,3-2,2.7c-2.6-0.5-4.7-2.1-6.7-3.8
		C333.1,236.8,334.1,236.4,334.7,236.4z"/>
	<path fill="#FDFDFD" d="M248.4,212.6c4.8,2.6,9.7,5.1,14.5,7.8c2.5,1.4,2.7,2.5-0.1,4.1c-3,1.7-5.5,2-8.6,0
		c-4.6-3-9.5-5.4-14.3-8.1c1-1.2,2.8-1.7,3-3.5C244.7,212.8,246.5,212.7,248.4,212.6z"/>
	<path fill="#FCFCFC" d="M239.8,218.3c2,1.2,4,2.4,6,3.6c-4.6,5.4-5.2,5.4-13.6,1.2c-0.1-0.9-3-1.6-0.7-2.6
		C234.1,219.3,236.6,217,239.8,218.3z"/>
	<path fill="#FDFDFD" d="M241.7,227.8c3.7-3,7.3-6,12.1-1.6c1.4,1.3,1.8,1.7-0.1,3.3c-4.5,3.9-8.1,0.9-12-0.8
		C241.7,228.4,241.7,228.1,241.7,227.8z"/>
	<path fill="#FAFBFB" d="M319.5,225c1,1.9,2.8,2.5,4.7,2.8c-2,2.2-8.3,1.6-8.7-1.1C315,223.3,318.2,225.7,319.5,225z"/>
	<path fill="#FDFDFD" d="M258.8,207c2.5,1.6,5.1,3.2,7.6,4.7c0.7,1.7,5,1.2,2.8,4.7c-5,3.1-9.4,1.1-13.6-1.8c-1.7-1.1-3.5-2-5.3-2.9
		C251.7,207.6,255.1,207,258.8,207z"/>
	<path fill="#FDFDFD" d="M267.3,201.2c2.1,1.3,4.2,2.7,6.4,3.9c2.2,1.2,1.6,2.2-0.1,3.3c-2.9,1.9-5.8,2.9-9,0.4
		c-1.7-1.3-3.5-2.8-5.8-3c1.7-2.3,4.2-3.4,6.6-4.7C266.1,201.2,266.7,201.2,267.3,201.2z"/>
	<path fill="#FCFDFD" d="M351.8,245.8c-3.1,1.6-5.2-0.8-7.6-1.9C346.9,241,348.8,241.5,351.8,245.8z"/>
</g>
</svg>
