<svg xmlns="http://www.w3.org/2000/svg" xmlns:xlink="http://www.w3.org/1999/xlink" viewBox="0 0 820.51 742.47"><defs><style>.cls-1{fill:none;}.cls-2{fill:#eff1fc;}.cls-3{fill:#cacaf8;}.cls-4{fill:#d8d8fa;}.cls-5{fill:#54618e;}.cls-6{fill:#a6a6f4;}.cls-7{fill:#b7c4ee;}.cls-8{fill:#f0f0fd;}.cls-9{fill:#6d87dd;}.cls-10{fill:#2c2982;}.cls-11{fill:#1c1453;}.cls-12{fill:#0f0b2d;}.cls-13{fill:#2b1e7d;}.cls-14{fill:#402cbc;}.cls-15{fill:#ff301b;}.cls-16{fill:#cb1300;}.cls-17{fill:#e8a476;}.cls-18{fill:#e59763;}.cls-19{fill:#f2b387;}.cls-20{fill:#b73102;}.cls-21{fill:#f0b184;}.cls-22{fill:#dbdbfa;}.cls-23{fill:#9eb0de;}.cls-24{fill:#5877c6;}.cls-25{fill:#f29768;}.cls-26{clip-path:url(#clip-path);}.cls-27{fill:#f3f3fd;}.cls-28{fill:#7e00d1;}.cls-29{fill:#9901ff;}.cls-30{fill:#cb7cff;}.cls-31{fill:#7d00d1;}.cls-32{fill:#4b007d;}.cls-33{fill:#c74703;}.cls-34{fill:#a03902;}.cls-35{fill:#fd8c50;}.cls-36{fill:#fc6b1f;}.cls-37{fill:#fc6b1e;}.cls-38{fill:#fda474;}.cls-39{fill:#1c1a53;}.cls-40{fill:#bb008a;}.cls-41{fill:#990071;}.cls-42{fill:#ff00bc;}.cls-43{fill:#1588a1;}.cls-44{fill:#19a1be;}.cls-45{fill:#00dfff;}.cls-46{fill:#ffde84;}.cls-47{fill:#ffd155;}.cls-48{fill:#fb0;}</style><clipPath id="clip-path"><path class="cls-1" d="M564.56,320a1.66,1.66,0,0,0-1.64.17L478.37,369a4.92,4.92,0,0,0-2.23,3.94l1.56,68.33a1.62,1.62,0,0,0,.71,1.46h0l.11.06,2.32,1.13L481,442l83.62-48.23a4.9,4.9,0,0,0,2.23-3.94l-1.54-67.33,1.59-1.32L564.56,320Z"/></clipPath></defs><title>Asset 2</title><g id="Layer_2" data-name="Layer 2"><g id="Layer_1-2" data-name="Layer 1"><path class="cls-2" d="M15.19,588c-18.36,10.54-20.36,26.49-4.46,35.61L207.2,736.31c15.9,9.13,43.71,8,62.06-2.55L681.68,497.11C700,486.58,702,470.62,686.13,461.5L489.66,348.76c-15.9-9.12-43.7-8-62.06,2.55L15.19,588Z"/><path class="cls-3" d="M668.75,413.49,486.32,308.81c-15.79-9.05-43.4-7.92-61.63,2.55L20.14,543.49,0,531.94V566.4H0c0,5.75,3.5,11.25,10.66,15.36l195.12,112c15.79,9.06,43.41,7.93,61.64-2.53l409.6-235c9.94-5.71,15.05-13,15.08-20h0v-36.1Z"/><path class="cls-4" d="M223.94,699.33v-51.7L31.3,537.09,20.14,543.5,0,531.94V566.4c0,5.76,3.51,11.26,10.66,15.36l195.13,112A48.66,48.66,0,0,0,223.94,699.33Z"/><g id="speaker-02"><path class="cls-5" d="M183,664c0,1.22-1,1.64-2.23.93a4.58,4.58,0,0,1-2.23-3.5c0-1.22,1-1.64,2.23-.93A4.58,4.58,0,0,1,183,664Z"/><path class="cls-5" d="M150.88,645.56c0,1.23-1,1.65-2.23.94a4.62,4.62,0,0,1-2.23-3.5c0-1.23,1-1.64,2.23-.94A4.62,4.62,0,0,1,150.88,645.56Z"/><path class="cls-5" d="M172.27,657.84c0,1.23-1,1.65-2.23.94a4.62,4.62,0,0,1-2.23-3.5c0-1.22,1-1.64,2.23-.94A4.62,4.62,0,0,1,172.27,657.84Z"/><path class="cls-5" d="M161.58,651.7c0,1.22-1,1.64-2.24.93a4.6,4.6,0,0,1-2.23-3.5c0-1.22,1-1.64,2.23-.93A4.57,4.57,0,0,1,161.58,651.7Z"/></g><g id="speaker-021"><path class="cls-5" d="M68.07,598.6c0,1.23-1,1.65-2.23.94A4.61,4.61,0,0,1,63.6,596c0-1.22,1-1.64,2.24-.94A4.62,4.62,0,0,1,68.07,598.6Z"/><path class="cls-5" d="M36,580.19c0,1.22-1,1.64-2.24.93a4.58,4.58,0,0,1-2.23-3.49c0-1.23,1-1.65,2.23-.94A4.57,4.57,0,0,1,36,580.19Z"/><path class="cls-5" d="M57.38,592.47c0,1.22-1,1.64-2.24.94a4.62,4.62,0,0,1-2.23-3.5c0-1.23,1-1.65,2.23-.94A4.59,4.59,0,0,1,57.38,592.47Z"/><path class="cls-5" d="M46.68,586.33c0,1.23-1,1.65-2.23.94a4.6,4.6,0,0,1-2.23-3.5c0-1.22,1-1.65,2.23-.94A4.62,4.62,0,0,1,46.68,586.33Z"/></g><g id="charger-dock"><path class="cls-6" d="M119.87,633.22c2.45,1.4,4.44-.09,4.44-3.34a11.17,11.17,0,0,0-2-6,7.83,7.83,0,0,0-2.49-2.42L93.16,606.13c-2.45-1.41-4.44.08-4.44,3.33s2,7,4.44,8.42Z"/><path class="cls-5" d="M91,605.64A9.78,9.78,0,0,0,95.21,613l25.54,14.65a2.65,2.65,0,0,0,3.25,0,11.77,11.77,0,0,0-1.65-3.68,7.94,7.94,0,0,0-2.48-2.43L93.15,606.13A3.25,3.25,0,0,0,91,605.64Z"/></g><path class="cls-7" d="M427.53,272.63c15.92-9.14,40.05-10.13,53.83-2.22L677.71,383.08c13.79,7.91,12.06,21.75-3.86,30.89L264.58,648.81c-15.92,9.14-40,10.13-53.83,2.22L14.4,538.36c-13.79-7.91-12-21.75,3.87-30.89Z"/><path class="cls-8" d="M486.32,273.26l195.13,112c15.79,9.06,13.8,24.91-4.43,35.37l-409.59,235c-18.24,10.46-45.85,11.6-61.64,2.54L10.66,546.2c-13.86-8-14-21.14-1.52-31.32C2.42,523,4,532.4,14.4,538.37L210.75,651c13.78,7.91,37.91,6.92,53.83-2.22L673.84,414c15.92-9.14,17.66-23,3.87-30.89L486.32,273.26Z"/><path class="cls-9" d="M668.22,391.63,469.43,277.56c-7.21-4.14-19.77-3.65-28,1.09h0L27.53,516.23c-8.26,4.74-9.11,11.95-1.9,16.09l199,113.74c7.21,4.14,19.77,3.65,28-1.09L666.32,407.71C674.58,403,675.43,395.77,668.22,391.63Z"/><path class="cls-10" d="M661,396.22,467.16,285c-7-4-19.33-3.53-27.44,1.13h0L33,519.64c-8.12,4.66-9,11.72-2,15.75L225,646.27c7,4,19.32,3.53,27.44-1.13L659,412C667.1,407.31,668,400.26,661,396.22Z"/><path class="cls-10" d="M661,396.22,467.16,285c-7-4-19.33-3.53-27.44,1.13h0L33,519.64c-8.12,4.66-9,11.72-2,15.75L225,646.27c7,4,19.32,3.53,27.44-1.13L659,412C667.1,407.31,668,400.26,661,396.22Z"/><path class="cls-11" d="M379,179.5c8.2-11.21,20.4,3.21,34.11-9.39,10.24-9.41,1.25,86.25-12.56,84.34s-26.77,75.83-34.12,64c-45.69-73.34,1.73-124.18,12.57-139Z"/><path class="cls-12" d="M373.37,229.64c9.6-21,24.18-13.86,27.18-42.65,1.28-12.38,13.52,23.25,21.9,28,12.11,6.89-28.91,63-42.75,64.74-15,1.87-29.13-.12-6.33-50.1Z"/><path class="cls-13" d="M565.58,596.42s-9.21,14.11-7.39,25.09c5.47,33.06,11.78,41,11.45,54-.24,9.12-37.72-31.35-52.24-52.06-3.65-5.19-1.37-16.61,12.88-31.23,0,0,22.67,8.09,35.3,4.21Z"/><path class="cls-14" d="M548.67,613.35s4.08,15.53,10.27,25.48c6.7,10.75,17.88,31.42,32.54,50.72,7.63,10.05-12.73,16.06-31.88,5.58-7.7-4.21-7.46-19.92-20.31-26.7-33.66-17.76-17.6-21.17-20.3-35.9,0,0,21.78-7.84,29.68-19.18Z"/><path class="cls-13" d="M548.67,613.35s4.35,15.37,10.27,25.48c-6.48,10.29-29.18,11.25-39.69-1.89a19.1,19.1,0,0,0-.26-4.41s21.78-7.84,29.68-19.18Z"/><path class="cls-12" d="M463.39,372.18s116.78,65.05,123.85,85.57c4.75,13.77-5.46,48.13-11.51,78.66-6.85,34.6-10,64.84-10,64.84s-15,12.11-31.34,3.91c-5-2.54,6.46-105.24,8.93-113.65,0,0-86.05-40.3-108.07-60.38s28.13-58.95,28.13-58.95Z"/><path class="cls-11" d="M364,392.64s-18.57,41.76,30.87,67.13c52.49,26.93,108,59.51,108,59.51s-1.43,32.9,2.69,52.86c5.57,26.92,13.77,62,13.77,62s22.51,9.06,35.18-3.22c0,0,1.2-129.3-14.08-143.87s-91.73-72.35-91.73-72.35l14.66-42.53L364,392.64Z"/><path class="cls-12" d="M394.84,459.34c52.55,27.15,108.14,60,108.14,60s-1.44,33.16,2.69,53.28c5.57,27.13,13.69,61.55,13.69,61.55a24,24,0,0,0,9.55,2.54c-7.79-35-11.24-112.86-14.82-127.18-4.43-17.76-59.86-36.76-99.26-57.58s-26.23-50.1-26.23-50.13l-24.1-10.23s-19.17,42.21,30.34,67.77Z"/><path class="cls-11" d="M565.75,601.24s3.83-34.09,10.64-68.14c6.19-30.94,15.68-61.36,10.85-75.36-7.06-20.52-123.85-85.56-123.85-85.56S448.69,385,448.73,414.7c25-.55,72.18,18,105.84,42.78,27.62,20.36-5.89,29.78,0,149.32a16.86,16.86,0,0,0,11.18-5.56Z"/><path class="cls-11" d="M457.37,160.11s-17.26,55.52-6.16,55.64c-14,14.32,11.3,77.54,17.73,69.69,23.87-29.16-7.45-60.08-3.21-80,1.88-8.88,9-19.29,5.82-40.85C469.1,147.86,446.12,123,409.39,136l48,24.13Z"/><path class="cls-15" d="M460.84,224.8c8.05.18,14.67,20.62,11.27,41.45s-10.92,66.12-10.92,66.12S513.41,356,519,359.69c0,0-11.81,3.33-10.59,15.08,0,0-63.15-7.48-72.34-24.07S427.94,223.93,460.84,224.8Z"/><path class="cls-16" d="M460.84,224.8c8.05.18,14.67,20.62,11.27,41.45s-10.92,66.12-10.92,66.12l7.71,3.51A48.82,48.82,0,0,0,465.32,352c-.29,7.68,3.87,15.35,3.87,15.35-14.83-3.9-29.13-9.41-33.14-16.65-9.23-16.59-8.11-126.77,24.79-125.9Z"/><path class="cls-15" d="M360.11,255s9.35-11.91,35.52-20.74c10.7-3.62,22.78-11.81,39.6-13.38a52.31,52.31,0,0,1,27.69,4.57s1.7,34.43,7.32,52.18c10.65,33.68-7.86,28.59-10.37,64.65-.69,10-.84,21.26-1.42,38.66-.73,22.17-52.31,37.33-93.74,27.48-5.08-1.21-15.56-11.12-11.91-29.37,3.83-19.17,5.82-37.84,3.28-72.13-1.67-22.57-5.12-40.25,4-51.92Z"/><path class="cls-16" d="M459.09,359.78c-.18,6-.36,12.89-.63,21.14-.74,22.16-52.32,37.33-93.75,27.47-5.08-1.21-15.56-11.12-11.91-29.37,3.14-15.7,5.05-31.08,4.23-55,.52.25,1,.51,1.49.77,3.83,2.18,22.68-62.48,25.56-59.17,10.63,12.27,17.18,22.44,24,33.62,14.53,23.69-13.35,42.57,3.54,55.67,10.61,8.25,44.06,18.22,47.44,4.85Z"/><path class="cls-17" d="M447.1,228.43s8.69,12-2.06,19.45c-11.5,8-49.4-13.65-49.4-13.65s19.09-11.32,14.71-43.34c0,0,25.22,24.52,31.34,30.78a80.49,80.49,0,0,1,5.41,6.77Z"/><path class="cls-18" d="M455.84,214.8S447.8,242,433,241.22c-12.35-.64-23.82-12.22-26.87-19.31l2.76-6.85c3.41-8.44,3.83-15.38,2.06-28.39Z"/><path class="cls-19" d="M467.24,175.44c3.63,33.41-15.79,57.68-32.24,56.26-11.91-1-31.11-14.3-33-44S464.89,153.87,467.24,175.44Z"/><path class="cls-17" d="M467.56,187.7a25.24,25.24,0,0,1-.46,4.89c-9.47,10.63-49,2.58-51.14,1.15-.72-.48-2.26-.8-2.69-1.56s-.12-2.54.05-3.6c.94-6.06,7.46-8.85,12.72-10.1,4.31-1,9.51-.14,13.95-.47,8.27-.62,16.55,1.45,24.77,1,1.14-.07,2.8,7.42,2.8,8.7Z"/><path class="cls-17" d="M448.14,195c.28,0,1.89,18,1.55,18.38-1.52,1.69-7.89-1-8.22-1.55C441.35,211.58,444.57,195.21,448.14,195Z"/><path class="cls-11" d="M472.34,184.78c-.14,1.81-7.45,4.55-20.22,5.87-.32,0-.91-11.94-1.24-11.9s-.29,12.05-.58,12.07l-2.41.2c-.6,0-.4-14.21-1-14.18s-1.86,14.35-2.4,14.38a186.88,186.88,0,0,1-23.38-.44c-1.73-.14-3.54,3.6-6,5.85-2.18,2-9.11-11.65-12.45-11.88,0,0-22,19.79-26.71,4.75-2.52-8.05,13.43-19.33,16.42-31,4.18-16.32,21.72-31.63,45.09-27.57C451.05,133.31,475.56,144.37,472.34,184.78Z"/><path class="cls-19" d="M414.56,196.11s-.59-14.53-9.44-12.54c-2.82.62-6.22,2.68-4.38,10.55s7.73,16.25,14,17.14l-.2-15.15Z"/><path class="cls-17" d="M404.21,188.17a13,13,0,0,1,.69-2.41c2.18-1.94,4.89,1.77,5.86,3.44a16.13,16.13,0,0,1,1.95,5.18c.23,1.47-.21,3-.27,4.42a9.62,9.62,0,0,1-.22,2.88c-.42,1.08-1,.65-1.4-.19-.63-1.46-.3-2.93-.5-4.47a4.39,4.39,0,0,0-.45-1.48,6.06,6.06,0,0,0-1.79-2.06c-1.06-.39-3.34-1-3.84-2.28A4.41,4.41,0,0,1,404,190a17,17,0,0,1,.21-1.83Z"/><path class="cls-20" d="M453,369.21c-3.11,0-6.2,4.61-7.18,7.43-2.06,5.94.15,9,.15,9s5.29-1.83,7-6.43C454,376.46,456.08,369.21,453,369.21Z"/><path class="cls-15" d="M360.11,255c4.4-6.71,29.72-2.23,28.36,36-.76,21.11-2.64,63.32-2.64,63.32s54.7,17.11,60.72,20.08c0,0-12.07,3.75-9.43,15.26,0,0-35.35.27-58-5.68-7.36-1.93-13.27-4.63-16-8.38-11.17-15.35-23.59-89.1-3-120.56Z"/><path class="cls-21" d="M522.49,344.86s22.91,6.78,32,19c4.06,5.49-.6,9.3-6,9s-14.41-3.21-22.67-8.28-8.95-2.87-11.68-3.36C512.53,358,513.15,347.48,522.49,344.86Z"/><path class="cls-22" d="M561.94,397.41a1.23,1.23,0,0,1-.73,1.13l-80.1,46a4.76,4.76,0,0,1-4.26-.17l-53.22-30.54a1.72,1.72,0,0,1-1-1.44h0v-3l2,1.16v.05l78.82-45.22a4.74,4.74,0,0,1,4.25.17l52.31,30,2-1.13v3Z"/><path class="cls-3" d="M425.83,409.91l50.48,29V444l-52.68-30.23a1.72,1.72,0,0,1-1-1.43v-3l2,1.16v.05l1.22-.7Z"/><path class="cls-8" d="M477,441.44a4.25,4.25,0,0,0,3.81.16l80.51-46.2c1-.56.85-1.54-.28-2.19l-53.44-30.66a4.27,4.27,0,0,0-3.82-.17l-80.51,46.21c-1,.56-.85,1.53.28,2.18Z"/><path class="cls-7" d="M477.2,440.81A4.25,4.25,0,0,0,481,441l79.88-45.84c1-.56.84-1.53-.28-2.17l-53-30.43a4.25,4.25,0,0,0-3.78-.16L423.9,408.21c-1,.56-.85,1.53.27,2.17Z"/><path class="cls-23" d="M509.44,376.09a2.46,2.46,0,0,0-2.19-.1l-63,36.14c-.56.32-.49.88.16,1.26L475.1,431a2.43,2.43,0,0,0,2.19.1l63-36.13c.56-.33.49-.89-.15-1.26Z"/><path class="cls-24" d="M518.57,404.22l-3.6-2.06,3.85-2.21,3.6,2.06Z"/><path class="cls-24" d="M506.78,397.46l-3.59-2.06,3.85-2.21,3.6,2.07Z"/><path class="cls-24" d="M512.7,400.86l-3.6-2.06,3.85-2.21,3.6,2.06Z"/><path class="cls-24" d="M500.93,394.11l-3.6-2.07,3.85-2.21,3.6,2.07Z"/><path class="cls-24" d="M494.8,390.59l-3.59-2.07,3.85-2.2,3.59,2.06Z"/><path class="cls-24" d="M494.45,418.07l-3.6-2.07,3.85-2.21,3.6,2.07Z"/><path class="cls-24" d="M482.67,411.31l-3.6-2.06,3.85-2.21,3.6,2.06-3.85,2.21Z"/><path class="cls-24" d="M488.58,414.7l-3.6-2.06,3.86-2.21,3.59,2.07-3.85,2.2Z"/><path class="cls-24" d="M476.8,407.94l-3.6-2.07,3.85-2.21,3.6,2.07Z"/><path class="cls-24" d="M470.67,404.43l-3.59-2.06,21.43-12.3,3.6,2.06-21.44,12.3Z"/><path class="cls-24" d="M482.3,425,478.71,423l3.85-2.21,3.59,2.06Z"/><path class="cls-24" d="M470.52,418.26l-3.6-2.06,3.85-2.21,3.6,2.07Z"/><path class="cls-24" d="M476.45,421.67l-3.6-2.06,3.85-2.21,3.59,2.06Z"/><path class="cls-24" d="M464.66,414.91l-3.6-2.07,3.86-2.21,3.59,2.07-3.85,2.21Z"/><path class="cls-24" d="M458.54,411.4l-3.6-2.07,3.85-2.2,3.6,2.06Z"/><path class="cls-24" d="M530.53,397.37l-3.6-2.07,3.85-2.21,3.6,2.07Z"/><path class="cls-24" d="M518.74,390.6l-3.59-2.07,3.85-2.2,3.59,2.06Z"/><path class="cls-24" d="M524.65,394l-3.59-2.06,3.85-2.21,3.6,2.06Z"/><path class="cls-24" d="M512.88,387.24l-3.6-2.06,3.85-2.21,3.59,2.06Z"/><path class="cls-24" d="M506.75,383.73l-3.6-2.06,3.86-2.21,3.59,2.06Z"/><path class="cls-24" d="M506.41,411.2l-3.6-2.07,3.85-2.21,3.6,2.07Z"/><path class="cls-24" d="M494.62,404.44,491,402.38l3.85-2.21,3.6,2.06Z"/><path class="cls-24" d="M500.54,407.84l-3.6-2.06,3.85-2.21,3.6,2.06-3.85,2.21Z"/><path class="cls-24" d="M488.76,401.08l-3.6-2.06,3.85-2.21,3.6,2.06-3.85,2.21Z"/><path class="cls-24" d="M476.31,428.47l-3.59-2.06,3.84-2.21,3.6,2.06Z"/><path class="cls-24" d="M464.53,421.72l-3.6-2.07,3.85-2.21,3.6,2.07Z"/><path class="cls-24" d="M470.44,425.11l-3.59-2.06,3.85-2.21,3.59,2.06Z"/><path class="cls-24" d="M458.67,418.35l-3.6-2.06,3.86-2.21,3.59,2.06Z"/><path class="cls-24" d="M452.55,414.84l-3.6-2.07,3.85-2.21,3.6,2.07-3.85,2.21Z"/><path class="cls-24" d="M524.52,400.8l-3.59-2.06,3.85-2.21,3.59,2.06Z"/><path class="cls-24" d="M512.74,394.05,509.15,392l3.85-2.21,3.59,2.06Z"/><path class="cls-24" d="M518.67,397.44l-3.6-2.06,3.85-2.21,3.6,2.07Z"/><path class="cls-24" d="M506.88,390.67l-3.59-2.06,3.85-2.21,3.59,2.07Z"/><path class="cls-24" d="M500.76,387.17l-3.59-2.06L501,382.9l3.59,2.06Z"/><path class="cls-24" d="M500.41,414.64l-3.6-2.06,3.85-2.21,3.59,2.06Z"/><path class="cls-24" d="M488.63,407.88l-3.6-2.06,3.85-2.21,3.6,2.06Z"/><path class="cls-24" d="M494.55,411.28l-3.6-2.07L494.8,407l3.6,2.07Z"/><path class="cls-24" d="M482.76,404.52l-3.59-2.06,3.85-2.21,3.6,2.06-3.86,2.21Z"/><path class="cls-24" d="M488.27,421.61l-3.59-2.06,3.84-2.21,3.6,2.06Z"/><path class="cls-24" d="M476.49,414.85l-3.6-2.06,3.85-2.21,3.6,2.06Z"/><path class="cls-24" d="M482.4,418.24l-3.59-2.06,3.85-2.21,3.59,2.06Z"/><path class="cls-24" d="M470.62,411.49l-3.6-2.07,3.85-2.21,3.6,2.07Z"/><path class="cls-24" d="M464.5,408l-3.6-2.06,3.85-2.21,3.59,2.06Z"/><path class="cls-24" d="M512.37,407.78l-3.6-2.06,3.85-2.21,3.59,2.06Z"/><path class="cls-24" d="M500.58,401,497,399l3.85-2.21,3.59,2.07Z"/><path class="cls-24" d="M506.5,404.42l-3.6-2.06,3.85-2.21,3.6,2.06Z"/><path class="cls-24" d="M494.72,397.67l-3.59-2.07,3.85-2.21,3.59,2.07Z"/><path class="cls-21" d="M445.49,374.37a185.74,185.74,0,0,1,20.06,9c15.48,8.56,16.95,14.79,18.79,21.36s-11,14.74-14.47,10.56c-13.79-16.74-15-8.51-22.12-15.1s-6.44-10.71-9-11.7c-.4-.15-1.11-.15-1.34-.67-.67-3.06.73-10.56,8.07-13.44Z"/><path class="cls-25" d="M445.49,374.37s2.17.83,5.3,2.11c-5.16,1.52-9.84,7.07-9.94,14.4-.71-1.17-1.13-2-2.09-2.4-.4-.15-1.11-.15-1.34-.67C436.75,384.75,438.15,377.25,445.49,374.37Z"/><path class="cls-22" d="M564.56,320a1.66,1.66,0,0,0-1.64.17L478.37,369a4.92,4.92,0,0,0-2.23,3.94l1.56,68.33a1.62,1.62,0,0,0,.71,1.46h0l.11.06,2.32,1.13L481,442l83.62-48.23a4.9,4.9,0,0,0,2.23-3.94l-1.54-67.33,1.59-1.32L564.56,320Z"/><g class="cls-26"><path class="cls-3" d="M475.68,374.15l3.76,1.35,1.39,68.35-3.76-1.35Z"/><path class="cls-3" d="M476.17,374.32l1.52,66.91a1.62,1.62,0,0,0,.71,1.46l2.19,1.08.24.08-1.39-68.35-3.27-1.18Z"/><path class="cls-27" d="M478.56,374.09a4.61,4.61,0,0,1,1.93-3.76l85.15-49.11c1.1-.63,2,0,2.05,1.47L569.25,391a4.57,4.57,0,0,1-1.93,3.76l-85.15,49.1c-1.1.63-2,0-2-1.47Z"/><path class="cls-7" d="M479.36,374.26a4.58,4.58,0,0,1,1.91-3.73l84.4-48.68c1.09-.62,2,0,2,1.46L569.25,391a4.51,4.51,0,0,1-1.91,3.73l-84.4,48.67c-1.09.63-2,0-2-1.45Z"/><path class="cls-24" d="M522.4,386.86a3.53,3.53,0,0,0,1.53-3,1,1,0,0,0-1.57-.82,3.08,3.08,0,0,0-1.1,1.11c-.15.24-.37.26-.38,0l-.16-4.26,3.7-2.31c.24-.15.36-.56.19-.67a1.15,1.15,0,0,1-.42-1,3.49,3.49,0,0,1,1.41-2.64c.87-.59,1.63-.22,1.67.79a3,3,0,0,1-.34,1.42c-.14.31,0,.55.25.4l3.69-2.3.43,10.85a1.67,1.67,0,0,1-.78,1.46l-9.34,5.81-.17-4.26c0-.22.21-.47.35-.42A1.28,1.28,0,0,0,522.4,386.86Z"/></g><path class="cls-28" d="M223.93,197.09l-2-15.16,18-10.33-28-12.12-.61-.25q-8-3-20.15,3.92l-15.75,9,2.45,18.66,20.37,8.81L201,220.91q.67,5.15,3.08,7.68a11.12,11.12,0,0,0,4.12,2.84h0L216.4,235l-.09.09a36.91,36.91,0,0,0-5.42,6.74,34.09,34.09,0,0,0-3.9,8.83,26.24,26.24,0,0,0-.65,10.78l3.8,29a20.53,20.53,0,0,1-.67,8.22q-1.2,4.31-6.77,7.51l-9,5.18,2.45,18.65L224,342l-1.88-14.28L234.34,333l16.76-95.84-12.65-5.48a30.66,30.66,0,0,1,3.56-2.38l-.16-1.22,8.3,3.59,17.17-9.85L244,211.73,240,214l-.56-4.29a25.92,25.92,0,0,1-4.68,2.11,10.38,10.38,0,0,1-3.47.58l-1.69-12.89-5.67-2.46Z"/><path class="cls-29" d="M175.4,172.2l27.88,12.07,2.45,18.65-27.88-12.07Z"/><path class="cls-29" d="M193.67,311.27l27.88,12.06L224,342l-27.88-12.07Z"/><path class="cls-30" d="M239.76,332.94a47,47,0,0,0,18.29-18.14,37,37,0,0,0,4.59-23.26l-3.9-29.66a19.34,19.34,0,0,1,.28-7.32,18.11,18.11,0,0,1,2.46-5.71,19.73,19.73,0,0,1,3.87-4.32,31.7,31.7,0,0,1,4.54-3.18l-2.56-19.54a26.07,26.07,0,0,1-4.69,2.12,9.62,9.62,0,0,1-4.37.5,5.43,5.43,0,0,1-3.49-2.1,11.12,11.12,0,0,1-2-5.56l-4-30.37q-1.59-12.08-9.63-15.1t-20.15,3.92l-15.76,9,2.45,18.65,9-5.18q5.58-3.21,7.65-.76a11.94,11.94,0,0,1,2.59,6.34l3.9,29.66c.45,3.43,1.47,6,3.07,7.69a10.8,10.8,0,0,0,5.49,3.25,16.6,16.6,0,0,0,6.33.19,19.66,19.66,0,0,0,5.57-1.67l0,.36a37.05,37.05,0,0,0-5.21,4.33,35.76,35.76,0,0,0-5.42,6.74,33.69,33.69,0,0,0-3.9,8.82,26.12,26.12,0,0,0-.65,10.79l3.8,28.94a20.71,20.71,0,0,1-.68,8.22q-1.18,4.32-6.76,7.51l-9,5.19L224,342l15.75-9Z"/><path class="cls-28" d="M100.42,325.31l3.81,29.07q1.59,12.08,9.64,15.1l.4.14,27,11.69-2.44-18.53,7.14-4.1,7.93,3.44,21.28-12.21-26.53-11.49L144.8,309l-21.44-9.28,3.78,28.84-.27-.12-2.62-19.93a18.7,18.7,0,0,0-2.22-7.25l18.41-80.92,16.5-9.47-27.88-12.06h0l-15.76,9-.75.44A46.76,46.76,0,0,0,95,226a37.1,37.1,0,0,0-4.6,23.26l4,30.37a17.76,17.76,0,0,1-.33,6.88A17.35,17.35,0,0,1,91.6,292a21.16,21.16,0,0,1-3.89,4.24,32.43,32.43,0,0,1-4.54,3.17L85.74,319l14.68,6.35Z"/><path class="cls-29" d="M83.19,299.54l27.88,12.07L113.62,331,85.74,319Z"/><path class="cls-30" d="M113.62,331a26.64,26.64,0,0,1,4.68-2.11,8.83,8.83,0,0,1,4.39-.41,5.7,5.7,0,0,1,3.5,2.28,12.5,12.5,0,0,1,2,6l3.9,29.66q1.57,12.07,9.63,15.1t20.14-3.92l15.76-9-2.45-18.65-9,5.18q-5.56,3.21-7.65.76a11.94,11.94,0,0,1-2.59-6.34l-3.8-28.95c-.51-3.91-1.58-6.77-3.19-8.58a10.5,10.5,0,0,0-5.52-3.42,14.25,14.25,0,0,0-6.3,0,24.39,24.39,0,0,0-5.55,1.84l0-.35a32.73,32.73,0,0,0,5.19-4.52,43.08,43.08,0,0,0,5.4-6.91A35.12,35.12,0,0,0,146,290a23.1,23.1,0,0,0,.77-9.89l-3.89-29.67a20.49,20.49,0,0,1,.67-8.21q1.2-4.32,6.77-7.51l9-5.19-2.45-18.65-15.76,9A46.93,46.93,0,0,0,122.9,238a37,37,0,0,0-4.59,23.26l4,30.37a17.76,17.76,0,0,1-.33,6.88,17.35,17.35,0,0,1-2.48,5.53,21.33,21.33,0,0,1-3.88,4.23,32.34,32.34,0,0,1-4.55,3.18L113.62,331Z"/><path class="cls-31" d="M339.05,151.38l-14.85-7.94-4.72-13.7,14.85,7.94Z"/><path class="cls-32" d="M316.87,96.93c.36.07.72.12,1.08.16s.64,0,1,0,.57,0,.86,0,.54,0,.81-.08.53-.08.79-.14.49-.1.74-.16.49-.13.73-.21l.71-.24.7-.28.7-.31.7-.35.71-.39.54-.33.16-.1.72-.48c.24-.16.47-.34.71-.52s.48-.36.72-.56.49-.4.72-.62.49-.43.73-.66.48-.47.72-.71.48-.49.71-.75.45-.5.67-.76l.65-.79c.2-.26.41-.52.6-.79s.41-.55.6-.83l.59-.87c.23-.35.45-.7.67-1.07.33-.54.64-1.09.94-1.65.38-.71.74-1.44,1.07-2.17.24-.53.46-1.06.68-1.61.15-.36.29-.73.42-1.1s.23-.64.34-1l.28-.88c.09-.29.17-.59.25-.88s.16-.59.24-.89.15-.6.21-.9.14-.62.2-.93.12-.63.17-1,.11-.64.15-1,.09-.65.13-1l.09-1,.06-1c0-.31,0-.62,0-.93v-.92c0-.3,0-.6,0-.89s0-.6-.06-.9-.05-.59-.08-.89-.07-.55-.11-.83v-.05c0-.3-.08-.59-.14-.88s-.11-.58-.17-.86-.14-.6-.22-.89-.16-.58-.25-.87-.19-.61-.3-.9-.25-.63-.38-.93-.3-.65-.46-1-.38-.7-.59-1a12.25,12.25,0,0,0-.87-1.26,11.52,11.52,0,0,0-3.62-3.1l14.84,7.94a11.56,11.56,0,0,1,3.63,3.1c.3.39.59.82.87,1.26s.4.68.59,1,.31.63.45,1,.26.61.38.93.21.59.3.9.18.57.26.87l.21.88.18.86c.05.3.1.59.14.89v.05c0,.28.07.55.1.82s.06.6.08.89l.06.9c0,.29,0,.6,0,.89s0,.62,0,.93,0,.61,0,.92,0,.64-.06,1-.05.64-.09,1l-.12,1-.15,1c-.06.31-.11.63-.17,1s-.13.62-.2.93-.14.6-.22.9-.15.59-.23.89-.17.58-.26.87-.19.59-.28.89-.22.64-.34,1-.27.73-.42,1.09c-.21.55-.44,1.08-.68,1.61-.34.74-.69,1.46-1.07,2.18-.3.55-.61,1.11-.94,1.64-.22.37-.44.72-.67,1.07s-.39.59-.59.88-.39.56-.59.83-.41.53-.61.79-.43.53-.65.78-.44.52-.67.77-.46.5-.71.74-.47.49-.72.72-.48.44-.72.66-.48.42-.73.62l-.72.56c-.23.18-.47.35-.71.52l-.72.47-.16.11-.55.33-.7.38-.7.35-.69.32-.71.27-.71.24a6.09,6.09,0,0,1-.73.21c-.25.07-.49.12-.74.17s-.52.1-.78.13-.55.07-.82.09a8.23,8.23,0,0,1-.86,0c-.32,0-.64,0-1,0a9.36,9.36,0,0,1-1.08-.15,11.44,11.44,0,0,1-1.34-.35,11.23,11.23,0,0,1-1.59-.69l-14.85-7.94a11.08,11.08,0,0,0,1.59.69,9.11,9.11,0,0,0,1.34.35Z"/><path class="cls-31" d="M346.76,24.59c-.63.08-1.27.2-1.91.32l-1.45.33L328.56,17.3c.48-.12,1-.23,1.45-.32s1.27-.24,1.91-.32,1.32-.16,2-.21,1.37-.07,2-.07l1,0L347,0l14.7,7.72,14.84,7.93-14.7-7.72L351.74,24.34l-1,0c-.68,0-1.37,0-2,.08s-1.3.11-2,.2Z"/><path class="cls-31" d="M290.94,120.16a34.61,34.61,0,0,1-2.06-3c-.5-.83-1-1.69-1.45-2.59s-.78-1.59-1.15-2.42l-.11-.27L301,119.84l.12.27c.36.83.74,1.64,1.14,2.42s1,1.77,1.46,2.6a35.42,35.42,0,0,0,2,3l.19.23-5.16,17.74L286,138.13l5.16-17.73-.19-.24Z"/><path class="cls-31" d="M389.48,37.24,376,42l-14.84-7.94,13.49-4.76Z"/><path class="cls-31" d="M282.42,83.16c0-.53.1-1.06.16-1.59.08-.77.18-1.54.29-2.31s.23-1.56.36-2.34.27-1.57.43-2.36.32-1.56.5-2.34l.27-1.19L275.1,61.7l10.3-23.3,12.71,2.19c.42-.59.84-1.18,1.28-1.76s.95-1.26,1.43-1.87,1-1.28,1.57-1.9,1.11-1.29,1.67-1.91c.42-.46.84-.91,1.27-1.36l.42-18.36,17.66-11,14.85,7.93-17.67,11-.42,18.37c-.43.44-.85.89-1.27,1.35-.57.63-1.12,1.26-1.68,1.91s-1,1.26-1.55,1.9-1,1.24-1.44,1.88-.86,1.16-1.28,1.76l-12.71-2.19L290,69.63,299.28,79c-.1.39-.19.79-.28,1.18-.17.78-.34,1.56-.5,2.34s-.3,1.57-.43,2.36-.26,1.56-.36,2.35-.21,1.53-.29,2.31c-.06.53-.11,1.06-.16,1.59l-12.54,11.47,3.12,21.92L273,116.56l-3.11-21.93,12.53-11.47Z"/><path class="cls-30" d="M341.74,102.54c-9.37,5.85-18.32,1.17-20-10.47s4.62-25.81,14-31.66,18.31-1.14,20,10.48-4.6,25.81-14,31.65Zm-53.9,21.95L301,119.84a36.88,36.88,0,0,0,5,8.49l-5.16,17.73,14.69,7.72,9.35-15.19a29.73,29.73,0,0,0,9.48-.92l4.73,13.71,17.67-11,.38-16.89a76.14,76.14,0,0,0,8.19-10.1l11.78,2,10.29-23.3-8.94-8.93a81.84,81.84,0,0,0,1.92-12.79l12.25-11.2-3.11-21.93L376,42a35.66,35.66,0,0,0-4.85-7.85l5.37-18.5L361.82,7.93,351.74,24.34a29.86,29.86,0,0,0-8.33.9l-5.15-14.9-17.67,11-.42,18.36a76,76,0,0,0-7.21,8.8l-12.71-2.19L290,69.63,299.28,79a86,86,0,0,0-2,12.13l-12.53,11.47,3.11,21.93Z"/><path class="cls-33" d="M711.93,166.34l21.41,12.24.28,35.9L712.2,202.25Z"/><path class="cls-34" d="M711.93,166.34l21.41,12.24L780,129,758.61,116.8Z"/><path class="cls-33" d="M711.29,84l21.43,12.23L733,131.7l-21.42-12.23Z"/><path class="cls-35" d="M711.29,84l21.43,12.23,87.51-5.83L798.8,78.2Z"/><path class="cls-36" d="M733.63,214.48q21.79-23.78,43.43-47.35t43.45-47.34l-.23-29.34q-22,1.44-43.78,2.9t-43.78,2.9l.27,35.47q11.85-.45,23.52-1.35T780,129l-46.69,49.55.28,35.91Z"/><path class="cls-33" d="M675.53,243.32,697,255.58,643.7,115.2l-21.47-12.26Z"/><path class="cls-37" d="M723.77,229.61,670.65,89.13,643.7,115.2,697,255.58l26.77-26Z"/><path class="cls-35" d="M649.17,76.86l21.47,12.26L643.7,115.2l-21.47-12.26Z"/><path class="cls-34" d="M613.19,223.16l21.48,12.27-47,4.44-21.48-12.26Z"/><path class="cls-38" d="M525.73,235.47l21.42,12.23.23,29.43L526,264.9Z"/><path class="cls-35" d="M612.61,140.87l21.48,12.27L547.21,247.8l-21.48-12.26Z"/><path class="cls-36" d="M634,153.11,590.6,200.43Q569,224,547.16,247.75l.22,29.34q22-1.43,43.78-2.88L635,271.33l-.28-35.9-47,4.42q11.75-13.14,23.33-25.64t23.34-25.64L634,153.11Z"/><g id="keyboard-tuts"><path class="cls-39" d="M314.29,594.34c3.93,2.26,4.36,5.68,1,7.63l-53,30.39c-3.41,2-9.37,1.71-13.31-.55l-59.89-34.37c-3.94-2.25-4.36-5.67-1-7.63l53-30.39c3.41-1.95,9.37-1.71,13.3.55Z"/><path class="cls-39" d="M368.91,555.13c5.79,3.32,6.43,8.36,1.41,11.24L352.14,576.8c-5,2.88-13.79,2.52-19.59-.81l-154-88.38c-5.79-3.33-6.42-8.36-1.4-11.24l18.17-10.43c5-2.88,13.8-2.52,19.59.8l154,88.39Z"/><g id="camera-shell"><path class="cls-40" d="M173.75,457.54c-.09,2.26,1.53,4.66,4.78,6.52l154,88.39c5.79,3.32,14.57,3.68,19.58.8l18.18-10.43c2.38-1.36,3.5-3.22,3.38-5.14V523.79l-1,.56a11.13,11.13,0,0,0-3.8-3.34l-154-88.2c-5.8-3.33-14.57-3.69-19.59-.81l-18.18,10.43a7.8,7.8,0,0,0-2.31,1.93l-1.07-.62v13.8Z"/><path class="cls-41" d="M189.49,435.34l-12.36,7.09a7.93,7.93,0,0,0-2.31,1.92l-1.07-.61v13.8c-.09,2.26,1.54,4.66,4.79,6.52l154,88.38a22.4,22.4,0,0,0,9.79,2.72V523.05Z"/><path class="cls-42" d="M368.91,517.21c5.79,3.32,6.43,8.36,1.41,11.24l-18.18,10.43c-5,2.88-13.79,2.52-19.59-.81l-154-88.38c-5.79-3.32-6.42-8.36-1.4-11.24L195.3,428c5-2.88,13.8-2.52,19.59.81l154,88.38Z"/></g><g id="camera-shell1"><path class="cls-39" d="M222.81,541.08c3.94,2.26,4.36,5.68.95,7.63l-3.29,1.9c-3.41,1.95-9.37,1.71-13.3-.55L130.29,506c-3.94-2.26-4.37-5.68-1-7.64l3.3-1.89c3.41-2,9.37-1.71,13.3.55Z"/><path class="cls-39" d="M190.7,559.52c3.93,2.26,4.36,5.68,1,7.63l-3.3,1.89c-3.41,2-9.36,1.71-13.3-.54L98.17,524.38c-3.93-2.26-4.36-5.68-1-7.63l3.3-1.89c3.41-2,9.37-1.71,13.3.54Z"/><path class="cls-3" d="M127,490.26c-.06,1.54,1.05,3.17,3.25,4.44l76.88,44.11c3.94,2.26,9.89,2.5,13.3.55l3.3-1.89a3.87,3.87,0,0,0,2.3-3.5v-9.43l-.67.38a7.61,7.61,0,0,0-2.58-2.27l-76.87-44c-3.94-2.26-9.9-2.5-13.3-.55l-3.3,1.89a5.57,5.57,0,0,0-1.58,1.31l-.72-.41v9.36Z"/><path class="cls-4" d="M128.73,480.4a4.67,4.67,0,0,0-1,.91l-.72-.42v9.37c-.06,1.53,1,3.17,3.25,4.43l76.88,44.12a14.77,14.77,0,0,0,5.09,1.69V528.34L128.73,480.4Z"/><path class="cls-7" d="M222.81,520.07c3.94,2.26,4.36,5.68.95,7.63l-3.29,1.9c-3.41,1.95-9.37,1.7-13.3-.55l-76.88-44.12c-3.94-2.25-4.37-5.67-1-7.63l3.3-1.89c3.41-2,9.37-1.71,13.3.55Z"/></g><g id="camera-shell2"><path class="cls-43" d="M185.85,579.07c-.06,1.53,1,3.16,3.25,4.43L249,617.87c3.94,2.26,9.89,2.5,13.3.55l53-30.39c1.61-.93,2.37-2.19,2.29-3.49V575.1l-.66.39a7.54,7.54,0,0,0-2.59-2.27L254.41,539c-3.93-2.26-9.89-2.5-13.3-.55l-53,30.39a5.34,5.34,0,0,0-1.57,1.31l-.72-.42v9.37Z"/><path class="cls-44" d="M196,564.29l-7.87,4.52a5.26,5.26,0,0,0-1.58,1.31l-.72-.42v9.73c.11,1.43,1.21,2.9,3.24,4.07L249,617.87a15,15,0,0,0,6.14,1.81V598.21L196,564.29Z"/><path class="cls-45" d="M314.29,570.63c3.93,2.26,4.36,5.68,1,7.64l-53,30.39c-3.41,2-9.37,1.7-13.31-.55l-59.89-34.37c-3.94-2.26-4.36-5.68-1-7.63l53-30.39c3.41-2,9.37-1.71,13.3.55Z"/></g><g id="camera-shell3"><path class="cls-3" d="M96.66,507.69c-.06,1.54,1,3.17,3.25,4.43l76.88,44.12c3.93,2.26,9.89,2.5,13.3.54l3.3-1.89c1.62-.93,2.37-2.19,2.29-3.49V542l-.66.39a7.65,7.65,0,0,0-2.59-2.27l-76.86-44c-3.94-2.25-9.9-2.5-13.31-.54L99,497.43a5.5,5.5,0,0,0-1.57,1.31l-.72-.42v9.37Z"/><path class="cls-4" d="M98.36,497.83a4.42,4.42,0,0,0-1,.91l-.73-.42v9.37c-.06,1.53,1,3.16,3.26,4.43l76.87,44.12a14.82,14.82,0,0,0,5.1,1.69V545.76L98.36,497.83Z"/><path class="cls-7" d="M192.44,537.5c3.93,2.25,4.36,5.68.95,7.63l-3.3,1.89c-3.41,2-9.36,1.72-13.3-.54L99.91,502.36c-3.93-2.26-4.36-5.68-1-7.63l3.3-1.9c3.4-1.95,9.36-1.7,13.3.55Z"/></g><path class="cls-46" d="M173.75,443.16c-.09,2.26,1.53,4.66,4.78,6.53l73.54,42.2c5.8,3.32,14.57,3.68,19.59.8l18.18-10.43c2.38-1.36,3.49-3.22,3.38-5.15v-3.34l-1,.57a11.2,11.2,0,0,0-3.81-3.35l-73.52-42c-5.8-3.33-14.57-3.69-19.59-.81L177.14,438.6a7.8,7.8,0,0,0-2.31,1.93l-1.07-.62v3.25Z"/><path class="cls-47" d="M178.1,438.05l-1,.55a7.93,7.93,0,0,0-2.31,1.92l-1.07-.61v3.79c.17,2.1,1.78,4.27,4.78,6l73.54,42.2a22.45,22.45,0,0,0,9.79,2.71v-8.49L178.1,438.05Z"/><path class="cls-48" d="M288.43,467.1c5.79,3.32,6.42,8.36,1.4,11.24l-18.17,10.43c-5,2.88-13.8,2.52-19.59-.81l-73.54-42.19c-5.79-3.33-6.42-8.36-1.4-11.25L195.3,424.1c5-2.88,13.8-2.52,19.59.8Z"/></g></g></g></svg>