<svg xmlns="http://www.w3.org/2000/svg" viewBox="0 0 701.52 956.59"><defs><style>.cls-1{fill:#eff1fc;}.cls-2{fill:#dbdbfa;}.cls-3{fill:#cacaf8;}.cls-4{fill:#f0f0fd;}.cls-5{fill:#b8b8f6;}.cls-6{fill:#ccccf8;}.cls-7{fill:#b3b3f4;}.cls-8{fill:#eaeafc;}.cls-9{fill:#cfcff8;}.cls-10{fill:#c6c6f8;}.cls-11{fill:#211f61;}.cls-12{fill:#3835a5;}.cls-13{fill:#d3d3f9;}.cls-14{fill:#a333ff;}.cls-15{fill:#b2bcf1;}.cls-16{fill:#becaf1;}.cls-17{fill:#7200cf;}.cls-18{fill:#d2d7f6;}.cls-19{fill:#d6dbf7;}.cls-20{fill:#817edc;}.cls-21{fill:#fba7b9;}.cls-22{fill:#fa8ea5;}.cls-23{fill:#4c48ce;}.cls-24{fill:#ff5177;}.cls-25{fill:#c0e0ff;}.cls-26{fill:#db0937;}.cls-27{fill:#393b81;}.cls-28{fill:#4e51b1;}.cls-29{fill:#6eb8ff;}.cls-30{fill:#efb185;}.cls-31{fill:#dd9569;}.cls-32{fill:#e6a376;}.cls-33{fill:#f13d00;}.cls-34{fill:#ba1f00;}.cls-35{fill:#eca16d;}.cls-36{fill:#cb1300;}.cls-37{fill:#4f56ff;}.cls-38{fill:#402cbc;}.cls-39{fill:#2b1e7d;}.cls-40{fill:#ff301b;}.cls-41{fill:#414141;}.cls-42{fill:#292929;}</style></defs><title>Asset 9</title><g id="Layer_2" data-name="Layer 2"><g id="Layer_1-2" data-name="Layer 1"><path class="cls-1" d="M441.44,739.78A6,6,0,0,1,436,740L280.59,650.27c-1.39-.8-1.21-2.2.39-3.13l75.69-43.7a6,6,0,0,1,5.41-.22L517.52,693c1.38.8,1.21,2.2-.39,3.12Z"/><path class="cls-2" d="M285.5,638.69l71.08-41a6,6,0,0,1,5.41-.22l150.27,86.76,6.1-3.53v7.87h0a2.22,2.22,0,0,1-1.32,1.76L441.34,734a6,6,0,0,1-5.4.23L280.5,644.48a1.61,1.61,0,0,1-.94-1.36h0v-7.86Z"/><path class="cls-3" d="M518.36,680.86v7.66a2.23,2.23,0,0,1-1.32,1.77L441.34,734a6.15,6.15,0,0,1-2.7.75v-7.86Z"/><path class="cls-4" d="M441.33,726.13a6,6,0,0,1-5.41.22L280.49,636.61c-1.39-.8-1.21-2.2.39-3.12l75.69-43.7a6,6,0,0,1,5.41-.23l155.43,89.75c1.39.79,1.22,2.19-.38,3.12Z"/><path class="cls-5" d="M441.44,723.18a5.86,5.86,0,0,1-5.24.22L283.11,635c-1.34-.77-1.17-2.12.38-3l73.18-42.25a5.81,5.81,0,0,1,5.23-.22L515,677.91c1.34.77,1.17,2.12-.38,3l-73.17,42.25Z"/><path class="cls-6" d="M474.83,404.37l-73-42.14-11.46,6.62,73,42.13V665.67l11.46-6.61V404.37Z"/><path class="cls-7" d="M474.83,404.37l-73-42.14-11.46,6.62,73,42.13V600.51l11.46-6.61Z"/><path class="cls-8" d="M463.37,411l-73-42.14V623.54l73,42.14Z"/><path class="cls-9" d="M463.37,411l-73-42.14v189.6l73,42.14Z"/><path class="cls-8" d="M175.59,1.94c5-2.91,11.57-2.65,18.73,1.48L672.93,279.75c15.77,9.11,28.59,33.59,28.59,54.62v323c0,11.46-3.81,19.55-9.83,23.07h0l0,0,0,0,0,0-29.5,17-78-45,36.5-21.08L209.34,394c-15.78-9.11-28.58-33.58-28.58-54.62V39L146.09,19l29.5-17Z"/><path class="cls-10" d="M672,351.42c0-21-12.81-45.51-28.59-54.62L164.79,20.48c-15.78-9.11-28.59.57-28.59,21.61v323c0,21,12.81,45.51,28.59,54.62L643.39,696c15.78,9.11,28.59-.58,28.59-21.61Z"/><path class="cls-11" d="M632.75,659.19a8.52,8.52,0,0,0,12.78-7.38V333.63a8.55,8.55,0,0,0-4.26-7.38C598.59,301.62,248,99.21,176.33,57.82a8.52,8.52,0,0,0-12.77,7.38V383.38a8.52,8.52,0,0,0,4.26,7.38Z"/><path class="cls-12" d="M629.88,319.67,337.29,488.6l-31.87-18.4L598,301.27Zm-51.93-30L285.36,458.61,177.78,396.5,470.36,227.58Z"/><path class="cls-13" d="M668,329.66l29.52-17.05a65.81,65.81,0,0,1,4,21.76v323c0,11.47-3.81,19.56-9.82,23.07l-.1.06-29.46,17c6-3.51,9.85-11.61,9.85-23.09v-323a66,66,0,0,0-4-21.76Z"/><path class="cls-14" d="M278.61,223.49a5.82,5.82,0,0,1,5.78.33L525,362.57c4.21,2.43,7.07,8.64,6.39,13.85l-52.83,405.3a7,7,0,0,1-3.08,5.38h0l-.43.22-14,6,.23-6.77-237.53-137c-4.21-2.42-7.07-8.63-6.39-13.84L269.72,234l-5.15-4.49,14-6.06Z"/><path class="cls-15" d="M524.07,432.69,478.55,782a7,7,0,0,1-3.09,5.38l-.43.22-14,5.8,45.1-353.55,17.91-7.12Z"/><path class="cls-1" d="M517,382.69c.68-5.22-2.19-11.43-6.39-13.85L270,230.07c-4.21-2.43-8.18-.16-8.86,5.05l-52.83,405.3c-.68,5.21,2.19,11.42,6.39,13.84L455.27,793c4.2,2.43,8.17.17,8.85-5Z"/><path class="cls-16" d="M309.14,509.86l-48.46,8.63V529l48.46,64.59,7-11.8-34.49-46,34.49-6.14Z"/><path class="cls-16" d="M424.29,613l-48.46-64.58-7,11.8,34.49,46-34.49,6.14,7,19.86,48.46-8.62Z"/><path class="cls-16" d="M367.41,532.1l-18.2-10.51-28.15,90.32,18.2,10.51Z"/><path class="cls-17" d="M517,382.69c.68-5.22-2.19-11.43-6.39-13.85L270,230.07c-4.21-2.43-8.18-.16-8.86,5.05l-7.26,55.71L509.69,438.39Z"/><path class="cls-16" d="M417.48,493.82a4.4,4.4,0,0,0-1.88-4.09L270,405.72c-1.24-.72-2.41-.05-2.61,1.49l-.57,4.39a4.4,4.4,0,0,0,1.88,4.09l145.57,84c1.24.72,2.41.05,2.61-1.49l.57-4.39Z"/><path class="cls-16" d="M403.15,442.82a4.39,4.39,0,0,0-1.89-4.09l-126.14-72.8c-1.25-.72-2.42-.05-2.62,1.49l-.57,4.39a4.38,4.38,0,0,0,1.88,4.09L400,448.7c1.25.72,2.42.05,2.62-1.49Z"/><path class="cls-16" d="M458.36,474.69a4.38,4.38,0,0,0-1.88-4.08l-42.43-24.47c-1.24-.72-2.41-.05-2.62,1.49l-.57,4.39a4.41,4.41,0,0,0,1.89,4.09l42.43,24.46c1.24.72,2.41.05,2.61-1.49l.57-4.39Z"/><path class="cls-16" d="M306.59,408.94a4.4,4.4,0,0,0-1.88-4.09l-32.24-18.6c-1.24-.72-2.41-.05-2.61,1.49l-.57,4.39a4.39,4.39,0,0,0,1.89,4.09l32.23,18.6c1.24.72,2.41.05,2.61-1.49l.57-4.39Z"/><path class="cls-16" d="M455.34,494.82a4.4,4.4,0,0,0-1.89-4.09l-135.64-78.3c-1.24-.72-2.41-.05-2.61,1.49l-.58,4.39a4.43,4.43,0,0,0,1.89,4.09l135.64,78.3c1.24.71,2.41,0,2.61-1.49Z"/><path class="cls-16" d="M377.15,406.92a4.38,4.38,0,0,0-1.89-4.08l-97.6-56.32c-1.24-.72-2.41,0-2.61,1.49l-.58,4.39a4.41,4.41,0,0,0,1.89,4.09L374,412.8c1.24.72,2.41.05,2.62-1.49l.57-4.39Z"/><path class="cls-16" d="M445.61,446.45a4.43,4.43,0,0,0-1.89-4.09l-55.43-32c-1.24-.72-2.41-.05-2.61,1.49l-.58,4.39a4.41,4.41,0,0,0,1.89,4.09l55.43,32c1.24.71,2.41.05,2.62-1.49l.57-4.39Z"/><path class="cls-14" d="M237.46,249.55a5.8,5.8,0,0,1,5.77.33L483.85,388.63c4.21,2.43,7.07,8.64,6.39,13.85L437.42,807.77a7,7,0,0,1-3.09,5.39h0l-.43.21-14,6,.24-6.77-237.54-137c-4.2-2.43-7.07-8.63-6.39-13.85L228.56,260.1l-5.14-4.5,14-6Z"/><path class="cls-15" d="M482.91,458.75,437.39,808a7,7,0,0,1-3.08,5.38l-.43.22-14,5.8L465,465.86l17.91-7.11Z"/><path class="cls-1" d="M475.79,408.75c.68-5.21-2.18-11.42-6.39-13.84L228.8,256.14c-4.21-2.43-8.18-.16-8.86,5.05l-52.82,405.3c-.68,5.21,2.18,11.42,6.39,13.85L414.11,819.1c4.21,2.43,8.17.17,8.85-5.05l52.83-405.3Z"/><path class="cls-18" d="M466,483.91,452.46,587.68,196.73,439.23l13.52-103.78L466,483.91Z"/><path class="cls-17" d="M475.79,408.75c.68-5.21-2.18-11.42-6.39-13.84L228.8,256.14c-4.21-2.43-8.18-.16-8.86,5.05l-7.25,55.71L468.53,464.46l7.26-55.71Z"/><path class="cls-16" d="M376.33,519.88a4.39,4.39,0,0,0-1.89-4.09l-145.56-84c-1.24-.72-2.42,0-2.62,1.49l-.57,4.39a4.41,4.41,0,0,0,1.89,4.09l145.56,84c1.24.72,2.41,0,2.62-1.49l.57-4.38Z"/><path class="cls-16" d="M362,468.88a4.4,4.4,0,0,0-1.88-4.09L234,392c-1.25-.71-2.42-.05-2.62,1.49l-.57,4.39a4.39,4.39,0,0,0,1.89,4.09l126.15,72.8c1.24.72,2.41.05,2.61-1.49Z"/><path class="cls-16" d="M417.21,500.75a4.41,4.41,0,0,0-1.89-4.09L372.89,472.2c-1.24-.72-2.41-.05-2.61,1.49l-.57,4.39a4.38,4.38,0,0,0,1.88,4.09L414,506.63c1.24.72,2.42.05,2.61-1.49l.58-4.39Z"/><path class="cls-16" d="M265.44,435a4.41,4.41,0,0,0-1.89-4.09l-32.23-18.6c-1.25-.72-2.42-.05-2.62,1.49l-.57,4.39a4.41,4.41,0,0,0,1.89,4.09l32.23,18.6c1.24.72,2.42.05,2.61-1.49l.57-4.39Z"/><path class="cls-16" d="M414.18,520.88a4.41,4.41,0,0,0-1.89-4.1l-135.63-78.3c-1.24-.71-2.42,0-2.62,1.49l-.57,4.39a4.41,4.41,0,0,0,1.89,4.1L411,526.76c1.24.71,2.41,0,2.61-1.49Z"/><path class="cls-16" d="M336,433a4.39,4.39,0,0,0-1.89-4.09l-97.6-56.31c-1.24-.72-2.41-.05-2.61,1.49l-.57,4.39a4.38,4.38,0,0,0,1.88,4.08l97.6,56.32c1.25.72,2.42.05,2.62-1.49Z"/><path class="cls-16" d="M404.45,472.51a4.41,4.41,0,0,0-1.89-4.09l-55.42-32c-1.25-.72-2.42-.05-2.62,1.49l-.57,4.39a4.39,4.39,0,0,0,1.89,4.09l55.42,32c1.24.71,2.42,0,2.62-1.49l.57-4.39Z"/><path class="cls-19" d="M192.64,470.68,167.12,666.49c-.68,5.21,2.18,11.42,6.39,13.84l153.87,88.75L352.9,573.27c.68-5.22-2.19-11.42-6.4-13.85Z"/><path class="cls-14" d="M125.91,465.35a5.82,5.82,0,0,1,5.78.33l190.5,109.85c4.21,2.43,7.07,8.64,6.39,13.85L298.69,818.7a7,7,0,0,1-3.08,5.39h0l-.43.21-14,6,.23-6.76L94,715.5c-4.21-2.42-7.08-8.63-6.4-13.84L117,475.91l-5.15-4.5,14-6.06Z"/><path class="cls-15" d="M321.25,645.64l-22.59,173.3a7,7,0,0,1-3.08,5.38l-.43.22-14,5.8,22.17-177.58,17.91-7.12Z"/><path class="cls-1" d="M314.12,595.65c.68-5.22-2.18-11.42-6.39-13.85L117.25,471.93c-4.21-2.42-8.18-.16-8.86,5.06L78.5,706.31c-.68,5.22,2.18,11.42,6.39,13.85L275.38,830c4.21,2.42,8.17.16,8.85-5.06Z"/><path class="cls-16" d="M237,722.34a3.74,3.74,0,0,0-1.61-3.48l-124-71.59c-1.06-.6-2.06,0-2.23,1.28l-.49,3.74a3.74,3.74,0,0,0,1.61,3.48l124,71.59c1,.61,2,0,2.22-1.27l.49-3.75Z"/><path class="cls-16" d="M224.77,678.88a3.74,3.74,0,0,0-1.61-3.48l-107.5-62c-1-.61-2,0-2.22,1.27l-.49,3.74a3.74,3.74,0,0,0,1.61,3.49l107.49,62c1.06.61,2.06,0,2.23-1.27Z"/><path class="cls-16" d="M271.82,706.05a3.75,3.75,0,0,0-1.62-3.48l-36.15-20.85c-1.06-.61-2.05,0-2.23,1.27l-.48,3.74a3.73,3.73,0,0,0,1.61,3.48l36.15,20.85c1.06.61,2.06,0,2.23-1.27Z"/><path class="cls-16" d="M142.48,650a3.72,3.72,0,0,0-1.6-3.49l-27.47-15.85c-1.06-.61-2,0-2.23,1.27l-.49,3.74a3.79,3.79,0,0,0,1.62,3.49L139.77,655c1.06.62,2.06.05,2.23-1.27Z"/><path class="cls-16" d="M269.23,723.19a3.72,3.72,0,0,0-1.61-3.48L152.05,653c-1.07-.61-2.06,0-2.23,1.28l-.49,3.73a3.75,3.75,0,0,0,1.61,3.49L266.51,728.2c1.06.61,2.06,0,2.23-1.27Z"/><path class="cls-16" d="M202.61,648.3a3.77,3.77,0,0,0-1.6-3.49l-83.17-48c-1.06-.61-2.06,0-2.23,1.27l-.48,3.74a3.72,3.72,0,0,0,1.6,3.49l83.17,48c1.06.61,2.06,0,2.23-1.28Z"/><path class="cls-16" d="M260.94,682a3.74,3.74,0,0,0-1.61-3.48L212.1,651.25c-1-.61-2,0-2.22,1.27l-.49,3.74a3.74,3.74,0,0,0,1.61,3.48L258.23,687c1,.61,2,0,2.22-1.27Z"/><path class="cls-17" d="M314.12,595.65c.68-5.22-2.18-11.42-6.39-13.85L117.25,471.93c-4.21-2.42-8.18-.16-8.86,5.06l-7.26,55.71L306.86,651.36Z"/><path class="cls-20" d="M129.78,326c2.32-1.32,5.37-1.2,8.59.67L504.85,539.39c6.4,3.72,11.08,13,10.42,20.65l-6.7,78.54c-.32,3.82-1.91,6.53-4.21,7.84h0a5.12,5.12,0,0,1-.62.31l-17.24,7.15-.12-10-361.76-210s-11.08-13-10.43-20.65L120.44,340l-7.94-6.81,10.72-4.45,6.56-2.72Z"/><path class="cls-21" d="M421.65,509l15.42-8.91,67.77,39.33c6.41,3.72,11.08,13,10.42,20.65l-6.7,78.54c-.32,3.82-1.91,6.54-4.21,7.84h0a4.48,4.48,0,0,1-.62.31l-17.24,7.16-.11-10L421.65,509Z"/><path class="cls-22" d="M515.26,560.05l-6.7,78.54c-.32,3.81-1.91,6.53-4.21,7.83l-.62.32L487,653.67,494,568.31Z"/><path class="cls-23" d="M497.37,567.52c.65-7.67-4-16.92-10.43-20.64L120.5,334.15c-6.41-3.73-12.15-.51-12.8,7.16L101,419.85c-.65,7.68,4,16.93,10.43,20.65L477.87,653.23c6.41,3.72,12.14.51,12.8-7.16Z"/><path class="cls-24" d="M497.37,567.52c.65-7.67-4-16.92-10.43-20.64L421.65,509l-9.07,106.36,65.29,37.9c6.41,3.72,12.14.51,12.8-7.16l6.7-78.55Z"/><path class="cls-1" d="M140.64,433l3.08-38.72,7.06,4.07L147.7,437Zm3.71-46.59.62-7.79,7.05,4.08-.62,7.78Z"/><path class="cls-1" d="M154.33,440.87l3.08-38.72,7.06,4.07-.3,3.74.14.08a5.5,5.5,0,0,1,2.9-1.48,6.29,6.29,0,0,1,4.07,1.12,12.85,12.85,0,0,1,4.81,5,14.91,14.91,0,0,1,1.43,3.9,15.9,15.9,0,0,1,.27,4.75l-2.36,29.71L168.38,449l2.13-26.81a7.64,7.64,0,0,0-.64-3.88,5.86,5.86,0,0,0-2.46-2.7c-1.33-.77-2.29-.85-2.87-.22a6,6,0,0,0-1.08,3.53l-2.07,26-7.06-4.07Z"/><path class="cls-1" d="M190.11,448.35a10,10,0,0,0,.53,4.29,5.55,5.55,0,0,0,2.51,3,2.31,2.31,0,0,0,2.67.14,3.77,3.77,0,0,0,1.24-2.91l1.2-15a6.51,6.51,0,0,0-.77-3.59,6.13,6.13,0,0,0-2.43-2.64c-1.33-.78-2.28-.84-2.84-.21a4.73,4.73,0,0,0-1,2.79Zm6,16.63.28-3.51-1.44.8a4.13,4.13,0,0,1-1.49.47,5,5,0,0,1-1.79-.16,9.66,9.66,0,0,1-2.31-1,12.31,12.31,0,0,1-5.86-7.23,15.16,15.16,0,0,1-.65-3.72,39.78,39.78,0,0,1,.13-5.28l1.17-14.74a60.83,60.83,0,0,1,.7-6.07c.48-2.38,1.72-3.67,3.71-3.85q1.39-.23,4,1.29a12.49,12.49,0,0,1,3.62,3.16,18.62,18.62,0,0,1,2.57,4.56l.13.08,1.53-19.17,7.05,4.08-4.32,54.38L196.1,465Z"/><path class="cls-1" d="M231.49,468.25l-14-8.07-.41,5.27a5.77,5.77,0,0,0,.71,3.36,6.4,6.4,0,0,0,2.44,2.46c1.34.77,2.26.85,2.77.23a4.67,4.67,0,0,0,1-2.13l7.06,4.07c-.27,3.41-1.44,5.62-3.49,6.61a6,6,0,0,1-3.53.6,11.26,11.26,0,0,1-4.43-1.59,18.54,18.54,0,0,1-5.51-4.79,19.87,19.87,0,0,1-3.24-6.1,15.56,15.56,0,0,1-.76-4.11,32.82,32.82,0,0,1,.07-4.52l1-12.75a27.17,27.17,0,0,1,.62-4.2,7.27,7.27,0,0,1,1.32-2.91,5.29,5.29,0,0,1,3.88-2,10.27,10.27,0,0,1,5.76,1.73,18,18,0,0,1,4.32,3.45,20.67,20.67,0,0,1,3.16,4.46,19.22,19.22,0,0,1,2.08,10.23l-.85,10.69ZM218,454.07l6.92,4,.35-4.43a7,7,0,0,0-.67-3.86,6.19,6.19,0,0,0-2.43-2.56,2.64,2.64,0,0,0-2.62-.36q-1,.57-1.2,2.79Z"/><path class="cls-1" d="M232.52,486l10.22-14.79L236,447.54l7.48,4.31L247,465.37l5.23-8.49,7.47,4.32-9.87,14.1L257,500.16l-7.47-4.32-3.83-14.59L240,490.33,232.52,486Z"/><path class="cls-1" d="M260,501.86l.61-7.79,7.06,4.07-.62,7.79Z"/><path class="cls-1" d="M273.65,509.76,278,455.38l7,4.07-1.54,19.4.14.08a5.41,5.41,0,0,1,2.9-1.47,6.27,6.27,0,0,1,4.07,1.11,12.52,12.52,0,0,1,2.59,2,12.7,12.7,0,0,1,2.22,3,14.91,14.91,0,0,1,1.43,3.9,15.92,15.92,0,0,1,.27,4.75l-2.36,29.71-7.05-4.07,2.13-26.81a7.64,7.64,0,0,0-.64-3.88,5.86,5.86,0,0,0-2.46-2.7c-1.33-.77-2.29-.85-2.87-.22a6,6,0,0,0-1.08,3.53l-2.07,26.05-7.05-4.08Z"/><path class="cls-1" d="M304.45,487l.93-11.76,7.06,4.07-.93,11.76,4.35,2.52-.48,6.11L311,497.22l-1.7,21.46a8.22,8.22,0,0,0,.07,2.28,3.9,3.9,0,0,0,.7,1.61,5.32,5.32,0,0,0,1.31,1.23c.53.36,1.18.77,2,1.22l-.58,7.33-2.91-1.68a15.75,15.75,0,0,1-4-3.17,15.56,15.56,0,0,1-2.42-3.64,14.78,14.78,0,0,1-1.19-3.76,14.29,14.29,0,0,1-.2-3.43L304,493.15l-3.52-2,.48-6.11,3.53,2Z"/><path class="cls-1" d="M316.3,534.39l3.08-38.73,7.05,4.08-.3,3.74.15.08a5.5,5.5,0,0,1,2.9-1.48,6.3,6.3,0,0,1,4.07,1.12,11.05,11.05,0,0,1,3.71,3.41,25,25,0,0,1,2.28,4.11,8.51,8.51,0,0,1,3.12-1.07q1.68-.22,4.52,1.41a13.82,13.82,0,0,1,2.65,2.06,13.47,13.47,0,0,1,2.37,3.08,16,16,0,0,1,1.56,4,14.62,14.62,0,0,1,.34,4.79l-2.36,29.71-7.06-4.08,2.14-26.81a7.61,7.61,0,0,0-.64-3.87,5.76,5.76,0,0,0-2.46-2.7c-1.34-.78-2.3-.85-2.87-.23a6,6,0,0,0-1.08,3.54l-2.07,26-7.06-4.08,2.13-26.8a7.64,7.64,0,0,0-.63-3.88,5.86,5.86,0,0,0-2.46-2.7c-1.34-.78-2.3-.85-2.88-.23a6,6,0,0,0-1.07,3.54l-2.08,26-7.05-4.07Z"/><path class="cls-1" d="M362,503.88,369,508l-3.46,43.45a6.34,6.34,0,0,0,.49,3.44,8.48,8.48,0,0,0,2.65,2.61l-.58,7.33a32.7,32.7,0,0,1-4.33-2.94,14.94,14.94,0,0,1-3.19-3.55,13.15,13.15,0,0,1-1.85-4.47,20.18,20.18,0,0,1-.28-6l3.49-44Z"/><path class="cls-25" d="M13.77,516.21c8.57,1.67,6.89,34.26,10.28,58.07,0,0,36.62,47.55,32.26,48.07C32.82,636.66-1.94,560.61.08,541.59c1-9.31,1-15.55,7.17-22.37,1.17-1.3,2.92-1.94,4.5-2.67A5.3,5.3,0,0,1,13.77,516.21Z"/><path class="cls-26" d="M49.89,797.24s7.68,1.77,5.7,6.47S41.73,819,40.5,822s-8.29,13.74-10.76,12.76-18.37,2.48-11.23-21.38C22,801.73,39,796.73,49.89,797.24Z"/><path class="cls-26" d="M58,848s5.5,8.82,15.32,5.84,5.13-7.17,26.22-14,15.44-20.21,13.68-22.06S97,819.83,92.38,821.3,79,825.63,79,825.63l-21,7.16V848Z"/><path class="cls-27" d="M18.89,635.13s2.42,83.21,2.42,91.12-8.12,59.91-2.8,87.11c0,0,12,12.74,25.58-2.63,0,0,1.51-27.09,3.55-53,1.42-18,3.1-35.44,4.71-42.67,3.91-17.61,2.6-71.49,2.6-71.49L18.9,635.13Z"/><path class="cls-27" d="M45.76,645.11s13.72,68.35,13,113.56c0,0-3.66,66-1.56,78.9,0,0,28.79,7.15,31.69-6.41,0,0-.75-78.57,0-95s2.4-62.21-4.11-88.64-39-2.42-39-2.42Z"/><path class="cls-28" d="M57.22,837.56c-4.46-38.25,1.56-78.9,1.56-78.9,2.43-74.5-30.29-62.38-29-105.82l34.8,9.59s12.8,33.65,10.85,84.12c-1.52,39.06-2.14,77.47-2.35,92.89A73.68,73.68,0,0,1,57.22,837.56Z"/><path class="cls-28" d="M18.51,813.37c-5-37.78,2.79-78.31,2.79-86.23,0-7.54-10.61-53.21-2.41-91.5l15.45,11.9s4.9,50.21,0,78.81c-4.46,26-1.59,76.69-3.77,91.23C22,817.58,18.51,813.37,18.51,813.37Z"/><path class="cls-25" d="M11.38,515.9s-13.21,6.93-5.19,29.47,10.55,82.57,8.88,88.37c0,0-1.87,18.72,41.06,29,0,0,32.94,2.94,30.54-20.77-5.09-50.24-10.78-59.72-10.08-68.64S82.3,546.54,59.82,535,25.59,514.75,11.38,515.9Z"/><path class="cls-29" d="M67.7,563.4c14.92,11.36,10.4,16.15,11.66,21.73,4.49,19.88,6,37.28,7.43,59.26.82,12.35-13,17.68-23,18.32-3.39-10.26-17.38-115.5,3.86-99.31Z"/><path class="cls-30" d="M27,504.38s1.65,11.83-2.27,19.32c-3.56,6.81,24.49,12.4,25,6.14,0-.66-5.51-10.76,1-23,3.4-6.39-23.75-2.47-23.75-2.47Z"/><path class="cls-31" d="M24.82,524.13c2.91-5.6,2.76-13.53,2.47-17.25l20.6,9.7v.06c-.75.19-14.44,4-17.23,13.92-4.23-1.64-7.13-4-5.84-6.43Z"/><path class="cls-30" d="M55,472.46s4.69,15.82,5.62,25.63c1,10.4-.31,17.67-3.51,19.82-3.76,2.52-9.89,4.49-19,1.36-11.07-3.81-23-18.7-18.54-32.4S38.19,461.71,55,472.46Z"/><path class="cls-32" d="M20.28,501.57c4.16-12.31,14.81-27.22,14.7-28-.07-.48,3.52-2.82,7.59-5.33A24.42,24.42,0,0,1,55,472.47a59,59,0,0,1,2.43,7.29c-2.56,3-7.83,6.4-8.61,8.91-1.75,5.91-.5,14.76,1.31,18.65s-5.12,9.77-3.58,13.21l.05.48A31.92,31.92,0,0,1,38,519.27c-7.1-2.44-14.47-9.41-17.75-17.7Z"/><path class="cls-33" d="M56,473s1.45,5.1-5.57,9.34c-5.5,3.35-5,12.25-4.7,14s2.15,9.56,1.48,10.58c-1.31,1.95-5.95-4-8.09-3.55-5.44,1.17-3.21,6.22,1.86,11.47,5.4,5.59-8.46,8.19-15,3.63-3.48-2.42-4.74-3.89-9.42-12.72-6.78-12.89-7.42-28.52,7.8-37.18S51.27,466.42,56,473Z"/><path class="cls-34" d="M38.84,495.59c-12.85,5.55-25.87,5.7-26.9,1.76-2.25-8.66-.86-19.13,6.24-25.59a24,24,0,0,1,6.44-4.18,39.66,39.66,0,0,1,16-3.25,22.34,22.34,0,0,1,18.74,10.41c1.9,2.81,3,5.83.29,8.33-4.42,4-10.13,7.91-20.82,12.52Z"/><path class="cls-29" d="M48.07,526.19l9.24,7.48s-28.17,8.67-36.71-5c-1.22-1.95.07-8.56,5-9.88C25.58,518.76,26.76,530,48.07,526.19Z"/><path class="cls-30" d="M59.57,542c7.66-4.19,25.77,18.32,43.57,34.52l28.75-35.1c.62-2.75,1.81-8.49,1.74-11.65-.12-4.26,2.53-7,3-7.69,1.74-2.63,15-14,14.88-11.82-.35,5.42-4.77,8.64-2.85,9.42,3.62,1.47,7.78,4.41,8.13,7.94.16,1.72-1.37,3.23-2.63,5-1.92,2.69-4.31.29-4.63,1.83-2,9.63-6.49,9.61-8.77,12-8.95,26-28.81,49-28.81,49v0a12.3,12.3,0,0,1-6,2.64c-17.36-3.54-34.13-20.35-46.16-37.87-8.61-12.53-.17-18.16-.17-18.16Z"/><path class="cls-25" d="M57.4,540c14.72-9.65,28.93,19.05,46.72,35.25l27.77-33.91c.62-2.75,13.64,3.69,10.6,6.88-15.64,47.66-36.15,55-36.15,55-17.36-3.53-33-18.33-48.3-33.07S57.4,540,57.4,540Z"/><path class="cls-35" d="M588.94,711.12c-5.48-4.78-10.41-3.32-10.41-3.32-3.07,3.08-3.35,5-5.79,7.68-3.75,4.1-1.92,5.1-3.39,8-.81,1.58,1.93,1.51,3.07-.53,1-1.77,2.44-2.72,2.52-1.64.14,2.15-.94,10.19,1.55,12.14,1.14.9,6,0,8.52-3.53C588.8,724.46,588.62,715.3,588.94,711.12Z"/><path class="cls-36" d="M581.6,599.15c-3.82,7.68,7.27,31.06,11.34,55.3,0,0-16.21,47.27-16.37,55.23,1.88,1.9,9.15,4,12.31,2.38,5.46-10.28,17.13-31.23,26.33-53.29,1.36-19.87-6-36.72-9-43.58-3.85-8.77-5.82-14.84-13.91-19.58-1.54-.91-3.45-1-5.22-1.21-.68-.08-3.64,1.14-5.44,4.75Z"/><path class="cls-37" d="M553.74,895.38s-7.42,1.71-5.51,6.24,13.38,14.75,14.56,17.63,8,13.26,10.38,12.31S590.89,934,584,910.93C580.64,899.71,564.23,894.89,553.74,895.38Z"/><path class="cls-37" d="M543,950.36s-5.31,8.51-14.77,5.64-5-6.93-25.29-13.55S488,923,489.71,921.17s15.66,2,20.14,3.41,12.87,4.18,12.87,4.18L543,935.67v14.69Z"/><path class="cls-38" d="M586,707.79s-2.71,93.61-2.71,102.51,9.13,67.4,3.14,98c0,0-13.55,14.33-28.77-3,0,0-1.7-30.48-4-59.57-1.6-20.28-3.49-39.87-5.3-48-4.4-19.8-2.93-80.41-2.93-80.41Z"/><path class="cls-38" d="M555.78,719s-15.43,76.89-14.64,127.74c0,0,4.11,74.28,1.75,88.76,0,0-32.39,8-35.65-7.21,0,0,.84-88.39,0-106.86s-2.7-70,4.62-99.71S555.78,719,555.78,719Z"/><path class="cls-39" d="M566.3,762.29c-.37,16.29,0,34.41,2.32,48.12,5,29.28,1.8,86.27,4.25,102.63,9.61,0,13.57-4.74,13.57-4.74,5.59-42.5-3.15-88.09-3.15-97,0-8.48,11.94-59.86,2.72-102.93l-17.39,13.38s-.27,2.85-.64,7.65l-33.35,9.11s-14.41,37.86-12.21,94.63c1.71,44,2.41,87.15,2.65,104.5a82.89,82.89,0,0,0,17.82-2.11c5-43-1.75-88.76-1.75-88.76-.61-18.72.83-31.81,3.4-41.56,5.09-19.27,14.84-30.48,21.76-42.92Z"/><path class="cls-40" d="M592.26,594.81c14.4,6.59,14,35.53,8.11,54-7.44,23.31-10.71,84.4-9,90.34,0,0-8.76,21.9-47.64,24.55-11.89.81-38.62-5.61-36.16-29.85,5.2-51.35,6-73.68,7.35-82.72,2.5-17.17,4.46-25.38,27.44-37.2s41.45-23,49.91-19.09Z"/><path class="cls-36" d="M551.36,627.27c10.5-5.4,10,11-8.39,41.5-2.8,4.66-11.72,22.19-11.87,28.61-.84,35.68-1.08,37.35-2.8,64.24-19.64-6.39-21.59-19.46-20.74-27.79,5.2-51.35,6-73.69,7.35-82.73C517.41,633.93,528.38,639.09,551.36,627.27Z"/><path class="cls-35" d="M442.25,637.67c4.37-5.82,2.56-10.62,2.56-10.62-3.29-2.85-5.25-3-8.08-5.23-4.36-3.45-5.23-1.54-8.2-2.8-1.63-.69-1.37,2,.75,3,1.83.86,2.89,2.24,1.82,2.4-2.14.29-10.24-.2-12,2.42-.82,1.2.39,6,4.14,8.25,5.7,3.38,14.82,2.54,19,2.56Z"/><path class="cls-40" d="M553.4,622.24c-16.32-14.67-30.45,9.5-54.33,15.31,0,0-48.32-12.75-56.27-12.33-1.76,2-3.32,9.41-1.48,12.44,10.65,4.71,32.39,14.84,55.06,22.41,19.91-.08,48.41-2.85,58.15-12.86A17.17,17.17,0,0,0,553.4,622.24Z"/><path class="cls-30" d="M575.93,582.64s-1.69,12.09,2.32,19.74c3.64,7-25,12.68-25.58,6.28,0-.67,5.63-11-1-23.51C548.18,578.62,575.93,582.64,575.93,582.64Z"/><path class="cls-31" d="M578.12,602.8c-3-5.72-2.83-13.83-2.53-17.63l-21.06,9.92v.06c.76.2,14.75,4.05,17.6,14.23,4.33-1.68,7.29-4,6-6.58Z"/><path class="cls-36" d="M554.36,604.92l-9.45,7.65s28.79,8.86,37.53-5.15c1.24-2-.08-8.75-5.09-10.09,0,0-1.22,11.51-23,7.59Z"/><path class="cls-30" d="M547.31,550s-4.93,11.54-4.2,21.58c.23,3.07-.82,3.95-1.71,6.18-1.79,4.52.89,3.26,1.31,6.7.26,2-.83,9.79,2.45,12,3.83,2.58,10.1,4.59,19.46,1.39,11.31-3.89,23.46-19.12,19-33.12S564.45,539,547.31,550Z"/><path class="cls-32" d="M582.75,579.76c-4.25-12.59-15.14-27.82-15-28.61.07-.49-3.6-2.89-7.76-5.45A25,25,0,0,0,547.31,550a60.83,60.83,0,0,0-2.49,7.45c2.62,3,8,6.55,8.8,9.11,1.8,6,.52,15.09-1.33,19.07s5.23,10,3.66,13.5l-.06.49a33.18,33.18,0,0,0,8.73-1.78C571.87,595.35,579.4,588.23,582.75,579.76Z"/><path class="cls-41" d="M546.3,550.54s-1.48,5.22,5.68,9.55c5.63,3.43,5.14,12.52,4.82,14.28s-2.21,9.77-1.52,10.82c1.34,2,6.09-4.09,8.27-3.63,5.56,1.19,3.28,6.36-1.91,11.72-5.51,5.71,8.65,8.37,15.33,3.71,3.56-2.48,4.85-4,9.63-13,6.93-13.16,7.58-29.14-8-38S551.08,543.82,546.3,550.54Z"/><path class="cls-42" d="M563.79,573.64c13.13,5.66,26.44,5.82,27.48,1.8,2.31-8.86.89-19.56-6.37-26.16a24.44,24.44,0,0,0-6.58-4.28A40.55,40.55,0,0,0,562,541.68c-8.11.16-14.64,4-19.15,10.64-1.94,2.87-3.11,5.95-.3,8.52C547,565,552.85,568.92,563.79,573.64Z"/></g></g></svg>